SplineFontDB: 3.0
FontName: Pacifico
FullName: Pacifico
FamilyName: Pacifico
Weight: Book
Copyright: Copyright (c) 2011 by vernon adams. All rights reserved.
Version: 1.002
ItalicAngle: 0
UnderlinePosition: -103
UnderlineWidth: 102
Ascent: 1638
Descent: 410
sfntRevision: 0x00010000
LayerCount: 2
Layer: 0 1 "Back"  1
Layer: 1 1 "Fore"  0
XUID: [1021 846 39740748 16541119]
FSType: 0
OS2Version: 3
OS2_WeightWidthSlopeOnly: 0
OS2_UseTypoMetrics: 1
CreationTime: 1297379580
ModificationTime: 1328269890
PfmFamily: 17
TTFWeight: 400
TTFWidth: 5
LineGap: 0
VLineGap: 0
Panose: 2 0 0 0 0 0 0 0 0 0
OS2TypoAscent: 1243
OS2TypoAOffset: 1
OS2TypoDescent: -518
OS2TypoDOffset: 1
OS2TypoLinegap: 0
OS2WinAscent: 0
OS2WinAOffset: 1
OS2WinDescent: 0
OS2WinDOffset: 1
HheadAscent: 0
HheadAOffset: 1
HheadDescent: 0
HheadDOffset: 1
OS2SubXSize: 1434
OS2SubYSize: 1331
OS2SubXOff: 0
OS2SubYOff: 287
OS2SupXSize: 1434
OS2SupYSize: 1331
OS2SupXOff: 0
OS2SupYOff: 977
OS2StrikeYSize: 102
OS2StrikeYPos: 512
OS2Vendor: 'newt'
OS2CodePages: 20000111.40000000
OS2UnicodeRanges: 8000002f.4000004b.00000000.00000000
Lookup: 4 0 0 "'dlig' Discretionary Ligatures in Latin lookup 0"  {"'dlig' Discretionary Ligatures in Latin lookup 0 per glyph data 0"  "'dlig' Discretionary Ligatures in Latin lookup 0 per glyph data 1"  "'dlig' Discretionary Ligatures in Latin lookup 0 per glyph data 2"  } ['dlig' ('DFLT' <'dflt' > 'latn' <'dflt' > ) ]
Lookup: 4 0 0 "Ligature Substitution lookup 1"  {"Ligature Substitution lookup 1 subtable"  } []
Lookup: 1 0 0 "Single Substitution lookup 2"  {"Single Substitution lookup 2 subtable"  } []
Lookup: 1 0 0 "Single Substitution lookup 3"  {"Single Substitution lookup 3 subtable"  } []
Lookup: 1 0 0 "Single Substitution lookup 4"  {"Single Substitution lookup 4 subtable"  } []
Lookup: 4 0 0 "'dlig' Discretionary Ligatures in Latin lookup 5"  {"'dlig' Discretionary Ligatures in Latin lookup 5 subtable"  } ['dlig' ('DFLT' <'dflt' > 'latn' <'dflt' > ) ]

StartChar: exclam
Encoding: 33 33 4
Width: 1011
GlyphClass: 2
Flags: MW
LayerCount: 2
Fore
SplineSet
638 191 m 0,0,1
 638 106 638 106 590 52 c 128,-1,2
 542 -2 542 -2 457 -2 c 0,3,4
 377 -2 377 -2 335 40 c 128,-1,5
 293 82 293 82 293 162 c 0,6,7
 293 250 293 250 341 301.5 c 128,-1,8
 389 353 389 353 476 353 c 0,9,10
 554 353 554 353 596 311 c 128,-1,11
 638 269 638 269 638 191 c 0,0,1
928 1862 m 0,12,13
 985 1862 985 1862 1018 1834.5 c 128,-1,14
 1051 1807 1051 1807 1051 1762 c 0,15,16
 1051 1727 1051 1727 1036 1683 c 128,-1,17
 1021 1639 1021 1639 999 1593 c 128,-1,18
 977 1547 977 1547 974 1540 c 2,19,-1
 595 532 l 2,20,21
 588 514 588 514 567 503 c 128,-1,22
 546 492 546 492 521 492 c 0,23,24
 475 492 475 492 475 537 c 0,25,26
 475 544 475 544 477 552 c 2,27,-1
 755 1704 l 2,28,29
 771 1773 771 1773 816.5 1817.5 c 128,-1,30
 862 1862 862 1862 928 1862 c 0,12,13
EndSplineSet
EndChar

StartChar: quotedbl
Encoding: 34 34 5
Width: 1184
GlyphClass: 2
Flags: MW
LayerCount: 2
Fore
SplineSet
664 1135 m 0,0,1
 627 1135 627 1135 605.5 1162.5 c 128,-1,2
 584 1190 584 1190 584 1233 c 0,3,4
 584 1319 584 1319 580 1481.5 c 128,-1,5
 576 1644 576 1644 576 1728 c 0,6,7
 576 1786 576 1786 620.5 1821 c 128,-1,8
 665 1856 665 1856 724 1856 c 0,9,10
 766 1856 766 1856 794.5 1831.5 c 128,-1,11
 823 1807 823 1807 823 1762 c 0,12,13
 823 1752 823 1752 822 1747 c 0,14,15
 788 1399 788 1399 756 1230 c 0,16,17
 748 1190 748 1190 723 1162.5 c 128,-1,18
 698 1135 698 1135 664 1135 c 0,0,1
310 1135 m 0,19,20
 242 1135 242 1135 230 1233 c 0,21,22
 228 1248 228 1248 221.5 1308 c 128,-1,23
 215 1368 215 1368 212.5 1392.5 c 128,-1,24
 210 1417 210 1417 205 1471 c 128,-1,25
 200 1525 200 1525 198 1560 c 128,-1,26
 196 1595 196 1595 194 1641 c 128,-1,27
 192 1687 192 1687 192 1728 c 0,28,29
 192 1786 192 1786 230.5 1821 c 128,-1,30
 269 1856 269 1856 320 1856 c 0,31,32
 368 1856 368 1856 398 1828 c 128,-1,33
 428 1800 428 1800 428 1747 c 0,34,35
 428 1516 428 1516 392 1230 c 0,36,37
 387 1191 387 1191 364 1163 c 128,-1,38
 341 1135 341 1135 310 1135 c 0,19,20
EndSplineSet
EndChar

StartChar: numbersign
Encoding: 35 35 6
Width: 1248
GlyphClass: 2
Flags: MW
LayerCount: 2
Fore
SplineSet
800 960 m 1,0,1
 713 755 713 755 676 669 c 1,2,-1
 828 669 l 2,3,4
 929 669 929 669 980 670 c 1,5,6
 1006 740 1006 740 1031 814 c 1,7,-1
 1083 960 l 1,8,-1
 800 960 l 1,0,1
166 556 m 0,9,10
 166 593 166 593 183.5 617 c 128,-1,11
 201 641 201 641 233.5 652.5 c 128,-1,12
 266 664 266 664 299 668 c 128,-1,13
 332 672 332 672 378 672 c 2,14,-1
 416 672 l 1,15,-1
 545 960 l 1,16,-1
 483 960 l 2,17,18
 425 960 425 960 387 987.5 c 128,-1,19
 349 1015 349 1015 349 1068 c 0,20,21
 349 1107 349 1107 369.5 1132 c 128,-1,22
 390 1157 390 1157 430 1167.5 c 128,-1,23
 470 1178 470 1178 504 1181 c 128,-1,24
 538 1184 538 1184 591 1184 c 2,25,-1
 644 1184 l 1,26,-1
 782 1490 l 1,27,28
 807 1549 807 1549 861 1590 c 128,-1,29
 915 1631 915 1631 987 1631 c 0,30,31
 1021 1631 1021 1631 1032.5 1609 c 128,-1,32
 1044 1587 1044 1587 1044 1546 c 0,33,34
 1044 1532 1044 1532 1026 1491 c 0,35,36
 1022 1482 1022 1482 1019 1473 c 128,-1,37
 1016 1464 1016 1464 1012 1455 c 0,38,39
 993 1409 993 1409 953 1319.5 c 128,-1,40
 913 1230 913 1230 894 1184 c 1,41,42
 938 1184 938 1184 1028 1184.5 c 128,-1,43
 1118 1185 1118 1185 1163 1185 c 1,44,45
 1173 1214 1173 1214 1186.5 1262 c 128,-1,46
 1200 1310 1200 1310 1211.5 1348 c 128,-1,47
 1223 1386 1223 1386 1239 1431.5 c 128,-1,48
 1255 1477 1255 1477 1275.5 1511 c 128,-1,49
 1296 1545 1296 1545 1322.5 1574.5 c 128,-1,50
 1349 1604 1349 1604 1386 1619.5 c 128,-1,51
 1423 1635 1423 1635 1468 1635 c 0,52,53
 1533 1635 1533 1635 1533 1550 c 0,54,55
 1533 1513 1533 1513 1520.5 1474 c 128,-1,56
 1508 1435 1508 1435 1486.5 1387 c 128,-1,57
 1465 1339 1465 1339 1457 1317 c 0,58,59
 1428 1233 1428 1233 1413 1185 c 1,60,-1
 1539 1185 l 2,61,62
 1621 1185 1621 1185 1621 1123 c 0,63,64
 1621 1076 1621 1076 1602.5 1043 c 128,-1,65
 1584 1010 1584 1010 1548.5 992.5 c 128,-1,66
 1513 975 1513 975 1471.5 967.5 c 128,-1,67
 1430 960 1430 960 1375 960 c 2,68,-1
 1339 960 l 1,69,70
 1301 843 1301 843 1241 673 c 1,71,-1
 1328 673 l 1,72,73
 1410 666 1410 666 1410 609 c 0,74,75
 1410 448 1410 448 1164 448 c 2,76,-1
 1161 448 l 1,77,78
 1089 253 1089 253 1007 55 c 0,79,80
 990 13 990 13 962 -9 c 128,-1,81
 934 -31 934 -31 885 -31 c 0,82,83
 833 -31 833 -31 806 -10 c 128,-1,84
 779 11 779 11 779 60 c 0,85,86
 779 103 779 103 803 172 c 2,87,-1
 900 447 l 1,88,89
 690 445 690 445 576 445 c 1,90,91
 471 217 471 217 387 51 c 0,92,93
 365 9 365 9 336 -13 c 128,-1,94
 307 -35 307 -35 257 -35 c 0,95,96
 159 -35 159 -35 159 43 c 0,97,98
 159 92 159 92 193 168 c 2,99,-1
 317 447 l 1,100,101
 314 447 314 447 308.5 447.5 c 128,-1,102
 303 448 303 448 300 448 c 0,103,104
 242 448 242 448 204 475.5 c 128,-1,105
 166 503 166 503 166 556 c 0,9,10
EndSplineSet
EndChar

StartChar: dollar
Encoding: 36 36 7
Width: 1735
GlyphClass: 2
Flags: MW
LayerCount: 2
Fore
SplineSet
1046 1531 m 1,0,1
 991 1525 991 1525 944.5 1512 c 128,-1,2
 898 1499 898 1499 856.5 1475.5 c 128,-1,3
 815 1452 815 1452 791 1413 c 128,-1,4
 767 1374 767 1374 767 1324 c 0,5,6
 767 1282 767 1282 783 1245.5 c 128,-1,7
 799 1209 799 1209 831 1179 c 128,-1,8
 863 1149 863 1149 887.5 1131.5 c 128,-1,9
 912 1114 912 1114 952 1089 c 0,10,11
 961 1084 961 1084 965 1081 c 1,12,13
 974 1131 974 1131 991 1224 c 128,-1,14
 1008 1317 1008 1317 1021.5 1392 c 128,-1,15
 1035 1467 1035 1467 1046 1531 c 1,0,1
1033 224 m 1,16,17
 1148 253 1148 253 1222.5 322.5 c 128,-1,18
 1297 392 1297 392 1297 507 c 0,19,20
 1297 550 1297 550 1282.5 585.5 c 128,-1,21
 1268 621 1268 621 1236.5 652 c 128,-1,22
 1205 683 1205 683 1184.5 698.5 c 128,-1,23
 1164 714 1164 714 1124 741 c 1,24,-1
 1033 224 l 1,16,17
923 853 m 1,25,26
 908 861 908 861 871 880 c 128,-1,27
 834 899 834 899 814 909.5 c 128,-1,28
 794 920 794 920 758 940.5 c 128,-1,29
 722 961 722 961 700 976 c 128,-1,30
 678 991 678 991 647.5 1014.5 c 128,-1,31
 617 1038 617 1038 598 1058.5 c 128,-1,32
 579 1079 579 1079 557.5 1107 c 128,-1,33
 536 1135 536 1135 524 1162.5 c 128,-1,34
 512 1190 512 1190 504 1224 c 128,-1,35
 496 1258 496 1258 496 1294 c 0,36,37
 496 1400 496 1400 546.5 1485.5 c 128,-1,38
 597 1571 597 1571 681.5 1624.5 c 128,-1,39
 766 1678 766 1678 868.5 1708 c 128,-1,40
 971 1738 971 1738 1084 1743 c 1,41,-1
 1106 1872 l 2,42,43
 1114 1922 1114 1922 1153 1953 c 128,-1,44
 1192 1984 1192 1984 1250 1984 c 0,45,46
 1280 1984 1280 1984 1298.5 1960.5 c 128,-1,47
 1317 1937 1317 1937 1317 1906 c 0,48,49
 1317 1881 1317 1881 1308 1820 c 2,50,-1
 1293 1728 l 1,51,52
 1353 1716 1353 1716 1407 1698 c 128,-1,53
 1461 1680 1461 1680 1515 1649.5 c 128,-1,54
 1569 1619 1569 1619 1608.5 1581.5 c 128,-1,55
 1648 1544 1648 1544 1672.5 1490 c 128,-1,56
 1697 1436 1697 1436 1697 1374 c 0,57,58
 1697 1310 1697 1310 1668 1268.5 c 128,-1,59
 1639 1227 1639 1227 1584 1227 c 0,60,61
 1526 1227 1526 1227 1491.5 1269 c 128,-1,62
 1457 1311 1457 1311 1457 1374 c 0,63,64
 1457 1416 1457 1416 1425 1448 c 128,-1,65
 1393 1480 1393 1480 1351.5 1496.5 c 128,-1,66
 1310 1513 1310 1513 1259 1523 c 1,67,-1
 1163 966 l 1,68,69
 1311 880 1311 880 1375 826 c 0,70,71
 1537 690 1537 690 1537 507 c 0,72,73
 1537 389 1537 389 1494.5 296 c 128,-1,74
 1452 203 1452 203 1376.5 143 c 128,-1,75
 1301 83 1301 83 1204.5 48.5 c 128,-1,76
 1108 14 1108 14 992 4 c 1,77,-1
 962 -158 l 1,78,79
 942 -225 942 -225 862 -225 c 0,80,81
 856 -225 856 -225 844.5 -224.5 c 128,-1,82
 833 -224 833 -224 827 -224 c 0,83,84
 791 -224 791 -224 772.5 -191 c 128,-1,85
 754 -158 754 -158 754 -114 c 0,86,87
 754 -78 754 -78 770 4 c 1,88,89
 687 11 687 11 614.5 28 c 128,-1,90
 542 45 542 45 475 77.5 c 128,-1,91
 408 110 408 110 361 155 c 128,-1,92
 314 200 314 200 285.5 267 c 128,-1,93
 257 334 257 334 257 417 c 0,94,95
 257 582 257 582 354 680 c 128,-1,96
 451 778 451 778 617 778 c 0,97,98
 668 778 668 778 700.5 752 c 128,-1,99
 733 726 733 726 733 680 c 0,100,101
 733 644 733 644 709.5 621 c 128,-1,102
 686 598 686 598 647 598 c 0,103,104
 571 598 571 598 533.5 551 c 128,-1,105
 496 504 496 504 496 420 c 0,106,107
 496 234 496 234 807 210 c 1,108,-1
 923 853 l 1,25,26
EndSplineSet
EndChar

StartChar: percent
Encoding: 37 37 8
Width: 2208
GlyphClass: 2
Flags: MW
LayerCount: 2
Fore
SplineSet
1568 494 m 0,0,1
 1568 452 1568 452 1573.5 413.5 c 128,-1,2
 1579 375 1579 375 1591 337.5 c 128,-1,3
 1603 300 1603 300 1628 278 c 128,-1,4
 1653 256 1653 256 1687 256 c 0,5,6
 1738 256 1738 256 1780.5 297 c 128,-1,7
 1823 338 1823 338 1848 401 c 128,-1,8
 1873 464 1873 464 1886.5 530.5 c 128,-1,9
 1900 597 1900 597 1900 656 c 0,10,11
 1900 928 1900 928 1782 928 c 0,12,13
 1722 928 1722 928 1678 886.5 c 128,-1,14
 1634 845 1634 845 1611 776.5 c 128,-1,15
 1588 708 1588 708 1578 637.5 c 128,-1,16
 1568 567 1568 567 1568 494 c 0,0,1
1808 1120 m 0,17,18
 1896 1120 1896 1120 1962 1085 c 128,-1,19
 2028 1050 2028 1050 2067.5 987.5 c 128,-1,20
 2107 925 2107 925 2126.5 846.5 c 128,-1,21
 2146 768 2146 768 2146 674 c 0,22,23
 2146 471 2146 471 2050.5 311.5 c 128,-1,24
 1955 152 1955 152 1804 90 c 0,25,26
 1740 64 1740 64 1669 64 c 0,27,28
 1498 64 1498 64 1405 181 c 128,-1,29
 1312 298 1312 298 1312 482 c 0,30,31
 1312 610 1312 610 1343.5 723 c 128,-1,32
 1375 836 1375 836 1434.5 925.5 c 128,-1,33
 1494 1015 1494 1015 1590.5 1067.5 c 128,-1,34
 1687 1120 1687 1120 1808 1120 c 0,17,18
672 0 m 0,35,36
 580 0 580 0 580 96 c 0,37,38
 580 134 580 134 588.5 169 c 128,-1,39
 597 204 597 204 605 221.5 c 128,-1,40
 613 239 613 239 634.5 278 c 128,-1,41
 656 317 656 317 664 332 c 0,42,43
 1142 1265 1142 1265 1372 1696 c 0,44,45
 1424 1792 1424 1792 1568 1792 c 0,46,47
 1613 1792 1613 1792 1613 1730 c 0,48,49
 1613 1658 1613 1658 1580 1592 c 0,50,51
 1492 1416 1492 1416 1249.5 889 c 128,-1,52
 1007 362 1007 362 864 96 c 0,53,54
 840 51 840 51 789.5 25.5 c 128,-1,55
 739 0 739 0 672 0 c 0,35,36
350 1141 m 0,56,57
 350 1094 350 1094 355 1050.5 c 128,-1,58
 360 1007 360 1007 372.5 962.5 c 128,-1,59
 385 918 385 918 411 891 c 128,-1,60
 437 864 437 864 473 864 c 0,61,62
 529 864 529 864 575.5 911 c 128,-1,63
 622 958 622 958 649.5 1028.5 c 128,-1,64
 677 1099 677 1099 691.5 1174 c 128,-1,65
 706 1249 706 1249 706 1314 c 0,66,67
 706 1375 706 1375 695 1421.5 c 128,-1,68
 684 1468 684 1468 652 1502 c 128,-1,69
 620 1536 620 1536 568 1536 c 0,70,71
 521 1536 521 1536 483 1511 c 128,-1,72
 445 1486 445 1486 420.5 1446 c 128,-1,73
 396 1406 396 1406 380 1353 c 128,-1,74
 364 1300 364 1300 357 1247 c 128,-1,75
 350 1194 350 1194 350 1141 c 0,56,57
594 1728 m 0,76,77
 770 1728 770 1728 860 1614.5 c 128,-1,78
 950 1501 950 1501 950 1312 c 0,79,80
 950 1098 950 1098 851.5 931 c 128,-1,81
 753 764 753 764 596 699 c 0,82,83
 530 672 530 672 455 672 c 0,84,85
 338 672 338 672 255 734 c 128,-1,86
 172 796 172 796 133 895.5 c 128,-1,87
 94 995 94 995 94 1120 c 0,88,89
 94 1244 94 1244 127 1353 c 128,-1,90
 160 1462 160 1462 221.5 1546 c 128,-1,91
 283 1630 283 1630 379 1679 c 128,-1,92
 475 1728 475 1728 594 1728 c 0,76,77
EndSplineSet
EndChar

StartChar: ampersand
Encoding: 38 38 9
Width: 1523
GlyphClass: 2
Flags: MW
LayerCount: 2
Fore
SplineSet
928 1332 m 0,0,1
 928 1391 928 1391 894.5 1415.5 c 128,-1,2
 861 1440 861 1440 794 1440 c 0,3,4
 712 1440 712 1440 671 1389.5 c 128,-1,5
 630 1339 630 1339 630 1256 c 0,6,7
 630 1129 630 1129 711 993 c 1,8,9
 716 998 716 998 745 1024 c 128,-1,10
 774 1050 774 1050 783.5 1059 c 128,-1,11
 793 1068 793 1068 818.5 1093.5 c 128,-1,12
 844 1119 844 1119 854 1134 c 128,-1,13
 864 1149 864 1149 882 1175.5 c 128,-1,14
 900 1202 900 1202 907.5 1223.5 c 128,-1,15
 915 1245 915 1245 921.5 1274 c 128,-1,16
 928 1303 928 1303 928 1332 c 0,0,1
322 381 m 0,17,18
 322 290 322 290 390 246 c 128,-1,19
 458 202 458 202 566 202 c 0,20,21
 702 202 702 202 839 252 c 1,22,23
 678 456 678 456 535 734 c 1,24,25
 322 568 322 568 322 381 c 0,17,18
1600 -132 m 0,26,27
 1600 -165 1600 -165 1533 -201.5 c 128,-1,28
 1466 -238 1466 -238 1370 -238 c 0,29,30
 1239 -238 1239 -238 1180 -179 c 0,31,32
 1108 -107 1108 -107 1055 -47.5 c 128,-1,33
 1002 12 1002 12 980 41.5 c 128,-1,34
 958 71 958 71 958 78 c 1,35,36
 790 0 790 0 558 0 c 0,37,38
 458 0 458 0 372 19.5 c 128,-1,39
 286 39 286 39 215.5 79 c 128,-1,40
 145 119 145 119 104.5 187 c 128,-1,41
 64 255 64 255 64 345 c 0,42,43
 64 419 64 419 90 488 c 128,-1,44
 116 557 116 557 155.5 609 c 128,-1,45
 195 661 195 661 252.5 710 c 128,-1,46
 310 759 310 759 360.5 791.5 c 128,-1,47
 411 824 411 824 471 857 c 1,48,49
 353 1076 353 1076 353 1242 c 0,50,51
 353 1355 353 1355 411.5 1449.5 c 128,-1,52
 470 1544 470 1544 568.5 1598 c 128,-1,53
 667 1652 667 1652 782 1652 c 0,54,55
 927 1652 927 1652 1021 1571.5 c 128,-1,56
 1115 1491 1115 1491 1115 1355 c 0,57,58
 1115 1285 1115 1285 1093 1220 c 128,-1,59
 1071 1155 1071 1155 1037.5 1106 c 128,-1,60
 1004 1057 1004 1057 953.5 1009.5 c 128,-1,61
 903 962 903 962 858.5 930 c 128,-1,62
 814 898 814 898 758 864 c 1,63,64
 871 629 871 629 1058 365 c 1,65,66
 1168 413 1168 413 1218.5 474 c 128,-1,67
 1269 535 1269 535 1269 636 c 0,68,69
 1269 667 1269 667 1321 667 c 0,70,71
 1374 667 1374 667 1427.5 636.5 c 128,-1,72
 1481 606 1481 606 1481 563 c 0,73,74
 1481 503 1481 503 1457.5 449.5 c 128,-1,75
 1434 396 1434 396 1388.5 350.5 c 128,-1,76
 1343 305 1343 305 1292.5 269.5 c 128,-1,77
 1242 234 1242 234 1174 196 c 1,78,79
 1306 70 1306 70 1364 24 c 0,80,81
 1386 7 1386 7 1429.5 -15 c 128,-1,82
 1473 -37 1473 -37 1508.5 -52.5 c 128,-1,83
 1544 -68 1544 -68 1572 -89.5 c 128,-1,84
 1600 -111 1600 -111 1600 -132 c 0,26,27
EndSplineSet
EndChar

StartChar: quotesingle
Encoding: 39 39 10
Width: 524
GlyphClass: 2
Flags: MW
LayerCount: 2
Fore
SplineSet
434 1861 m 0,0,1
 576 1861 576 1861 576 1749 c 0,2,3
 576 1700 576 1700 553.5 1636 c 128,-1,4
 531 1572 531 1572 491 1502.5 c 128,-1,5
 451 1433 451 1433 420.5 1384.5 c 128,-1,6
 390 1336 390 1336 348 1277.5 c 128,-1,7
 306 1219 306 1219 306 1219 c 2,8,9
 301 1211 301 1211 292 1197 c 0,10,11
 272 1165 272 1165 263 1152 c 128,-1,12
 254 1139 254 1139 240 1126.5 c 128,-1,13
 226 1114 226 1114 212.5 1111 c 128,-1,14
 199 1108 199 1108 176 1108 c 0,15,16
 163 1108 163 1108 140.5 1127.5 c 128,-1,17
 118 1147 118 1147 118 1170 c 0,18,19
 118 1201 118 1201 128 1228 c 1,20,21
 144 1262 144 1262 171.5 1344.5 c 128,-1,22
 199 1427 199 1427 227 1510.5 c 128,-1,23
 255 1594 255 1594 287.5 1676 c 128,-1,24
 320 1758 320 1758 358.5 1809.5 c 128,-1,25
 397 1861 397 1861 434 1861 c 0,0,1
EndSplineSet
EndChar

StartChar: parenleft
Encoding: 40 40 11
Width: 1377
GlyphClass: 2
Flags: MW
LayerCount: 2
Fore
SplineSet
1262 -282 m 0,0,1
 1262 -378 1262 -378 1040 -378 c 0,2,3
 830 -378 830 -378 678 -277 c 128,-1,4
 526 -176 526 -176 450 0.5 c 128,-1,5
 374 177 374 177 374 410 c 0,6,7
 374 633 374 633 434 857 c 128,-1,8
 494 1081 494 1081 604.5 1279.5 c 128,-1,9
 715 1478 715 1478 884 1641.5 c 128,-1,10
 1053 1805 1053 1805 1258 1898 c 0,11,12
 1302 1917 1302 1917 1335 1917 c 128,-1,13
 1368 1917 1368 1917 1387 1900 c 128,-1,14
 1406 1883 1406 1883 1406 1854 c 0,15,16
 1406 1782 1406 1782 1258 1674 c 0,17,18
 1107 1565 1107 1565 986.5 1415.5 c 128,-1,19
 866 1266 866 1266 789 1102.5 c 128,-1,20
 712 939 712 939 671 767 c 128,-1,21
 630 595 630 595 630 430 c 0,22,23
 630 304 630 304 652.5 201.5 c 128,-1,24
 675 99 675 99 722 16.5 c 128,-1,25
 769 -66 769 -66 848 -119.5 c 128,-1,26
 927 -173 927 -173 1034 -191 c 0,27,28
 1060 -195 1060 -195 1100 -198.5 c 128,-1,29
 1140 -202 1140 -202 1164 -205 c 128,-1,30
 1188 -208 1188 -208 1213 -215 c 128,-1,31
 1238 -222 1238 -222 1250 -238.5 c 128,-1,32
 1262 -255 1262 -255 1262 -282 c 0,0,1
EndSplineSet
EndChar

StartChar: parenright
Encoding: 41 41 12
Width: 1377
GlyphClass: 2
Flags: MW
LayerCount: 2
Fore
SplineSet
538 1917 m 0,0,1
 573 1917 573 1917 612 1898 c 0,2,3
 809 1799 809 1799 947.5 1621 c 128,-1,4
 1086 1443 1086 1443 1152 1227 c 128,-1,5
 1218 1011 1218 1011 1218 769 c 0,6,7
 1218 530 1218 530 1156.5 320.5 c 128,-1,8
 1095 111 1095 111 984 -44 c 128,-1,9
 873 -199 873 -199 708 -288.5 c 128,-1,10
 543 -378 543 -378 345 -378 c 0,11,12
 142 -378 142 -378 142 -297 c 0,13,14
 142 -266 142 -266 156 -246 c 128,-1,15
 170 -226 170 -226 198.5 -217.5 c 128,-1,16
 227 -209 227 -209 253.5 -205.5 c 128,-1,17
 280 -202 280 -202 323 -198.5 c 128,-1,18
 366 -195 366 -195 392 -191 c 0,19,20
 531 -168 531 -168 640 -87 c 128,-1,21
 749 -6 749 -6 818.5 118 c 128,-1,22
 888 242 888 242 924 398 c 128,-1,23
 960 554 960 554 960 733 c 0,24,25
 960 1008 960 1008 860 1257 c 128,-1,26
 760 1506 760 1506 564 1674 c 0,27,28
 453 1770 453 1770 453 1837 c 0,29,30
 453 1873 453 1873 477 1895 c 128,-1,31
 501 1917 501 1917 538 1917 c 0,0,1
EndSplineSet
EndChar

StartChar: asterisk
Encoding: 42 42 13
Width: 1024
GlyphClass: 2
Flags: MW
LayerCount: 2
Fore
SplineSet
601 1824 m 0,0,1
 641 1824 641 1824 667.5 1803 c 128,-1,2
 694 1782 694 1782 694 1745 c 0,3,4
 694 1723 694 1723 689 1708 c 0,5,6
 634 1546 634 1546 586 1429 c 1,7,8
 683 1480 683 1480 835 1566 c 0,9,10
 853 1576 853 1576 873 1576 c 0,11,12
 920 1576 920 1576 956.5 1538 c 128,-1,13
 993 1500 993 1500 993 1452 c 0,14,15
 993 1431 993 1431 979 1413.5 c 128,-1,16
 965 1396 965 1396 939.5 1384 c 128,-1,17
 914 1372 914 1372 886 1363.5 c 128,-1,18
 858 1355 858 1355 820 1348.5 c 128,-1,19
 782 1342 782 1342 754 1338.5 c 128,-1,20
 726 1335 726 1335 691 1331.5 c 128,-1,21
 656 1328 656 1328 642 1326 c 1,22,23
 807 1252 807 1252 897 1208 c 0,24,25
 951 1181 951 1181 951 1133 c 0,26,27
 951 1088 951 1088 911 1055 c 128,-1,28
 871 1022 871 1022 823 1022 c 0,29,30
 788 1022 788 1022 765 1045 c 1,31,32
 605 1193 605 1193 553 1248 c 1,33,34
 548 1091 548 1091 548 957 c 0,35,36
 548 914 548 914 510.5 889 c 128,-1,37
 473 864 473 864 424 864 c 0,38,39
 383 864 383 864 357 884.5 c 128,-1,40
 331 905 331 905 331 943 c 0,41,42
 331 991 331 991 347 1042 c 128,-1,43
 363 1093 363 1093 398.5 1169 c 128,-1,44
 434 1245 434 1245 438 1255 c 1,45,46
 338 1198 338 1198 191 1120 c 1,47,48
 175 1110 175 1110 153 1110 c 0,49,50
 106 1110 106 1110 69 1148.5 c 128,-1,51
 32 1187 32 1187 32 1235 c 0,52,53
 32 1265 32 1265 57.5 1286.5 c 128,-1,54
 83 1308 83 1308 129 1320 c 128,-1,55
 175 1332 175 1332 215.5 1339 c 128,-1,56
 256 1346 256 1346 309.5 1351.5 c 128,-1,57
 363 1357 363 1357 381 1360 c 1,58,59
 191 1445 191 1445 128 1477 c 0,60,61
 74 1505 74 1505 74 1551 c 0,62,63
 74 1596 74 1596 114.5 1629.5 c 128,-1,64
 155 1663 155 1663 203 1663 c 0,65,66
 237 1663 237 1663 260 1640 c 0,67,68
 296 1606 296 1606 368 1537 c 128,-1,69
 440 1468 440 1468 473 1437 c 1,70,71
 473 1484 473 1484 475.5 1583.5 c 128,-1,72
 478 1683 478 1683 478 1731 c 0,73,74
 478 1775 478 1775 514.5 1799.5 c 128,-1,75
 551 1824 551 1824 601 1824 c 0,0,1
EndSplineSet
EndChar

StartChar: plus
Encoding: 43 43 14
Width: 1503
GlyphClass: 2
Flags: MW
LayerCount: 2
Fore
SplineSet
768 60 m 0,0,1
 722 60 722 60 697.5 97 c 128,-1,2
 673 134 673 134 673 189 c 2,3,-1
 673 416 l 1,4,-1
 449 416 l 2,5,6
 394 416 394 416 357 440.5 c 128,-1,7
 320 465 320 465 320 511 c 0,8,9
 320 558 320 558 358.5 583 c 128,-1,10
 397 608 397 608 453 608 c 2,11,-1
 673 608 l 1,12,-1
 673 836 l 2,13,14
 673 886 673 886 703.5 920.5 c 128,-1,15
 734 955 734 955 782 955 c 0,16,17
 820 955 820 955 842.5 927.5 c 128,-1,18
 865 900 865 900 865 855 c 2,19,-1
 865 608 l 1,20,-1
 1115 608 l 2,21,22
 1160 608 1160 608 1187.5 585.5 c 128,-1,23
 1215 563 1215 563 1215 525 c 0,24,25
 1215 477 1215 477 1180.5 446.5 c 128,-1,26
 1146 416 1146 416 1096 416 c 2,27,-1
 865 416 l 1,28,-1
 865 193 l 2,29,30
 865 137 865 137 840 98.5 c 128,-1,31
 815 60 815 60 768 60 c 0,0,1
EndSplineSet
EndChar

StartChar: comma
Encoding: 44 44 15
Width: 609
GlyphClass: 2
Flags: MW
LayerCount: 2
Fore
SplineSet
368 -191 m 0,0,1
 332 -191 332 -191 309.5 -168.5 c 128,-1,2
 287 -146 287 -146 287 -109 c 0,3,4
 287 -56 287 -56 302 2.5 c 128,-1,5
 317 61 317 61 342.5 132.5 c 128,-1,6
 368 204 368 204 377 237 c 0,7,8
 388 277 388 277 425 299 c 128,-1,9
 462 321 462 321 514 321 c 0,10,11
 577 321 577 321 624 290.5 c 128,-1,12
 671 260 671 260 671 205 c 0,13,14
 671 183 671 183 663.5 161 c 128,-1,15
 656 139 656 139 648.5 126.5 c 128,-1,16
 641 114 641 114 625 90.5 c 128,-1,17
 609 67 609 67 604 60 c 0,18,19
 593 43 593 43 581 26 c 128,-1,20
 569 9 569 9 558 -8 c 0,21,22
 550 -20 550 -20 532 -51.5 c 128,-1,23
 514 -83 514 -83 500.5 -102.5 c 128,-1,24
 487 -122 487 -122 467 -145 c 128,-1,25
 447 -168 447 -168 422 -179.5 c 128,-1,26
 397 -191 397 -191 368 -191 c 0,0,1
EndSplineSet
EndChar

StartChar: hyphen
Encoding: 45 45 16
Width: 768
GlyphClass: 2
Flags: MW
LayerCount: 2
Fore
SplineSet
608 704 m 2,0,1
 650 704 650 704 676.5 685 c 128,-1,2
 703 666 703 666 703 628 c 0,3,4
 703 512 703 512 575 512 c 2,5,-1
 160 512 l 2,6,7
 63 512 63 512 63 621 c 0,8,9
 63 704 63 704 160 704 c 2,10,-1
 608 704 l 2,0,1
EndSplineSet
EndChar

StartChar: period
Encoding: 46 46 17
Width: 704
GlyphClass: 2
Flags: MW
LayerCount: 2
Fore
SplineSet
503 353 m 0,0,1
 584 353 584 353 628 311.5 c 128,-1,2
 672 270 672 270 672 191 c 0,3,4
 672 104 672 104 622 52 c 128,-1,5
 572 0 572 0 484 0 c 0,6,7
 404 0 404 0 362 41 c 128,-1,8
 320 82 320 82 320 162 c 0,9,10
 320 250 320 250 368 301.5 c 128,-1,11
 416 353 416 353 503 353 c 0,0,1
EndSplineSet
EndChar

StartChar: slash
Encoding: 47 47 18
Width: 1248
GlyphClass: 2
Flags: MW
LayerCount: 2
Fore
SplineSet
341 -33 m 0,0,1
 281 -33 281 -33 251.5 -14.5 c 128,-1,2
 222 4 222 4 222 55 c 0,3,4
 222 89 222 89 230.5 123 c 128,-1,5
 239 157 239 157 248 178 c 128,-1,6
 257 199 257 199 276 237 c 128,-1,7
 295 275 295 275 304 295 c 0,8,9
 739 1282 739 1282 928 1696 c 0,10,11
 960 1765 960 1765 1027.5 1810.5 c 128,-1,12
 1095 1856 1095 1856 1184 1856 c 0,13,14
 1223 1856 1223 1856 1235.5 1831.5 c 128,-1,15
 1248 1807 1248 1807 1248 1760 c 0,16,17
 1248 1739 1248 1739 1239.5 1715.5 c 128,-1,18
 1231 1692 1231 1692 1215 1660.5 c 128,-1,19
 1199 1629 1199 1629 1196 1622 c 0,20,21
 1115 1444 1115 1444 886 895.5 c 128,-1,22
 657 347 657 347 514 64 c 0,23,24
 464 -33 464 -33 341 -33 c 0,0,1
EndSplineSet
EndChar

StartChar: zero
Encoding: 48 48 19
Width: 1203
GlyphClass: 2
Flags: MW
LayerCount: 2
Fore
SplineSet
382 505 m 0,0,1
 382 189 382 189 515 189 c 0,2,3
 572 189 572 189 622.5 229.5 c 128,-1,4
 673 270 673 270 709 336.5 c 128,-1,5
 745 403 745 403 773.5 484 c 128,-1,6
 802 565 802 565 818.5 650 c 128,-1,7
 835 735 835 735 843.5 809 c 128,-1,8
 852 883 852 883 852 939 c 0,9,10
 852 980 852 980 849 1015.5 c 128,-1,11
 846 1051 846 1051 836 1092 c 128,-1,12
 826 1133 826 1133 810 1162 c 128,-1,13
 794 1191 794 1191 765 1210.5 c 128,-1,14
 736 1230 736 1230 697 1230 c 0,15,16
 640 1230 640 1230 591.5 1191.5 c 128,-1,17
 543 1153 543 1153 509.5 1089.5 c 128,-1,18
 476 1026 476 1026 450.5 949.5 c 128,-1,19
 425 873 425 873 410.5 789.5 c 128,-1,20
 396 706 396 706 389 634.5 c 128,-1,21
 382 563 382 563 382 505 c 0,0,1
703 1447 m 0,22,23
 798 1447 798 1447 876 1420 c 128,-1,24
 954 1393 954 1393 1008 1344 c 128,-1,25
 1062 1295 1062 1295 1099 1226.5 c 128,-1,26
 1136 1158 1136 1158 1153 1076.5 c 128,-1,27
 1170 995 1170 995 1170 902 c 0,28,29
 1170 792 1170 792 1150.5 682 c 128,-1,30
 1131 572 1131 572 1093.5 469 c 128,-1,31
 1056 366 1056 366 997 277.5 c 128,-1,32
 938 189 938 189 865 123 c 128,-1,33
 792 57 792 57 695.5 19 c 128,-1,34
 599 -19 599 -19 492 -19 c 0,35,36
 400 -19 400 -19 324.5 11.5 c 128,-1,37
 249 42 249 42 197.5 95 c 128,-1,38
 146 148 146 148 111 221 c 128,-1,39
 76 294 76 294 60 377 c 128,-1,40
 44 460 44 460 44 552 c 0,41,42
 44 662 44 662 62.5 769.5 c 128,-1,43
 81 877 81 877 116.5 977 c 128,-1,44
 152 1077 152 1077 208.5 1162.5 c 128,-1,45
 265 1248 265 1248 336 1311.5 c 128,-1,46
 407 1375 407 1375 501.5 1411 c 128,-1,47
 596 1447 596 1447 703 1447 c 0,22,23
EndSplineSet
EndChar

StartChar: one
Encoding: 49 49 20
Width: 682
GlyphClass: 2
Flags: MW
LayerCount: 2
Fore
SplineSet
515 1442 m 0,0,1
 575 1442 575 1442 612 1422 c 128,-1,2
 649 1402 649 1402 649 1346 c 0,3,4
 649 1327 649 1327 647 1316 c 0,5,6
 618 1127 618 1127 577.5 917 c 128,-1,7
 537 707 537 707 483.5 451 c 128,-1,8
 430 195 430 195 403 56 c 0,9,10
 398 32 398 32 373 16 c 128,-1,11
 348 0 348 0 317 0 c 0,12,13
 121 0 121 0 121 71 c 0,14,15
 121 92 121 92 130 107 c 1,16,17
 147 182 147 182 201 422 c 128,-1,18
 255 662 255 662 297.5 855 c 128,-1,19
 340 1048 340 1048 375 1218 c 1,20,21
 343 1188 343 1188 287.5 1151.5 c 128,-1,22
 232 1115 232 1115 199 1115 c 0,23,24
 175 1115 175 1115 159.5 1136.5 c 128,-1,25
 144 1158 144 1158 144 1182 c 0,26,27
 144 1199 144 1199 152.5 1213 c 128,-1,28
 161 1227 161 1227 177 1241 c 128,-1,29
 193 1255 193 1255 195 1258 c 1,30,31
 211 1270 211 1270 259 1309.5 c 128,-1,32
 307 1349 307 1349 339.5 1373.5 c 128,-1,33
 372 1398 372 1398 421.5 1420 c 128,-1,34
 471 1442 471 1442 515 1442 c 0,0,1
EndSplineSet
EndChar

StartChar: two
Encoding: 50 50 21
Width: 1101
GlyphClass: 2
Flags: MW
LayerCount: 2
Fore
SplineSet
268 181 m 0,0,1
 305 181 305 181 347.5 210 c 128,-1,2
 390 239 390 239 425 290 c 1,3,4
 406 301 406 301 345.5 317.5 c 128,-1,5
 285 334 285 334 240 334 c 0,6,7
 207 334 207 334 188.5 315 c 128,-1,8
 170 296 170 296 170 269 c 0,9,10
 170 235 170 235 196.5 208 c 128,-1,11
 223 181 223 181 268 181 c 0,0,1
1030 221 m 0,12,13
 1030 165 1030 165 1015 118 c 128,-1,14
 1000 71 1000 71 959 36 c 128,-1,15
 918 1 918 1 856 1 c 0,16,17
 840 1 840 1 823 3.5 c 128,-1,18
 806 6 806 6 792.5 9 c 128,-1,19
 779 12 779 12 761.5 19.5 c 128,-1,20
 744 27 744 27 734 30.5 c 128,-1,21
 724 34 724 34 706 45.5 c 128,-1,22
 688 57 688 57 681.5 61 c 128,-1,23
 675 65 675 65 656.5 79 c 128,-1,24
 638 93 638 93 634 96 c 128,-1,25
 630 99 630 99 610.5 114.5 c 128,-1,26
 591 130 591 130 590 131 c 1,27,28
 518 71 518 71 448 36 c 128,-1,29
 378 1 378 1 295 1 c 0,30,31
 173 1 173 1 84.5 79 c 128,-1,32
 -4 157 -4 157 -4 276 c 0,33,34
 -4 385 -4 385 61.5 452.5 c 128,-1,35
 127 520 127 520 236 520 c 0,36,37
 394 520 394 520 549 422 c 1,38,39
 613 491 613 491 661.5 628.5 c 128,-1,40
 710 766 710 766 710 891 c 0,41,42
 710 1001 710 1001 662.5 1068 c 128,-1,43
 615 1135 615 1135 511 1135 c 0,44,45
 431 1135 431 1135 375.5 1088.5 c 128,-1,46
 320 1042 320 1042 320 968 c 0,47,48
 320 928 320 928 344 897 c 128,-1,49
 368 866 368 866 368 840 c 0,50,51
 368 805 368 805 328 776 c 128,-1,52
 288 747 288 747 242 747 c 0,53,54
 82 747 82 747 82 960 c 0,55,56
 82 1069 82 1069 150 1156 c 128,-1,57
 218 1243 218 1243 321 1288 c 128,-1,58
 424 1333 424 1333 536 1333 c 0,59,60
 728 1333 728 1333 848.5 1216 c 128,-1,61
 969 1099 969 1099 969 895 c 0,62,63
 969 600 969 600 725 276 c 1,64,65
 807 229 807 229 895 229 c 0,66,67
 920 229 920 229 949 256.5 c 128,-1,68
 978 284 978 284 995 284 c 0,69,70
 1030 284 1030 284 1030 221 c 0,12,13
EndSplineSet
EndChar

StartChar: three
Encoding: 51 51 22
Width: 1129
GlyphClass: 2
Flags: MW
LayerCount: 2
Fore
SplineSet
306 392 m 0,0,1
 306 373 306 373 289 331.5 c 128,-1,2
 272 290 272 290 272 269 c 0,3,4
 272 242 272 242 304.5 218 c 128,-1,5
 337 194 337 194 384.5 180.5 c 128,-1,6
 432 167 432 167 479 167 c 0,7,8
 603 167 603 167 680 250 c 128,-1,9
 757 333 757 333 757 456 c 0,10,11
 757 515 757 515 742.5 566.5 c 128,-1,12
 728 618 728 618 699.5 660 c 128,-1,13
 671 702 671 702 622.5 726.5 c 128,-1,14
 574 751 574 751 510 751 c 0,15,16
 496 751 496 751 459 753 c 128,-1,17
 422 755 422 755 402 755 c 0,18,19
 370 755 370 755 347.5 771 c 128,-1,20
 325 787 325 787 325 812 c 0,21,22
 325 854 325 854 355.5 883.5 c 128,-1,23
 386 913 386 913 444 913 c 0,24,25
 563 913 563 913 647.5 972.5 c 128,-1,26
 732 1032 732 1032 732 1119 c 0,27,28
 732 1146 732 1146 724.5 1169 c 128,-1,29
 717 1192 717 1192 700.5 1213.5 c 128,-1,30
 684 1235 684 1235 651 1247 c 128,-1,31
 618 1259 618 1259 572 1259 c 0,32,33
 527 1259 527 1259 480.5 1241.5 c 128,-1,34
 434 1224 434 1224 402.5 1203.5 c 128,-1,35
 371 1183 371 1183 340 1165.5 c 128,-1,36
 309 1148 309 1148 293 1148 c 0,37,38
 259 1148 259 1148 234.5 1181 c 128,-1,39
 210 1214 210 1214 210 1247 c 0,40,41
 210 1308 210 1308 277 1358.5 c 128,-1,42
 344 1409 344 1409 449 1436.5 c 128,-1,43
 554 1464 554 1464 669 1464 c 0,44,45
 724 1464 724 1464 778 1454 c 128,-1,46
 832 1444 832 1444 884 1421 c 128,-1,47
 936 1398 936 1398 975.5 1364 c 128,-1,48
 1015 1330 1015 1330 1039.5 1278.5 c 128,-1,49
 1064 1227 1064 1227 1064 1165 c 0,50,51
 1064 923 1064 923 818 845 c 1,52,53
 952 772 952 772 1020 678.5 c 128,-1,54
 1088 585 1088 585 1088 452 c 0,55,56
 1088 302 1088 302 1014 195 c 128,-1,57
 940 88 940 88 808.5 35 c 128,-1,58
 677 -18 677 -18 500 -18 c 0,59,60
 394 -18 394 -18 300 9 c 128,-1,61
 206 36 206 36 140.5 82.5 c 128,-1,62
 75 129 75 129 37 191 c 128,-1,63
 -1 253 -1 253 -1 321 c 0,64,65
 -1 411 -1 411 40.5 471 c 128,-1,66
 82 531 82 531 147 531 c 0,67,68
 223 531 223 531 264.5 490.5 c 128,-1,69
 306 450 306 450 306 392 c 0,0,1
EndSplineSet
EndChar

StartChar: four
Encoding: 52 52 23
Width: 927
GlyphClass: 2
Flags: MW
LayerCount: 2
Fore
SplineSet
785 -28 m 0,0,1
 785 -38 785 -38 770 -38 c 0,2,3
 742 -38 742 -38 683 -41.5 c 128,-1,4
 624 -45 624 -45 597 -45 c 0,5,6
 528 -45 528 -45 497 -19.5 c 128,-1,7
 466 6 466 6 466 71 c 0,8,9
 466 135 466 135 501 273 c 1,10,11
 422 273 422 273 305 232.5 c 128,-1,12
 188 192 188 192 120 192 c 0,13,14
 86 192 86 192 86 237 c 0,15,16
 86 286 86 286 144 372 c 1,17,18
 179 462 179 462 211.5 576 c 128,-1,19
 244 690 244 690 261.5 764.5 c 128,-1,20
 279 839 279 839 313 992 c 0,21,22
 327 1052 327 1052 499 1052 c 0,23,24
 622 1052 622 1052 622 1019 c 0,25,26
 622 951 622 951 609.5 883 c 128,-1,27
 597 815 597 815 571.5 748 c 128,-1,28
 546 681 546 681 523.5 631 c 128,-1,29
 501 581 501 581 465 507.5 c 128,-1,30
 429 434 429 434 411 394 c 1,31,32
 475 391 475 391 522 391 c 2,33,-1
 535 391 l 1,34,35
 544 419 544 419 571.5 504 c 128,-1,36
 599 589 599 589 612 633 c 0,37,38
 624 676 624 676 663.5 703 c 128,-1,39
 703 730 703 730 756 730 c 0,40,41
 797 730 797 730 816.5 717.5 c 128,-1,42
 836 705 836 705 836 674 c 0,43,44
 836 633 836 633 823.5 589.5 c 128,-1,45
 811 546 811 546 788.5 490.5 c 128,-1,46
 766 435 766 435 759 414 c 1,47,48
 771 416 771 416 808 423.5 c 128,-1,49
 845 431 845 431 869.5 434 c 128,-1,50
 894 437 894 437 917 437 c 0,51,52
 941 437 941 437 941 397 c 0,53,54
 941 365 941 365 936 337 c 128,-1,55
 931 309 931 309 917 286.5 c 128,-1,56
 903 264 903 264 881 264 c 0,57,58
 855 264 855 264 715 269 c 1,59,60
 696 188 696 188 693 149 c 1,61,-1
 693 130 l 2,62,63
 693 103 693 103 716 75 c 128,-1,64
 739 47 739 47 762 21 c 128,-1,65
 785 -5 785 -5 785 -28 c 0,0,1
EndSplineSet
EndChar

StartChar: five
Encoding: 53 53 24
Width: 1157
GlyphClass: 2
Flags: MW
LayerCount: 2
Fore
SplineSet
489 -22 m 0,0,1
 429 -22 429 -22 369.5 -5.5 c 128,-1,2
 310 11 310 11 256 46.5 c 128,-1,3
 202 82 202 82 160.5 131.5 c 128,-1,4
 119 181 119 181 94.5 253 c 128,-1,5
 70 325 70 325 70 409 c 0,6,7
 70 468 70 468 112.5 503.5 c 128,-1,8
 155 539 155 539 239 539 c 0,9,10
 260 539 260 539 289 530 c 128,-1,11
 318 521 318 521 343.5 502 c 128,-1,12
 369 483 369 483 369 459 c 0,13,14
 369 445 369 445 358 431.5 c 128,-1,15
 347 418 347 418 334 407.5 c 128,-1,16
 321 397 321 397 310.5 373 c 128,-1,17
 300 349 300 349 300 317 c 0,18,19
 300 233 300 233 345.5 190 c 128,-1,20
 391 147 391 147 460 147 c 0,21,22
 504 147 504 147 548.5 165 c 128,-1,23
 593 183 593 183 630 214 c 128,-1,24
 667 245 667 245 690 294 c 128,-1,25
 713 343 713 343 713 399 c 0,26,27
 713 446 713 446 703.5 484 c 128,-1,28
 694 522 694 522 678 549.5 c 128,-1,29
 662 577 662 577 635 598.5 c 128,-1,30
 608 620 608 620 580 634.5 c 128,-1,31
 552 649 552 649 511 660 c 128,-1,32
 470 671 470 671 432.5 677.5 c 128,-1,33
 395 684 395 684 343 690 c 0,34,35
 297 696 297 696 276.5 707.5 c 128,-1,36
 256 719 256 719 247 748.5 c 128,-1,37
 238 778 238 778 238 840 c 0,38,39
 238 854 238 854 237.5 896 c 128,-1,40
 237 938 237 938 237 965 c 0,41,42
 237 1017 237 1017 238.5 1060 c 128,-1,43
 240 1103 240 1103 244 1155.5 c 128,-1,44
 248 1208 248 1208 256 1247.5 c 128,-1,45
 264 1287 264 1287 276.5 1321.5 c 128,-1,46
 289 1356 289 1356 309 1374.5 c 128,-1,47
 329 1393 329 1393 354 1393 c 2,48,-1
 388 1393 l 2,49,50
 462 1393 462 1393 590.5 1369 c 128,-1,51
 719 1345 719 1345 795 1345 c 0,52,53
 851 1345 851 1345 911 1359.5 c 128,-1,54
 971 1374 971 1374 987 1398 c 0,55,56
 988 1401 988 1401 1003 1401 c 0,57,58
 1087 1401 1087 1401 1087 1263 c 0,59,60
 1087 1238 1087 1238 1076 1216.5 c 128,-1,61
 1065 1195 1065 1195 1049.5 1180 c 128,-1,62
 1034 1165 1034 1165 1005.5 1151.5 c 128,-1,63
 977 1138 977 1138 954.5 1130 c 128,-1,64
 932 1122 932 1122 894 1113.5 c 128,-1,65
 856 1105 856 1105 835 1101 c 128,-1,66
 814 1097 814 1097 776 1090 c 0,67,68
 762 1088 762 1088 756 1087 c 1,69,70
 703 1091 703 1091 595 1109.5 c 128,-1,71
 487 1128 487 1128 419 1128 c 0,72,73
 417 1128 417 1128 380 1125 c 1,74,75
 382 1101 382 1101 386 1046.5 c 128,-1,76
 390 992 390 992 394 949.5 c 128,-1,77
 398 907 398 907 403 869 c 1,78,79
 490 877 490 877 556 877 c 0,80,81
 792 877 792 877 910.5 779.5 c 128,-1,82
 1029 682 1029 682 1029 465 c 0,83,84
 1029 375 1029 375 1000 296 c 128,-1,85
 971 217 971 217 920 159.5 c 128,-1,86
 869 102 869 102 800.5 60.5 c 128,-1,87
 732 19 732 19 653 -1.5 c 128,-1,88
 574 -22 574 -22 489 -22 c 0,0,1
EndSplineSet
EndChar

StartChar: six
Encoding: 54 54 25
Width: 1166
GlyphClass: 2
Flags: MW
LayerCount: 2
Fore
SplineSet
623 717 m 0,0,1
 486 717 486 717 426 641.5 c 128,-1,2
 366 566 366 566 366 425 c 0,3,4
 366 371 366 371 376 324.5 c 128,-1,5
 386 278 386 278 407.5 239.5 c 128,-1,6
 429 201 429 201 467 178.5 c 128,-1,7
 505 156 505 156 556 156 c 0,8,9
 616 156 616 156 667 189 c 128,-1,10
 718 222 718 222 750 274.5 c 128,-1,11
 782 327 782 327 800 390 c 128,-1,12
 818 453 818 453 818 516 c 0,13,14
 818 612 818 612 768.5 664.5 c 128,-1,15
 719 717 719 717 623 717 c 0,0,1
769 895 m 0,16,17
 839 895 839 895 902 866.5 c 128,-1,18
 965 838 965 838 1011.5 787 c 128,-1,19
 1058 736 1058 736 1085.5 660.5 c 128,-1,20
 1113 585 1113 585 1113 497 c 0,21,22
 1113 382 1113 382 1068.5 282.5 c 128,-1,23
 1024 183 1024 183 948 115 c 128,-1,24
 872 47 872 47 769 8 c 128,-1,25
 666 -31 666 -31 551 -31 c 0,26,27
 333 -31 333 -31 207.5 103 c 128,-1,28
 82 237 82 237 82 474 c 0,29,30
 82 624 82 624 127 763 c 128,-1,31
 172 902 172 902 244.5 1009.5 c 128,-1,32
 317 1117 317 1117 417 1212.5 c 128,-1,33
 517 1308 517 1308 618.5 1375 c 128,-1,34
 720 1442 720 1442 832 1496 c 0,35,36
 883 1521 883 1521 921 1521 c 0,37,38
 969 1521 969 1521 998.5 1497.5 c 128,-1,39
 1028 1474 1028 1474 1028 1436 c 0,40,41
 1028 1370 1028 1370 958 1328 c 0,42,43
 631 1136 631 1136 456 786 c 1,44,45
 526 836 526 836 599 865.5 c 128,-1,46
 672 895 672 895 769 895 c 0,16,17
EndSplineSet
EndChar

StartChar: seven
Encoding: 55 55 26
Width: 926
GlyphClass: 2
Flags: MW
LayerCount: 2
Fore
SplineSet
335 1159 m 2,0,1
 315 1159 315 1159 302 1145 c 128,-1,2
 289 1131 289 1131 282.5 1111.5 c 128,-1,3
 276 1092 276 1092 269 1072 c 128,-1,4
 262 1052 262 1052 248.5 1038 c 128,-1,5
 235 1024 235 1024 214 1024 c 0,6,7
 183 1024 183 1024 164.5 1061.5 c 128,-1,8
 146 1099 146 1099 146 1155 c 0,9,10
 146 1248 146 1248 180 1313.5 c 128,-1,11
 214 1379 214 1379 272 1379 c 0,12,13
 366 1379 366 1379 522 1356 c 128,-1,14
 678 1333 678 1333 787 1333 c 2,15,-1
 818 1333 l 2,16,17
 846 1333 846 1333 886.5 1338 c 128,-1,18
 927 1343 927 1343 944 1343 c 0,19,20
 1010 1343 1010 1343 1010 1252 c 0,21,22
 1010 1232 1010 1232 1005 1216 c 128,-1,23
 1000 1200 1000 1200 986.5 1186 c 128,-1,24
 973 1172 973 1172 966.5 1166 c 128,-1,25
 960 1160 960 1160 938 1146.5 c 128,-1,26
 916 1133 916 1133 913 1131 c 1,27,28
 600 633 600 633 400 26 c 0,29,30
 373 -56 373 -56 231 -56 c 0,31,32
 181 -56 181 -56 144 -27.5 c 128,-1,33
 107 1 107 1 107 49 c 2,34,-1
 107 56 l 2,35,36
 107 76 107 76 110 97.5 c 128,-1,37
 113 119 113 119 116 137 c 128,-1,38
 119 155 119 155 127 179.5 c 128,-1,39
 135 204 135 204 140 219 c 128,-1,40
 145 234 145 234 157 260.5 c 128,-1,41
 169 287 169 287 174 298 c 128,-1,42
 179 309 179 309 193.5 337 c 128,-1,43
 208 365 208 365 211.5 372 c 128,-1,44
 215 379 215 379 230.5 407.5 c 128,-1,45
 246 436 246 436 248 439 c 0,46,47
 390 731 390 731 667 1159 c 1,48,-1
 335 1159 l 2,0,1
EndSplineSet
EndChar

StartChar: eight
Encoding: 56 56 27
Width: 967
GlyphClass: 2
Flags: MW
LayerCount: 2
Fore
SplineSet
290 328 m 0,0,1
 290 272 290 272 320 231 c 128,-1,2
 350 190 350 190 400 190 c 0,3,4
 483 190 483 190 531 246 c 128,-1,5
 579 302 579 302 579 390 c 0,6,7
 579 457 579 457 555.5 505 c 128,-1,8
 532 553 532 553 489 606 c 1,9,10
 454 587 454 587 429.5 571.5 c 128,-1,11
 405 556 405 556 377 531 c 128,-1,12
 349 506 349 506 331.5 479 c 128,-1,13
 314 452 314 452 302 413 c 128,-1,14
 290 374 290 374 290 328 c 0,0,1
511 872 m 1,15,16
 543 890 543 890 575.5 916.5 c 128,-1,17
 608 943 608 943 637.5 976 c 128,-1,18
 667 1009 667 1009 686 1048.5 c 128,-1,19
 705 1088 705 1088 705 1125 c 0,20,21
 705 1196 705 1196 668.5 1234 c 128,-1,22
 632 1272 632 1272 577 1272 c 0,23,24
 507 1272 507 1272 463 1220 c 128,-1,25
 419 1168 419 1168 419 1081 c 0,26,27
 419 1020 419 1020 445 965.5 c 128,-1,28
 471 911 471 911 511 872 c 1,15,16
51 305 m 0,29,30
 51 358 51 358 60.5 406.5 c 128,-1,31
 70 455 70 455 84.5 492.5 c 128,-1,32
 99 530 99 530 123.5 566.5 c 128,-1,33
 148 603 148 603 170.5 629 c 128,-1,34
 193 655 193 655 227 684 c 128,-1,35
 261 713 261 713 286 731.5 c 128,-1,36
 311 750 311 750 348 775 c 1,37,38
 270 826 270 826 224.5 904 c 128,-1,39
 179 982 179 982 179 1083 c 0,40,41
 179 1155 179 1155 203.5 1216.5 c 128,-1,42
 228 1278 228 1278 270.5 1320.5 c 128,-1,43
 313 1363 313 1363 370 1392.5 c 128,-1,44
 427 1422 427 1422 491.5 1436 c 128,-1,45
 556 1450 556 1450 624 1450 c 0,46,47
 674 1450 674 1450 720 1441.5 c 128,-1,48
 766 1433 766 1433 809 1413.5 c 128,-1,49
 852 1394 852 1394 883.5 1365 c 128,-1,50
 915 1336 915 1336 933.5 1291.5 c 128,-1,51
 952 1247 952 1247 952 1192 c 0,52,53
 952 1117 952 1117 934 1053.5 c 128,-1,54
 916 990 916 990 887.5 944.5 c 128,-1,55
 859 899 859 899 813.5 858.5 c 128,-1,56
 768 818 768 818 725.5 791 c 128,-1,57
 683 764 683 764 625 735 c 1,58,59
 660 706 660 706 674.5 694 c 128,-1,60
 689 682 689 682 721.5 651.5 c 128,-1,61
 754 621 754 621 770 601 c 128,-1,62
 786 581 786 581 810 547.5 c 128,-1,63
 834 514 834 514 845 483.5 c 128,-1,64
 856 453 856 453 865 413.5 c 128,-1,65
 874 374 874 374 874 332 c 0,66,67
 874 249 874 249 840.5 182 c 128,-1,68
 807 115 807 115 748.5 72 c 128,-1,69
 690 29 690 29 613 6 c 128,-1,70
 536 -17 536 -17 447 -16 c 0,71,72
 359 -16 359 -16 288.5 2 c 128,-1,73
 218 20 218 20 164 58 c 128,-1,74
 110 96 110 96 80.5 158.5 c 128,-1,75
 51 221 51 221 51 305 c 0,29,30
EndSplineSet
EndChar

StartChar: nine
Encoding: 57 57 28
Width: 1209
GlyphClass: 2
Flags: MW
LayerCount: 2
Fore
SplineSet
586 673 m 0,0,1
 724 673 724 673 783.5 748.5 c 128,-1,2
 843 824 843 824 843 965 c 0,3,4
 843 1019 843 1019 833 1065 c 128,-1,5
 823 1111 823 1111 801.5 1150 c 128,-1,6
 780 1189 780 1189 742 1211.5 c 128,-1,7
 704 1234 704 1234 653 1234 c 0,8,9
 574 1234 574 1234 512.5 1177.5 c 128,-1,10
 451 1121 451 1121 421 1040 c 128,-1,11
 391 959 391 959 391 874 c 0,12,13
 391 778 391 778 440.5 725.5 c 128,-1,14
 490 673 490 673 586 673 c 0,0,1
440 495 m 0,15,16
 295 495 295 495 195.5 605.5 c 128,-1,17
 96 716 96 716 96 893 c 0,18,19
 96 1046 96 1046 172 1167.5 c 128,-1,20
 248 1289 248 1289 376 1355 c 128,-1,21
 504 1421 504 1421 658 1421 c 0,22,23
 875 1421 875 1421 1001 1287 c 128,-1,24
 1127 1153 1127 1153 1127 916 c 0,25,26
 1127 766 1127 766 1082 627 c 128,-1,27
 1037 488 1037 488 964.5 380.5 c 128,-1,28
 892 273 892 273 792 178 c 128,-1,29
 692 83 692 83 590.5 15.5 c 128,-1,30
 489 -52 489 -52 377 -106 c 0,31,32
 323 -131 323 -131 288 -131 c 0,33,34
 241 -131 241 -131 211 -107.5 c 128,-1,35
 181 -84 181 -84 181 -46 c 0,36,37
 181 19 181 19 251 62 c 1,38,39
 577 254 577 254 753 604 c 1,40,41
 683 553 683 553 610 524 c 128,-1,42
 537 495 537 495 440 495 c 0,15,16
EndSplineSet
EndChar

StartChar: colon
Encoding: 58 58 29
Width: 704
GlyphClass: 2
Flags: MW
LayerCount: 2
Fore
SplineSet
503 353 m 0,0,1
 584 353 584 353 628 311.5 c 128,-1,2
 672 270 672 270 672 191 c 0,3,4
 672 104 672 104 622 52 c 128,-1,5
 572 0 572 0 484 0 c 0,6,7
 404 0 404 0 362 41 c 128,-1,8
 320 82 320 82 320 162 c 0,9,10
 320 250 320 250 368 301.5 c 128,-1,11
 416 353 416 353 503 353 c 0,0,1
563 1025 m 0,12,13
 644 1025 644 1025 688 983.5 c 128,-1,14
 732 942 732 942 732 863 c 0,15,16
 732 776 732 776 682 724 c 128,-1,17
 632 672 632 672 544 672 c 0,18,19
 464 672 464 672 422 713 c 128,-1,20
 380 754 380 754 380 834 c 0,21,22
 380 922 380 922 428 973.5 c 128,-1,23
 476 1025 476 1025 563 1025 c 0,12,13
EndSplineSet
EndChar

StartChar: semicolon
Encoding: 59 59 30
Width: 768
GlyphClass: 2
Flags: MW
LayerCount: 2
Fore
SplineSet
563 1025 m 0,0,1
 644 1025 644 1025 688 983.5 c 128,-1,2
 732 942 732 942 732 863 c 0,3,4
 732 776 732 776 682 724 c 128,-1,5
 632 672 632 672 544 672 c 0,6,7
 464 672 464 672 422 713 c 128,-1,8
 380 754 380 754 380 834 c 0,9,10
 380 922 380 922 428 973.5 c 128,-1,11
 476 1025 476 1025 563 1025 c 0,0,1
368 -191 m 0,12,13
 332 -191 332 -191 309.5 -168.5 c 128,-1,14
 287 -146 287 -146 287 -109 c 0,15,16
 287 -56 287 -56 302 2.5 c 128,-1,17
 317 61 317 61 342.5 132.5 c 128,-1,18
 368 204 368 204 377 237 c 0,19,20
 388 277 388 277 425 299 c 128,-1,21
 462 321 462 321 514 321 c 0,22,23
 577 321 577 321 624 290.5 c 128,-1,24
 671 260 671 260 671 205 c 0,25,26
 671 183 671 183 663.5 161 c 128,-1,27
 656 139 656 139 648.5 126.5 c 128,-1,28
 641 114 641 114 625 90.5 c 128,-1,29
 609 67 609 67 604 60 c 0,30,31
 593 43 593 43 581 26 c 128,-1,32
 569 9 569 9 558 -8 c 0,33,34
 550 -20 550 -20 532 -51.5 c 128,-1,35
 514 -83 514 -83 500.5 -102.5 c 128,-1,36
 487 -122 487 -122 467 -145 c 128,-1,37
 447 -168 447 -168 422 -179.5 c 128,-1,38
 397 -191 397 -191 368 -191 c 0,12,13
EndSplineSet
EndChar

StartChar: less
Encoding: 60 60 31
Width: 1184
GlyphClass: 2
Flags: MW
LayerCount: 2
Fore
SplineSet
1039 205 m 0,0,1
 1039 168 1039 168 1009.5 147 c 128,-1,2
 980 126 980 126 936 126 c 0,3,4
 863 126 863 126 786.5 151.5 c 128,-1,5
 710 177 710 177 623.5 218.5 c 128,-1,6
 537 260 537 260 493 275 c 0,7,8
 472 282 472 282 434 294 c 128,-1,9
 396 306 396 306 373 313.5 c 128,-1,10
 350 321 350 321 314.5 334.5 c 128,-1,11
 279 348 279 348 256 358.5 c 128,-1,12
 233 369 233 369 203.5 385.5 c 128,-1,13
 174 402 174 402 155 418.5 c 128,-1,14
 136 435 136 435 116 457.5 c 128,-1,15
 96 480 96 480 84.5 504.5 c 128,-1,16
 73 529 73 529 65.5 560 c 128,-1,17
 58 591 58 591 58 626 c 0,18,19
 58 675 58 675 80 712.5 c 128,-1,20
 102 750 102 750 143.5 775.5 c 128,-1,21
 185 801 185 801 222.5 816.5 c 128,-1,22
 260 832 260 832 314.5 850.5 c 128,-1,23
 369 869 369 869 394 880 c 0,24,25
 407 886 407 886 471.5 914.5 c 128,-1,26
 536 943 536 943 558 952.5 c 128,-1,27
 580 962 580 962 637.5 986.5 c 128,-1,28
 695 1011 695 1011 727.5 1024 c 128,-1,29
 760 1037 760 1037 808 1056 c 128,-1,30
 856 1075 856 1075 898 1090 c 128,-1,31
 940 1105 940 1105 980 1118 c 0,32,33
 1001 1125 1001 1125 1024 1125 c 0,34,35
 1080 1125 1080 1125 1107 1076.5 c 128,-1,36
 1134 1028 1134 1028 1134 962 c 0,37,38
 1134 895 1134 895 1056 872 c 1,39,-1
 254 613 l 1,40,-1
 909 373 l 2,41,42
 959 355 959 355 999 308.5 c 128,-1,43
 1039 262 1039 262 1039 205 c 0,0,1
EndSplineSet
EndChar

StartChar: equal
Encoding: 61 61 32
Width: 1707
GlyphClass: 2
Flags: MW
LayerCount: 2
Fore
SplineSet
483 382 m 2,0,1
 425 382 425 382 387 409.5 c 128,-1,2
 349 437 349 437 349 490 c 0,3,4
 349 529 349 529 369.5 554 c 128,-1,5
 390 579 390 579 430 589.5 c 128,-1,6
 470 600 470 600 504 603 c 128,-1,7
 538 606 538 606 591 606 c 2,8,-1
 852 606 l 2,9,10
 908 606 908 606 1029 606.5 c 128,-1,11
 1150 607 1150 607 1208 607 c 2,12,-1
 1539 607 l 2,13,14
 1621 607 1621 607 1621 545 c 0,15,16
 1621 498 1621 498 1602.5 465 c 128,-1,17
 1584 432 1584 432 1548.5 414.5 c 128,-1,18
 1513 397 1513 397 1471.5 389.5 c 128,-1,19
 1430 382 1430 382 1375 382 c 2,20,-1
 483 382 l 2,0,1
EndSplineSet
EndChar

StartChar: greater
Encoding: 62 62 33
Width: 1184
GlyphClass: 2
Flags: MW
LayerCount: 2
Fore
SplineSet
138 922 m 0,0,1
 138 988 138 988 165 1036.5 c 128,-1,2
 192 1085 192 1085 248 1085 c 0,3,4
 302 1085 302 1085 363 1065 c 128,-1,5
 424 1045 424 1045 507.5 1005 c 128,-1,6
 591 965 591 965 610 957 c 0,7,8
 815 873 815 873 836 863 c 0,9,10
 859 852 859 852 897.5 838 c 128,-1,11
 936 824 936 824 965 813.5 c 128,-1,12
 994 803 994 803 1027.5 785.5 c 128,-1,13
 1061 768 1061 768 1083 748.5 c 128,-1,14
 1105 729 1105 729 1119.5 697.5 c 128,-1,15
 1134 666 1134 666 1134 626 c 0,16,17
 1134 557 1134 557 1107 501.5 c 128,-1,18
 1080 446 1080 446 1041 411 c 128,-1,19
 1002 376 1002 376 940 344 c 128,-1,20
 878 312 878 312 826 294 c 128,-1,21
 774 276 774 276 702 251.5 c 128,-1,22
 630 227 630 227 590 210 c 0,23,24
 573 203 573 203 518.5 178 c 128,-1,25
 464 153 464 153 434.5 141.5 c 128,-1,26
 405 130 405 130 356.5 118 c 128,-1,27
 308 106 308 106 266 106 c 0,28,29
 222 106 222 106 192.5 126.5 c 128,-1,30
 163 147 163 147 163 185 c 0,31,32
 163 242 163 242 188.5 290 c 128,-1,33
 214 338 214 338 253 353 c 2,34,-1
 938 613 l 1,35,-1
 216 832 l 2,36,37
 178 844 178 844 158 864 c 128,-1,38
 138 884 138 884 138 922 c 0,0,1
EndSplineSet
EndChar

StartChar: question
Encoding: 63 63 34
Width: 1292
GlyphClass: 2
Flags: MW
LayerCount: 2
Fore
SplineSet
577 353 m 0,0,1
 658 353 658 353 702 311.5 c 128,-1,2
 746 270 746 270 746 191 c 0,3,4
 746 104 746 104 696 52 c 128,-1,5
 646 0 646 0 558 0 c 0,6,7
 478 0 478 0 436 41 c 128,-1,8
 394 82 394 82 394 162 c 0,9,10
 394 250 394 250 442 301.5 c 128,-1,11
 490 353 490 353 577 353 c 0,0,1
783 1602 m 0,12,13
 944 1602 944 1602 1052.5 1510.5 c 128,-1,14
 1161 1419 1161 1419 1161 1264 c 0,15,16
 1161 1184 1161 1184 1144 1116.5 c 128,-1,17
 1127 1049 1127 1049 1101.5 1003.5 c 128,-1,18
 1076 958 1076 958 1034.5 911 c 128,-1,19
 993 864 993 864 957.5 834.5 c 128,-1,20
 922 805 922 805 870 761.5 c 128,-1,21
 818 718 818 718 785 686 c 0,22,23
 731 634 731 634 711 584 c 0,24,25
 672 486 672 486 608 486 c 0,26,27
 570 486 570 486 545 502 c 128,-1,28
 520 518 520 518 520 550 c 0,29,30
 520 635 520 635 547.5 705 c 128,-1,31
 575 775 575 775 620 825 c 128,-1,32
 665 875 665 875 712 917 c 128,-1,33
 759 959 759 959 809.5 1011.5 c 128,-1,34
 860 1064 860 1064 888 1116 c 0,35,36
 917 1170 917 1170 917 1245 c 0,37,38
 917 1317 917 1317 870 1358 c 128,-1,39
 823 1399 823 1399 747 1399 c 0,40,41
 714 1399 714 1399 687.5 1382.5 c 128,-1,42
 661 1366 661 1366 643.5 1343 c 128,-1,43
 626 1320 626 1320 609 1296.5 c 128,-1,44
 592 1273 592 1273 567 1256.5 c 128,-1,45
 542 1240 542 1240 511 1240 c 0,46,47
 466 1240 466 1240 437.5 1279.5 c 128,-1,48
 409 1319 409 1319 409 1370 c 0,49,50
 409 1436 409 1436 474 1491.5 c 128,-1,51
 539 1547 539 1547 624 1574.5 c 128,-1,52
 709 1602 709 1602 783 1602 c 0,12,13
EndSplineSet
EndChar

StartChar: at
Encoding: 64 64 35
Width: 2241
GlyphClass: 2
Flags: MW
LayerCount: 2
Fore
SplineSet
896 -384 m 0,0,1
 729 -384 729 -384 589.5 -349 c 128,-1,2
 450 -314 450 -314 341.5 -243.5 c 128,-1,3
 233 -173 233 -173 172.5 -56 c 128,-1,4
 112 61 112 61 112 215 c 0,5,6
 112 393 112 393 156 558 c 128,-1,7
 200 723 200 723 277.5 858 c 128,-1,8
 355 993 355 993 446 1100.5 c 128,-1,9
 537 1208 537 1208 646 1300 c 0,10,11
 966 1568 966 1568 1344 1568 c 0,12,13
 1483 1568 1483 1568 1603.5 1540 c 128,-1,14
 1724 1512 1724 1512 1822.5 1455 c 128,-1,15
 1921 1398 1921 1398 1991 1316 c 128,-1,16
 2061 1234 2061 1234 2099.5 1120 c 128,-1,17
 2138 1006 2138 1006 2138 870 c 128,-1,18
 2138 734 2138 734 2098.5 607 c 128,-1,19
 2059 480 2059 480 1991 380.5 c 128,-1,20
 1923 281 1923 281 1834 205.5 c 128,-1,21
 1745 130 1745 130 1644 88 c 0,22,23
 1561 54 1561 54 1475 54 c 0,24,25
 1350 54 1350 54 1350 235 c 0,26,27
 1350 276 1350 276 1363 345 c 1,28,29
 1333 284 1333 284 1296.5 232.5 c 128,-1,30
 1260 181 1260 181 1209.5 133.5 c 128,-1,31
 1159 86 1159 86 1092.5 59 c 128,-1,32
 1026 32 1026 32 950 32 c 0,33,34
 798 32 798 32 709 126.5 c 128,-1,35
 620 221 620 221 620 378 c 0,36,37
 620 522 620 522 669.5 658 c 128,-1,38
 719 794 719 794 801.5 898.5 c 128,-1,39
 884 1003 884 1003 987 1081.5 c 128,-1,40
 1090 1160 1090 1160 1202 1202 c 0,41,42
 1307 1241 1307 1241 1421 1241 c 0,43,44
 1490 1241 1490 1241 1490 1207 c 0,45,46
 1490 1204 1490 1204 1489.5 1201 c 128,-1,47
 1489 1198 1489 1198 1489 1196 c 2,48,-1
 1489 1192 l 1,49,50
 1513 1182 1513 1182 1543 1176 c 128,-1,51
 1573 1170 1573 1170 1594.5 1168 c 128,-1,52
 1616 1166 1616 1166 1638.5 1158.5 c 128,-1,53
 1661 1151 1661 1151 1674.5 1137.5 c 128,-1,54
 1688 1124 1688 1124 1697 1094 c 128,-1,55
 1706 1064 1706 1064 1706 1018 c 0,56,57
 1706 918 1706 918 1680 814.5 c 128,-1,58
 1654 711 1654 711 1615.5 599 c 128,-1,59
 1577 487 1577 487 1562 417 c 1,60,61
 1548 345 1548 345 1548 340 c 0,62,63
 1548 289 1548 289 1580 289 c 0,64,65
 1639 289 1639 289 1690.5 326 c 128,-1,66
 1742 363 1742 363 1777 421.5 c 128,-1,67
 1812 480 1812 480 1838 552.5 c 128,-1,68
 1864 625 1864 625 1876 697 c 128,-1,69
 1888 769 1888 769 1888 832 c 0,70,71
 1888 1099 1888 1099 1748.5 1237.5 c 128,-1,72
 1609 1376 1609 1376 1344 1376 c 0,73,74
 1219 1376 1219 1376 1106 1338.5 c 128,-1,75
 993 1301 993 1301 907.5 1240.5 c 128,-1,76
 822 1180 822 1180 745.5 1095 c 128,-1,77
 669 1010 669 1010 616.5 926 c 128,-1,78
 564 842 564 842 519 746 c 0,79,80
 400 491 400 491 400 261 c 0,81,82
 400 170 400 170 431 101 c 128,-1,83
 462 32 462 32 514.5 -11 c 128,-1,84
 567 -54 567 -54 644.5 -80.5 c 128,-1,85
 722 -107 722 -107 805.5 -117.5 c 128,-1,86
 889 -128 889 -128 992 -128 c 0,87,88
 1439 -128 1439 -128 1733 7 c 0,89,90
 1754 17 1754 17 1775 17 c 0,91,92
 1807 17 1807 17 1823 -9.5 c 128,-1,93
 1839 -36 1839 -36 1839 -75 c 0,94,95
 1839 -102 1839 -102 1826 -126 c 128,-1,96
 1813 -150 1813 -150 1796.5 -165.5 c 128,-1,97
 1780 -181 1780 -181 1749.5 -196.5 c 128,-1,98
 1719 -212 1719 -212 1699.5 -219.5 c 128,-1,99
 1680 -227 1680 -227 1644.5 -239.5 c 128,-1,100
 1609 -252 1609 -252 1598 -256 c 0,101,102
 1252 -384 1252 -384 896 -384 c 0,0,1
897 383 m 0,103,104
 897 227 897 227 1027 227 c 0,105,106
 1091 227 1091 227 1147 260.5 c 128,-1,107
 1203 294 1203 294 1243 349.5 c 128,-1,108
 1283 405 1283 405 1310.5 461.5 c 128,-1,109
 1338 518 1338 518 1355 578 c 2,110,-1
 1486 1029 l 1,111,112
 1434 1042 1434 1042 1389 1042 c 0,113,114
 1314 1042 1314 1042 1245 1006.5 c 128,-1,115
 1176 971 1176 971 1125 916 c 128,-1,116
 1074 861 1074 861 1031 788.5 c 128,-1,117
 988 716 988 716 960.5 647.5 c 128,-1,118
 933 579 933 579 916 512 c 0,119,120
 897 438 897 438 897 383 c 0,103,104
EndSplineSet
EndChar

StartChar: A
Encoding: 65 65 36
Width: 1652
GlyphClass: 2
Flags: MW
LayerCount: 2
Fore
SplineSet
428 456 m 0,0,1
 428 160 428 160 660 160 c 0,2,3
 747 160 747 160 826 198.5 c 128,-1,4
 905 237 905 237 963 296.5 c 128,-1,5
 1021 356 1021 356 1070.5 436 c 128,-1,6
 1120 516 1120 516 1151 591.5 c 128,-1,7
 1182 667 1182 667 1203 745 c 2,8,-1
 1411 1517 l 1,9,10
 1344 1536 1344 1536 1266 1536 c 0,11,12
 1186 1536 1186 1536 1109 1510 c 128,-1,13
 1032 1484 1032 1484 975 1446.5 c 128,-1,14
 918 1409 918 1409 859.5 1351 c 128,-1,15
 801 1293 801 1293 764 1246.5 c 128,-1,16
 727 1200 727 1200 684 1138 c 0,17,18
 631 1063 631 1063 591 994.5 c 128,-1,19
 551 926 551 926 511 838 c 128,-1,20
 471 750 471 750 449.5 652.5 c 128,-1,21
 428 555 428 555 428 456 c 0,0,1
1423 344 m 2,22,-1
 1423 314 l 2,23,24
 1423 291 1423 291 1425 276.5 c 128,-1,25
 1427 262 1427 262 1435.5 250 c 128,-1,26
 1444 238 1444 238 1459 238 c 0,27,28
 1521 238 1521 238 1587 268.5 c 128,-1,29
 1653 299 1653 299 1732 353 c 128,-1,30
 1811 407 1811 407 1833 419 c 1,31,-1
 1884 224 l 1,32,33
 1839 177 1839 177 1788 135.5 c 128,-1,34
 1737 94 1737 94 1672.5 54.5 c 128,-1,35
 1608 15 1608 15 1532 -8.5 c 128,-1,36
 1456 -32 1456 -32 1380 -32 c 0,37,38
 1196 -32 1196 -32 1196 236 c 0,39,40
 1196 291 1196 291 1214 399 c 1,41,42
 1179 328 1179 328 1139 266 c 128,-1,43
 1099 204 1099 204 1042 141.5 c 128,-1,44
 985 79 985 79 921.5 35 c 128,-1,45
 858 -9 858 -9 775.5 -36.5 c 128,-1,46
 693 -64 693 -64 603 -64 c 0,47,48
 386 -64 386 -64 263 77.5 c 128,-1,49
 140 219 140 219 140 450 c 0,50,51
 140 611 140 611 182.5 764.5 c 128,-1,52
 225 918 225 918 299.5 1044.5 c 128,-1,53
 374 1171 374 1171 458 1271.5 c 128,-1,54
 542 1372 542 1372 642 1460 c 0,55,56
 946 1728 946 1728 1301 1728 c 0,57,58
 1403 1728 1403 1728 1403 1675 c 0,59,60
 1403 1672 1403 1672 1402.5 1667 c 128,-1,61
 1402 1662 1402 1662 1402 1660 c 2,62,-1
 1402 1655 l 1,63,64
 1431 1638 1431 1638 1472.5 1630 c 128,-1,65
 1514 1622 1514 1622 1542 1618.5 c 128,-1,66
 1570 1615 1570 1615 1596.5 1591.5 c 128,-1,67
 1623 1568 1623 1568 1634 1519 c 0,68,69
 1644 1476 1644 1476 1644 1397 c 0,70,71
 1644 1281 1644 1281 1620 1151.5 c 128,-1,72
 1596 1022 1596 1022 1568 932 c 128,-1,73
 1540 842 1540 842 1495 708.5 c 128,-1,74
 1450 575 1450 575 1430 505 c 1,75,76
 1423 405 1423 405 1423 344 c 2,22,-1
EndSplineSet
EndChar

StartChar: B
Encoding: 66 66 37
Width: 1522
GlyphClass: 2
Flags: MW
LayerCount: 2
Fore
SplineSet
919 967 m 0,0,1
 1029 967 1029 967 1121.5 997 c 128,-1,2
 1214 1027 1214 1027 1276 1096 c 128,-1,3
 1338 1165 1338 1165 1338 1262 c 0,4,5
 1338 1322 1338 1322 1295.5 1367.5 c 128,-1,6
 1253 1413 1253 1413 1191 1437.5 c 128,-1,7
 1129 1462 1129 1462 1043.5 1477.5 c 128,-1,8
 958 1493 958 1493 888 1497.5 c 128,-1,9
 818 1502 818 1502 744 1502 c 0,10,11
 265 1502 265 1502 150 1330 c 0,12,13
 137 1310 137 1310 108.5 1260 c 128,-1,14
 80 1210 80 1210 60.5 1179 c 128,-1,15
 41 1148 41 1148 10.5 1121 c 128,-1,16
 -20 1094 -20 1094 -49 1094 c 0,17,18
 -93 1094 -93 1094 -93 1195 c 0,19,20
 -93 1292 -93 1292 -61 1372.5 c 128,-1,21
 -29 1453 -29 1453 30.5 1511.5 c 128,-1,22
 90 1570 90 1570 170 1614 c 128,-1,23
 250 1658 250 1658 350 1684.5 c 128,-1,24
 450 1711 450 1711 559 1723.5 c 128,-1,25
 668 1736 668 1736 789 1736 c 0,26,27
 887 1736 887 1736 991.5 1721 c 128,-1,28
 1096 1706 1096 1706 1205.5 1670.5 c 128,-1,29
 1315 1635 1315 1635 1400 1583.5 c 128,-1,30
 1485 1532 1485 1532 1539.5 1450.5 c 128,-1,31
 1594 1369 1594 1369 1594 1270 c 0,32,33
 1594 1163 1594 1163 1545.5 1079.5 c 128,-1,34
 1497 996 1497 996 1413.5 946 c 128,-1,35
 1330 896 1330 896 1227 869.5 c 128,-1,36
 1124 843 1124 843 1005 841 c 1,37,38
 1186 841 1186 841 1294 736 c 128,-1,39
 1402 631 1402 631 1402 454 c 0,40,41
 1402 288 1402 288 1319.5 163.5 c 128,-1,42
 1237 39 1237 39 1098 -24 c 128,-1,43
 959 -87 959 -87 786 -87 c 0,44,45
 542 -87 542 -87 225 22 c 0,46,47
 205 29 205 29 197.5 32.5 c 128,-1,48
 190 36 190 36 177 44 c 128,-1,49
 164 52 164 52 159 64 c 128,-1,50
 154 76 154 76 154 93 c 0,51,52
 154 295 154 295 164.5 462 c 128,-1,53
 175 629 175 629 201.5 797.5 c 128,-1,54
 228 966 228 966 278.5 1108.5 c 128,-1,55
 329 1251 329 1251 402 1359 c 1,56,57
 472 1408 472 1408 531 1408 c 0,58,59
 604 1408 604 1408 653 1326 c 1,60,61
 589 1240 589 1240 545.5 1120.5 c 128,-1,62
 502 1001 502 1001 480.5 856.5 c 128,-1,63
 459 712 459 712 450.5 573.5 c 128,-1,64
 442 435 442 435 442 266 c 0,65,66
 442 185 442 185 463 169 c 1,67,68
 609 121 609 121 734 121 c 0,69,70
 932 121 932 121 1055 214.5 c 128,-1,71
 1178 308 1178 308 1178 489 c 0,72,73
 1178 555 1178 555 1150.5 599.5 c 128,-1,74
 1123 644 1123 644 1080.5 664 c 128,-1,75
 1038 684 1038 684 982.5 700.5 c 128,-1,76
 927 717 927 717 875 727 c 128,-1,77
 823 737 823 737 772.5 760.5 c 128,-1,78
 722 784 722 784 693 820 c 0,79,80
 671 846 671 846 671 892 c 0,81,82
 671 941 671 941 691 957.5 c 128,-1,83
 711 974 711 974 764 974 c 0,84,85
 793 974 793 974 842 970.5 c 128,-1,86
 891 967 891 967 919 967 c 0,0,1
EndSplineSet
EndChar

StartChar: C
Encoding: 67 67 38
Width: 1480
GlyphClass: 2
Flags: MW
LayerCount: 2
Fore
SplineSet
384 502 m 0,0,1
 384 293 384 293 475.5 178.5 c 128,-1,2
 567 64 567 64 750 64 c 0,3,4
 858 64 858 64 963 87.5 c 128,-1,5
 1068 111 1068 111 1147.5 144 c 128,-1,6
 1227 177 1227 177 1316.5 231 c 128,-1,7
 1406 285 1406 285 1463 327 c 128,-1,8
 1520 369 1520 369 1601.5 431 c 128,-1,9
 1683 493 1683 493 1726 523 c 1,10,-1
 1766 338 l 1,11,12
 1690 261 1690 261 1608.5 192 c 128,-1,13
 1527 123 1527 123 1417.5 51 c 128,-1,14
 1308 -21 1308 -21 1196.5 -73 c 128,-1,15
 1085 -125 1085 -125 951 -158.5 c 128,-1,16
 817 -192 817 -192 685 -192 c 0,17,18
 505 -192 505 -192 369.5 -100.5 c 128,-1,19
 234 -9 234 -9 165 143 c 128,-1,20
 96 295 96 295 96 482 c 0,21,22
 96 635 96 635 130.5 792.5 c 128,-1,23
 165 950 165 950 227 1095 c 128,-1,24
 289 1240 289 1240 382 1367.5 c 128,-1,25
 475 1495 475 1495 586 1589 c 128,-1,26
 697 1683 697 1683 836 1737.5 c 128,-1,27
 975 1792 975 1792 1123 1792 c 0,28,29
 1308 1792 1308 1792 1422 1673 c 128,-1,30
 1536 1554 1536 1554 1536 1363 c 0,31,32
 1536 1247 1536 1247 1489 1133 c 128,-1,33
 1442 1019 1442 1019 1364.5 931.5 c 128,-1,34
 1287 844 1287 844 1180 790 c 128,-1,35
 1073 736 1073 736 961 736 c 0,36,37
 860 736 860 736 817.5 763 c 128,-1,38
 775 790 775 790 775 870 c 0,39,40
 775 925 775 925 817 942.5 c 128,-1,41
 859 960 859 960 945 960 c 0,42,43
 1098 960 1098 960 1205 1073 c 128,-1,44
 1312 1186 1312 1186 1312 1344 c 0,45,46
 1312 1451 1312 1451 1254 1509.5 c 128,-1,47
 1196 1568 1196 1568 1088 1568 c 0,48,49
 983 1568 983 1568 884.5 1517.5 c 128,-1,50
 786 1467 786 1467 710.5 1383 c 128,-1,51
 635 1299 635 1299 572.5 1189.5 c 128,-1,52
 510 1080 510 1080 469 961 c 128,-1,53
 428 842 428 842 406 724 c 128,-1,54
 384 606 384 606 384 502 c 0,0,1
EndSplineSet
EndChar

StartChar: D
Encoding: 68 68 39
Width: 1430
GlyphClass: 2
Flags: MW
LayerCount: 2
Fore
SplineSet
-41 1134 m 0,0,1
 -78 1134 -78 1134 -97 1163 c 128,-1,2
 -116 1192 -116 1192 -116 1229 c 0,3,4
 -116 1289 -116 1289 -81.5 1367 c 128,-1,5
 -47 1445 -47 1445 -26 1470 c 0,6,7
 87 1604 87 1604 233 1670 c 128,-1,8
 379 1736 379 1736 579 1736 c 0,9,10
 774 1736 774 1736 928.5 1695 c 128,-1,11
 1083 1654 1083 1654 1198.5 1570 c 128,-1,12
 1314 1486 1314 1486 1376 1349 c 128,-1,13
 1438 1212 1438 1212 1438 1028 c 0,14,15
 1438 841 1438 841 1390.5 671.5 c 128,-1,16
 1343 502 1343 502 1258.5 369 c 128,-1,17
 1174 236 1174 236 1057 137 c 128,-1,18
 940 38 940 38 801 -14 c 0,19,20
 678 -60 678 -60 542 -60 c 0,21,22
 374 -60 374 -60 192 24 c 0,23,24
 169 35 169 35 161.5 48.5 c 128,-1,25
 154 62 154 62 154 93 c 0,26,27
 154 295 154 295 164.5 462 c 128,-1,28
 175 629 175 629 201.5 797.5 c 128,-1,29
 228 966 228 966 278.5 1108.5 c 128,-1,30
 329 1251 329 1251 402 1359 c 1,31,32
 472 1408 472 1408 531 1408 c 0,33,34
 604 1408 604 1408 653 1326 c 1,35,36
 573 1219 573 1219 517 1030.5 c 128,-1,37
 461 842 461 842 437.5 646.5 c 128,-1,38
 414 451 414 451 414 258 c 0,39,40
 414 184 414 184 431 156 c 128,-1,41
 448 128 448 128 510 128 c 0,42,43
 621 128 621 128 719 170 c 128,-1,44
 817 212 817 212 888 279.5 c 128,-1,45
 959 347 959 347 1017.5 438 c 128,-1,46
 1076 529 1076 529 1112.5 622 c 128,-1,47
 1149 715 1149 715 1171 814 c 0,48,49
 1194 918 1194 918 1194 1009 c 0,50,51
 1194 1248 1194 1248 1029.5 1377.5 c 128,-1,52
 865 1507 865 1507 590 1507 c 0,53,54
 473 1507 473 1507 357 1466.5 c 128,-1,55
 241 1426 241 1426 150 1330 c 0,56,57
 135 1314 135 1314 95.5 1258.5 c 128,-1,58
 56 1203 56 1203 22 1168.5 c 128,-1,59
 -12 1134 -12 1134 -41 1134 c 0,0,1
EndSplineSet
EndChar

StartChar: E
Encoding: 69 69 40
Width: 1475
GlyphClass: 2
Flags: MW
LayerCount: 2
Fore
SplineSet
352 390 m 0,0,1
 352 114 352 114 645 114 c 0,2,3
 885 114 885 114 1091.5 218.5 c 128,-1,4
 1298 323 1298 323 1458 517 c 1,5,6
 1514 579 1514 579 1538 502 c 0,7,8
 1558 437 1558 437 1544 346 c 0,9,10
 1538 303 1538 303 1527 290 c 0,11,12
 1372 117 1372 117 1142 10.5 c 128,-1,13
 912 -96 912 -96 637 -96 c 0,14,15
 514 -96 514 -96 411.5 -68.5 c 128,-1,16
 309 -41 309 -41 230.5 13.5 c 128,-1,17
 152 68 152 68 108 157.5 c 128,-1,18
 64 247 64 247 64 364 c 0,19,20
 64 468 64 468 95.5 553 c 128,-1,21
 127 638 127 638 183.5 698.5 c 128,-1,22
 240 759 240 759 319.5 800.5 c 128,-1,23
 399 842 399 842 493 863 c 128,-1,24
 587 884 587 884 696 887 c 1,25,26
 498 887 498 887 379 990 c 128,-1,27
 260 1093 260 1093 260 1280 c 0,28,29
 260 1373 260 1373 297.5 1449.5 c 128,-1,30
 335 1526 335 1526 397.5 1576.5 c 128,-1,31
 460 1627 460 1627 545 1661.5 c 128,-1,32
 630 1696 630 1696 721.5 1711 c 128,-1,33
 813 1726 813 1726 912 1726 c 0,34,35
 989 1726 989 1726 1066 1715.5 c 128,-1,36
 1143 1705 1143 1705 1217.5 1684 c 128,-1,37
 1292 1663 1292 1663 1353.5 1628.5 c 128,-1,38
 1415 1594 1415 1594 1460 1550.5 c 128,-1,39
 1505 1507 1505 1507 1525 1447 c 128,-1,40
 1545 1387 1545 1387 1533 1318 c 0,41,42
 1521 1248 1521 1248 1452.5 1186 c 128,-1,43
 1384 1124 1384 1124 1316 1124 c 0,44,45
 1295 1124 1295 1124 1295 1161 c 1,46,-1
 1341 1376 l 1,47,48
 1269 1435 1269 1435 1134 1468 c 128,-1,49
 999 1501 999 1501 859 1501 c 0,50,51
 788 1501 788 1501 730 1489 c 128,-1,52
 672 1477 672 1477 623.5 1451 c 128,-1,53
 575 1425 575 1425 548.5 1378 c 128,-1,54
 522 1331 522 1331 522 1266 c 0,55,56
 522 1213 522 1213 540.5 1174 c 128,-1,57
 559 1135 559 1135 590.5 1111.5 c 128,-1,58
 622 1088 622 1088 661 1071.5 c 128,-1,59
 700 1055 700 1055 746 1043.5 c 128,-1,60
 792 1032 792 1032 833.5 1020.5 c 128,-1,61
 875 1009 875 1009 916.5 991.5 c 128,-1,62
 958 974 958 974 985 950 c 0,63,64
 1009 929 1009 929 1016.5 897 c 128,-1,65
 1024 865 1024 865 1024 811 c 0,66,67
 1024 752 1024 752 1001.5 728 c 128,-1,68
 979 704 979 704 921 704 c 0,69,70
 902 704 902 704 852.5 707 c 128,-1,71
 803 710 803 710 783 710 c 0,72,73
 670 710 670 710 574.5 676.5 c 128,-1,74
 479 643 479 643 415.5 568.5 c 128,-1,75
 352 494 352 494 352 390 c 0,0,1
EndSplineSet
EndChar

StartChar: F
Encoding: 70 70 41
Width: 1376
GlyphClass: 2
Flags: MW
LayerCount: 2
Fore
SplineSet
1192 1818 m 0,0,1
 1210 1818 1210 1818 1262.5 1819 c 128,-1,2
 1315 1820 1315 1820 1357.5 1820 c 128,-1,3
 1400 1820 1400 1820 1463.5 1819 c 128,-1,4
 1527 1818 1527 1818 1577.5 1814.5 c 128,-1,5
 1628 1811 1628 1811 1686.5 1805.5 c 128,-1,6
 1745 1800 1745 1800 1788 1789 c 128,-1,7
 1831 1778 1831 1778 1868 1763.5 c 128,-1,8
 1905 1749 1905 1749 1924.5 1727 c 128,-1,9
 1944 1705 1944 1705 1944 1678 c 0,10,11
 1944 1628 1944 1628 1919 1593 c 128,-1,12
 1894 1558 1894 1558 1849 1558 c 0,13,14
 1777 1558 1777 1558 1609.5 1581 c 128,-1,15
 1442 1604 1442 1604 1350 1604 c 0,16,17
 1266 1604 1266 1604 1120 1584 c 1,18,19
 1093 1355 1093 1355 1023 960 c 1,20,-1
 1344 960 l 2,21,22
 1383 960 1383 960 1395.5 935.5 c 128,-1,23
 1408 911 1408 911 1408 864 c 0,24,25
 1408 825 1408 825 1390.5 796.5 c 128,-1,26
 1373 768 1373 768 1344 768 c 0,27,28
 1287 768 1287 768 1164 758.5 c 128,-1,29
 1041 749 1041 749 983 749 c 1,30,31
 921 414 921 414 893 305 c 0,32,33
 825 47 825 47 713 -67 c 0,34,35
 584 -198 584 -198 352 -198 c 0,36,37
 302 -198 302 -198 251.5 -190.5 c 128,-1,38
 201 -183 201 -183 151 -167 c 128,-1,39
 101 -151 101 -151 69.5 -119.5 c 128,-1,40
 38 -88 38 -88 38 -47 c 0,41,42
 38 6 38 6 69.5 51.5 c 128,-1,43
 101 97 101 97 148 97 c 0,44,45
 204 97 204 97 299.5 61.5 c 128,-1,46
 395 26 395 26 456 26 c 0,47,48
 484 26 484 26 510 44 c 128,-1,49
 536 62 536 62 557 97 c 128,-1,50
 578 132 578 132 596.5 172.5 c 128,-1,51
 615 213 615 213 630.5 269 c 128,-1,52
 646 325 646 325 657.5 372.5 c 128,-1,53
 669 420 669 420 680 482 c 128,-1,54
 691 544 691 544 698 584.5 c 128,-1,55
 705 625 705 625 713 677.5 c 128,-1,56
 721 730 721 730 724 749 c 1,57,-1
 601 749 l 2,58,59
 567 749 567 749 536 756.5 c 128,-1,60
 505 764 505 764 480.5 783.5 c 128,-1,61
 456 803 456 803 456 832 c 0,62,63
 456 850 456 850 469.5 865 c 128,-1,64
 483 880 483 880 507.5 890.5 c 128,-1,65
 532 901 532 901 558 909 c 128,-1,66
 584 917 584 917 619 922.5 c 128,-1,67
 654 928 654 928 678.5 931 c 128,-1,68
 703 934 703 934 733 937.5 c 128,-1,69
 763 941 763 941 771 942 c 1,70,71
 799 1069 799 1069 835 1290 c 128,-1,72
 871 1511 871 1511 883 1574 c 1,73,74
 613 1545 613 1545 498.5 1458.5 c 128,-1,75
 384 1372 384 1372 384 1212 c 0,76,77
 384 1136 384 1136 274 1136 c 0,78,79
 234 1136 234 1136 211.5 1137.5 c 128,-1,80
 189 1139 189 1139 163 1146.5 c 128,-1,81
 137 1154 137 1154 125 1171 c 128,-1,82
 113 1188 113 1188 113 1216 c 0,83,84
 113 1322 113 1322 146.5 1409 c 128,-1,85
 180 1496 180 1496 237 1557.5 c 128,-1,86
 294 1619 294 1619 378 1666 c 128,-1,87
 462 1713 462 1713 553.5 1741.5 c 128,-1,88
 645 1770 645 1770 756.5 1787.5 c 128,-1,89
 868 1805 868 1805 971.5 1811.5 c 128,-1,90
 1075 1818 1075 1818 1192 1818 c 0,0,1
EndSplineSet
EndChar

StartChar: G
Encoding: 71 71 42
Width: 1536
GlyphClass: 2
Flags: MW
LayerCount: 2
Fore
SplineSet
1216 644 m 0,0,1
 1386 644 1386 644 1461 574.5 c 128,-1,2
 1536 505 1536 505 1536 341 c 0,3,4
 1536 164 1536 164 1512.5 7.5 c 128,-1,5
 1489 -149 1489 -149 1439.5 -287 c 128,-1,6
 1390 -425 1390 -425 1306.5 -529 c 128,-1,7
 1223 -633 1223 -633 1110 -688 c 1,8,9
 1014 -736 1014 -736 889 -736 c 0,10,11
 839 -736 839 -736 788.5 -728.5 c 128,-1,12
 738 -721 738 -721 688 -705 c 128,-1,13
 638 -689 638 -689 606.5 -657.5 c 128,-1,14
 575 -626 575 -626 575 -585 c 0,15,16
 575 -532 575 -532 606.5 -486.5 c 128,-1,17
 638 -441 638 -441 685 -441 c 0,18,19
 736 -441 736 -441 819 -476.5 c 128,-1,20
 902 -512 902 -512 960 -512 c 0,21,22
 997 -512 997 -512 1032 -489 c 128,-1,23
 1067 -466 1067 -466 1093.5 -433.5 c 128,-1,24
 1120 -401 1120 -401 1146 -348 c 128,-1,25
 1172 -295 1172 -295 1188.5 -252.5 c 128,-1,26
 1205 -210 1205 -210 1223.5 -147.5 c 128,-1,27
 1242 -85 1242 -85 1249.5 -54.5 c 128,-1,28
 1257 -24 1257 -24 1269 25 c 1,29,30
 1152 -82 1152 -82 1017 -137 c 128,-1,31
 882 -192 882 -192 685 -192 c 0,32,33
 505 -192 505 -192 369.5 -100.5 c 128,-1,34
 234 -9 234 -9 165 143 c 128,-1,35
 96 295 96 295 96 482 c 0,36,37
 96 668 96 668 139 836 c 128,-1,38
 182 1004 182 1004 259.5 1138 c 128,-1,39
 337 1272 337 1272 435.5 1377.5 c 128,-1,40
 534 1483 534 1483 653 1564 c 0,41,42
 900 1730 900 1730 1160 1730 c 0,43,44
 1344 1730 1344 1730 1439.5 1620.5 c 128,-1,45
 1535 1511 1535 1511 1535 1316 c 0,46,47
 1535 1224 1535 1224 1490 1143.5 c 128,-1,48
 1445 1063 1445 1063 1373 1063 c 0,49,50
 1329 1063 1329 1063 1302 1101.5 c 128,-1,51
 1275 1140 1275 1140 1275 1190 c 0,52,53
 1275 1219 1275 1219 1293.5 1265 c 128,-1,54
 1312 1311 1312 1311 1312 1341 c 0,55,56
 1312 1430 1312 1430 1272.5 1485.5 c 128,-1,57
 1233 1541 1233 1541 1158 1541 c 0,58,59
 888 1541 888 1541 648 1254 c 0,60,61
 525 1108 525 1108 454.5 911 c 128,-1,62
 384 714 384 714 384 472 c 0,63,64
 384 278 384 278 475.5 171 c 128,-1,65
 567 64 567 64 750 64 c 0,66,67
 1045 64 1045 64 1291 226 c 1,68,69
 1311 299 1311 299 1311 334 c 0,70,71
 1311 384 1311 384 1287.5 402 c 128,-1,72
 1264 420 1264 420 1210 420 c 0,73,74
 1146 420 1146 420 1100.5 450 c 128,-1,75
 1055 480 1055 480 1055 535 c 128,-1,76
 1055 590 1055 590 1101.5 617 c 128,-1,77
 1148 644 1148 644 1216 644 c 0,0,1
EndSplineSet
EndChar

StartChar: H
Encoding: 72 72 43
Width: 1926
GlyphClass: 2
Flags: MW
LayerCount: 2
Fore
SplineSet
387 1543 m 0,0,1
 379 1543 379 1543 354 1512 c 128,-1,2
 329 1481 329 1481 302 1444 c 128,-1,3
 275 1407 275 1407 243.5 1376 c 128,-1,4
 212 1345 212 1345 192 1345 c 0,5,6
 153 1345 153 1345 153 1455 c 0,7,8
 153 1543 153 1543 196.5 1607.5 c 128,-1,9
 240 1672 240 1672 308 1702.5 c 128,-1,10
 376 1733 376 1733 459 1733 c 0,11,12
 521 1733 521 1733 581.5 1715 c 128,-1,13
 642 1697 642 1697 698 1658.5 c 128,-1,14
 754 1620 754 1620 797 1566.5 c 128,-1,15
 840 1513 840 1513 865.5 1435.5 c 128,-1,16
 891 1358 891 1358 891 1267 c 0,17,18
 891 1185 891 1185 868.5 1097.5 c 128,-1,19
 846 1010 846 1010 809 906 c 1,20,21
 995 905 995 905 1300 904 c 1,22,23
 1414 1280 1414 1280 1543 1600 c 0,24,25
 1593 1725 1593 1725 1692 1725 c 0,26,27
 1742 1725 1742 1725 1770.5 1698.5 c 128,-1,28
 1799 1672 1799 1672 1799 1623 c 0,29,30
 1799 1555 1799 1555 1780.5 1490 c 128,-1,31
 1762 1425 1762 1425 1725.5 1341.5 c 128,-1,32
 1689 1258 1689 1258 1678 1226 c 0,33,34
 1619 1058 1619 1058 1575 919 c 1,35,36
 1593 921 1593 921 1677 937.5 c 128,-1,37
 1761 954 1761 954 1804 954 c 0,38,39
 1848 954 1848 954 1869 930.5 c 128,-1,40
 1890 907 1890 907 1890 851 c 0,41,42
 1890 820 1890 820 1863.5 799.5 c 128,-1,43
 1837 779 1837 779 1789.5 770.5 c 128,-1,44
 1742 762 1742 762 1699.5 758.5 c 128,-1,45
 1657 755 1657 755 1600.5 753.5 c 128,-1,46
 1544 752 1544 752 1525 750 c 1,47,48
 1422 388 1422 388 1422 275 c 0,49,50
 1422 171 1422 171 1491 171 c 0,51,52
 1528 171 1528 171 1563.5 176.5 c 128,-1,53
 1599 182 1599 182 1629.5 190.5 c 128,-1,54
 1660 199 1660 199 1692 214.5 c 128,-1,55
 1724 230 1724 230 1748 243 c 128,-1,56
 1772 256 1772 256 1802 279 c 128,-1,57
 1832 302 1832 302 1851 317 c 128,-1,58
 1870 332 1870 332 1898.5 359.5 c 128,-1,59
 1927 387 1927 387 1941.5 402 c 128,-1,60
 1956 417 1956 417 1984.5 446.5 c 128,-1,61
 2013 476 2013 476 2025 488 c 0,62,63
 2043 506 2043 506 2068 506 c 0,64,65
 2097 506 2097 506 2119 483 c 128,-1,66
 2141 460 2141 460 2141 420 c 0,67,68
 2141 331 2141 331 2060 249 c 0,69,70
 1750 -64 1750 -64 1455 -64 c 0,71,72
 1322 -64 1322 -64 1237 12 c 128,-1,73
 1152 88 1152 88 1152 217 c 0,74,75
 1152 247 1152 247 1153.5 277 c 128,-1,76
 1155 307 1155 307 1159.5 340.5 c 128,-1,77
 1164 374 1164 374 1167.5 399.5 c 128,-1,78
 1171 425 1171 425 1179 462.5 c 128,-1,79
 1187 500 1187 500 1191 520 c 128,-1,80
 1195 540 1195 540 1205 581 c 128,-1,81
 1215 622 1215 622 1218.5 636 c 128,-1,82
 1222 650 1222 650 1233.5 693 c 128,-1,83
 1245 736 1245 736 1247 744 c 1,84,85
 943 725 943 725 745 715 c 1,86,87
 596 371 596 371 493 161 c 0,88,89
 468 110 468 110 444.5 71.5 c 128,-1,90
 421 33 421 33 387 -8 c 128,-1,91
 353 -49 353 -49 311.5 -71 c 128,-1,92
 270 -93 270 -93 224 -93 c 0,93,94
 177 -93 177 -93 133 -67 c 128,-1,95
 89 -41 89 -41 89 -6 c 0,96,97
 89 8 89 8 97 21 c 0,98,99
 176 134 176 134 225.5 211.5 c 128,-1,100
 275 289 275 289 345 426.5 c 128,-1,101
 415 564 415 564 463 705 c 1,102,103
 364 705 364 705 285 727.5 c 128,-1,104
 206 750 206 750 154.5 803.5 c 128,-1,105
 103 857 103 857 103 935 c 0,106,107
 103 979 103 979 134 979 c 0,108,109
 146 979 146 979 157 974.5 c 128,-1,110
 168 970 168 970 180 958.5 c 128,-1,111
 192 947 192 947 198.5 939.5 c 128,-1,112
 205 932 205 932 218 915 c 128,-1,113
 231 898 231 898 235 893 c 1,114,115
 323 897 323 897 430 897 c 2,116,-1
 526 897 l 1,117,118
 567 967 567 967 593 1058 c 128,-1,119
 619 1149 619 1149 619 1235 c 0,120,121
 619 1300 619 1300 606.5 1353.5 c 128,-1,122
 594 1407 594 1407 568 1450.5 c 128,-1,123
 542 1494 542 1494 496 1518.5 c 128,-1,124
 450 1543 450 1543 387 1543 c 0,0,1
EndSplineSet
EndChar

StartChar: I
Encoding: 73 73 44
Width: 983
GlyphClass: 2
Flags: MW
LayerCount: 2
Fore
SplineSet
659 1484 m 1,0,1
 479 1465 479 1465 355 1402 c 1,2,3
 347 1402 347 1402 347 1533 c 0,4,5
 347 1592 347 1592 409 1634 c 128,-1,6
 471 1676 471 1676 569.5 1695.5 c 128,-1,7
 668 1715 668 1715 754 1722.5 c 128,-1,8
 840 1730 840 1730 925 1730 c 2,9,-1
 940 1730 l 2,10,11
 980 1730 980 1730 1004 1729.5 c 128,-1,12
 1028 1729 1028 1729 1063.5 1725.5 c 128,-1,13
 1099 1722 1099 1722 1120 1715 c 128,-1,14
 1141 1708 1141 1708 1162.5 1696 c 128,-1,15
 1184 1684 1184 1684 1194 1664.5 c 128,-1,16
 1204 1645 1204 1645 1204 1618 c 0,17,18
 1204 1587 1204 1587 1192.5 1565 c 128,-1,19
 1181 1543 1181 1543 1164 1530.5 c 128,-1,20
 1147 1518 1147 1518 1117.5 1511.5 c 128,-1,21
 1088 1505 1088 1505 1061 1503 c 128,-1,22
 1034 1501 1034 1501 995 1501 c 0,23,24
 962 1501 962 1501 929 1504 c 1,25,26
 876 1296 876 1296 771.5 845.5 c 128,-1,27
 667 395 667 395 604 157 c 1,28,29
 651 157 651 157 706 147.5 c 128,-1,30
 761 138 761 138 809.5 112 c 128,-1,31
 858 86 858 86 858 50 c 0,32,33
 858 8 858 8 786 -32 c 1,34,-1
 473 -32 l 2,35,36
 472 -32 472 -32 377.5 -32.5 c 128,-1,37
 283 -33 283 -33 213 -33 c 0,38,39
 -50 -33 -50 -33 -50 -27 c 0,40,41
 -50 -23 -50 -23 -38.5 -12 c 128,-1,42
 -27 -1 -27 -1 -13 11.5 c 128,-1,43
 1 24 1 24 4 29 c 0,44,45
 12 41 12 41 15.5 57 c 128,-1,46
 19 73 19 73 26 84 c 128,-1,47
 33 95 33 95 52 104 c 0,48,49
 149 150 149 150 314 163 c 1,50,51
 332 240 332 240 388.5 486.5 c 128,-1,52
 445 733 445 733 473.5 850.5 c 128,-1,53
 502 968 502 968 554.5 1154 c 128,-1,54
 607 1340 607 1340 659 1484 c 1,0,1
EndSplineSet
EndChar

StartChar: J
Encoding: 74 74 45
Width: 1362
GlyphClass: 2
Flags: MW
LayerCount: 2
Fore
SplineSet
796 1772 m 0,0,1
 704 1772 704 1772 627 1696.5 c 128,-1,2
 550 1621 550 1621 510 1514.5 c 128,-1,3
 470 1408 470 1408 470 1304 c 0,4,5
 470 1220 470 1220 495 1152 c 128,-1,6
 520 1084 520 1084 589 1013.5 c 128,-1,7
 658 943 658 943 705.5 904.5 c 128,-1,8
 753 866 753 866 872 780 c 0,9,10
 921 744 921 744 947 725 c 1,11,12
 984 1024 984 1024 984 1344 c 0,13,14
 984 1772 984 1772 796 1772 c 0,0,1
152 -320 m 0,15,16
 152 -412 152 -412 187.5 -469.5 c 128,-1,17
 223 -527 223 -527 296 -527 c 0,18,19
 345 -527 345 -527 392 -506.5 c 128,-1,20
 439 -486 439 -486 479.5 -447.5 c 128,-1,21
 520 -409 520 -409 549.5 -373.5 c 128,-1,22
 579 -338 579 -338 613 -290 c 0,23,24
 817 -4 817 -4 920 486 c 1,25,-1
 911 486 l 2,26,27
 773 486 773 486 633 411.5 c 128,-1,28
 493 337 493 337 388.5 221.5 c 128,-1,29
 284 106 284 106 218 -39.5 c 128,-1,30
 152 -185 152 -185 152 -320 c 0,15,16
267 -760 m 0,31,32
 171 -760 171 -760 98.5 -720 c 128,-1,33
 26 -680 26 -680 -17.5 -609 c 128,-1,34
 -61 -538 -61 -538 -82.5 -449.5 c 128,-1,35
 -104 -361 -104 -361 -104 -256 c 0,36,37
 -104 -126 -104 -126 -68 -8.5 c 128,-1,38
 -32 109 -32 109 30.5 199.5 c 128,-1,39
 93 290 93 290 175.5 365 c 128,-1,40
 258 440 258 440 354.5 491 c 128,-1,41
 451 542 451 542 551 574.5 c 128,-1,42
 651 607 651 607 752 619 c 1,43,44
 700 653 700 653 676 669 c 128,-1,45
 652 685 652 685 598.5 722 c 128,-1,46
 545 759 545 759 516.5 783 c 128,-1,47
 488 807 488 807 441 848 c 128,-1,48
 394 889 394 889 367.5 921.5 c 128,-1,49
 341 954 341 954 308 999 c 128,-1,50
 275 1044 275 1044 258 1086 c 128,-1,51
 241 1128 241 1128 228.5 1178.5 c 128,-1,52
 216 1229 216 1229 216 1280 c 0,53,54
 216 1529 216 1529 333 1712.5 c 128,-1,55
 450 1896 450 1896 640 1963 c 0,56,57
 708 1987 708 1987 775 1987 c 0,58,59
 865 1987 865 1987 938 1953 c 128,-1,60
 1011 1919 1011 1919 1060.5 1857.5 c 128,-1,61
 1110 1796 1110 1796 1146 1717.5 c 128,-1,62
 1182 1639 1182 1639 1202 1542.5 c 128,-1,63
 1222 1446 1222 1446 1231 1351 c 128,-1,64
 1240 1256 1240 1256 1240 1152 c 0,65,66
 1240 835 1240 835 1195 562 c 1,67,68
 1236 536 1236 536 1318 493.5 c 128,-1,69
 1400 451 1400 451 1466 411 c 128,-1,70
 1532 371 1532 371 1577 328 c 0,71,72
 1590 316 1590 316 1590 306 c 0,73,74
 1590 280 1590 280 1550.5 258 c 128,-1,75
 1511 236 1511 236 1477 236 c 0,76,77
 1422 237 1422 237 1360 258 c 128,-1,78
 1298 279 1298 279 1257 300.5 c 128,-1,79
 1216 322 1216 322 1151 361 c 1,80,81
 986 -350 986 -350 592 -640 c 1,82,83
 425 -760 425 -760 267 -760 c 0,31,32
EndSplineSet
EndChar

StartChar: K
Encoding: 75 75 46
Width: 1880
GlyphClass: 2
Flags: MW
LayerCount: 2
Fore
SplineSet
1532 -64 m 0,0,1
 1467 -64 1467 -64 1408 -47 c 128,-1,2
 1349 -30 1349 -30 1302.5 -2 c 128,-1,3
 1256 26 1256 26 1214 69 c 128,-1,4
 1172 112 1172 112 1141 157 c 128,-1,5
 1110 202 1110 202 1081 259 c 128,-1,6
 1052 316 1052 316 1032 366.5 c 128,-1,7
 1012 417 1012 417 992 477.5 c 128,-1,8
 972 538 972 538 959.5 583 c 128,-1,9
 947 628 947 628 932 680.5 c 128,-1,10
 917 733 917 733 907 762 c 1,11,12
 890 691 890 691 873 631 c 128,-1,13
 856 571 856 571 832.5 501 c 128,-1,14
 809 431 809 431 784 374 c 128,-1,15
 759 317 759 317 725 257.5 c 128,-1,16
 691 198 691 198 654 152 c 128,-1,17
 617 106 617 106 569.5 64 c 128,-1,18
 522 22 522 22 469 -5 c 128,-1,19
 416 -32 416 -32 351 -48 c 128,-1,20
 286 -64 286 -64 214 -64 c 0,21,22
 171 -64 171 -64 125 -60 c 128,-1,23
 79 -56 79 -56 25.5 -46 c 128,-1,24
 -28 -36 -28 -36 -62 -15 c 128,-1,25
 -96 6 -96 6 -96 36 c 0,26,27
 -96 85 -96 85 -55 140.5 c 128,-1,28
 -14 196 -14 196 31 196 c 0,29,30
 53 196 53 196 101 178 c 128,-1,31
 149 160 149 160 179 160 c 0,32,33
 230 160 230 160 276 176 c 128,-1,34
 322 192 322 192 358 217.5 c 128,-1,35
 394 243 394 243 427.5 284.5 c 128,-1,36
 461 326 461 326 485.5 365.5 c 128,-1,37
 510 405 510 405 534 462 c 128,-1,38
 558 519 558 519 573 562.5 c 128,-1,39
 588 606 588 606 605 669 c 128,-1,40
 622 732 622 732 631 769.5 c 128,-1,41
 640 807 640 807 653 864 c 0,42,43
 711 1125 711 1125 749 1485 c 1,44,-1
 761 1568 l 1,45,46
 542 1568 542 1568 401 1437.5 c 128,-1,47
 260 1307 260 1307 260 1097 c 0,48,49
 260 1059 260 1059 224 1041.5 c 128,-1,50
 188 1024 188 1024 136 1024 c 0,51,52
 -28 1024 -28 1024 -28 1111 c 2,53,-1
 -28 1120 l 2,54,55
 -28 1248 -28 1248 26 1352.5 c 128,-1,56
 80 1457 80 1457 169.5 1526 c 128,-1,57
 259 1595 259 1595 379.5 1641.5 c 128,-1,58
 500 1688 500 1688 629 1708 c 128,-1,59
 758 1728 758 1728 895 1728 c 0,60,61
 1021 1728 1021 1728 1021 1632 c 0,62,63
 1021 1318 1021 1318 949 992 c 1,64,65
 1223 1158 1223 1158 1368.5 1271.5 c 128,-1,66
 1514 1385 1514 1385 1644 1536 c 0,67,68
 1667 1562 1667 1562 1695.5 1601 c 128,-1,69
 1724 1640 1724 1640 1738.5 1658.5 c 128,-1,70
 1753 1677 1753 1677 1776 1692 c 128,-1,71
 1799 1707 1799 1707 1826 1707 c 0,72,73
 1882 1707 1882 1707 1923 1674 c 128,-1,74
 1964 1641 1964 1641 1964 1589 c 0,75,76
 1964 1581 1964 1581 1962 1570.5 c 128,-1,77
 1960 1560 1960 1560 1958 1552 c 128,-1,78
 1956 1544 1956 1544 1951.5 1532.5 c 128,-1,79
 1947 1521 1947 1521 1944.5 1515 c 128,-1,80
 1942 1509 1942 1509 1936.5 1496.5 c 128,-1,81
 1931 1484 1931 1484 1930 1481 c 0,82,83
 1864 1335 1864 1335 1663.5 1176.5 c 128,-1,84
 1463 1018 1463 1018 1101 860 c 1,85,86
 1131 803 1131 803 1166 725 c 128,-1,87
 1201 647 1201 647 1228 585 c 128,-1,88
 1255 523 1255 523 1287.5 454.5 c 128,-1,89
 1320 386 1320 386 1351 335.5 c 128,-1,90
 1382 285 1382 285 1417.5 242.5 c 128,-1,91
 1453 200 1453 200 1495 178 c 128,-1,92
 1537 156 1537 156 1583 156 c 2,93,94
 1583 156 1583 156 1584 156 c 0,95,96
 1629 156 1629 156 1673.5 169.5 c 128,-1,97
 1718 183 1718 183 1762.5 210 c 128,-1,98
 1807 237 1807 237 1832.5 255 c 128,-1,99
 1858 273 1858 273 1899 306 c 0,100,101
 1929 330 1929 330 1955 330 c 0,102,103
 1980 330 1980 330 1996.5 306 c 128,-1,104
 2013 282 2013 282 2019 252 c 128,-1,105
 2025 222 2025 222 2025 189 c 0,106,107
 2025 139 2025 139 2015 130 c 0,108,109
 1800 -64 1800 -64 1532 -64 c 0,0,1
EndSplineSet
Substitution2: "Single Substitution lookup 3 subtable" K.alt
EndChar

StartChar: L
Encoding: 76 76 47
Width: 1122
GlyphClass: 2
Flags: MW
LayerCount: 2
Fore
SplineSet
1033 1635 m 0,0,1
 1033 1744 1033 1744 975 1744 c 0,2,3
 945 1744 945 1744 910.5 1720 c 128,-1,4
 876 1696 876 1696 856.5 1673.5 c 128,-1,5
 837 1651 837 1651 810 1615 c 0,6,7
 692 1460 692 1460 603 1196.5 c 128,-1,8
 514 933 514 933 492 678 c 1,9,10
 633 824 633 824 773.5 1034.5 c 128,-1,11
 914 1245 914 1245 992 1435 c 0,12,13
 1033 1535 1033 1535 1033 1635 c 0,0,1
-12 129 m 0,14,15
 -50 129 -50 129 -75.5 171.5 c 128,-1,16
 -101 214 -101 214 -101 260 c 0,17,18
 -101 289 -101 289 -85 313 c 128,-1,19
 -69 337 -69 337 -52.5 349 c 128,-1,20
 -36 361 -36 361 -3 379.5 c 128,-1,21
 30 398 30 398 41 405 c 0,22,23
 131 465 131 465 227 534 c 1,24,25
 259 805 259 805 321 1038.5 c 128,-1,26
 383 1272 383 1272 492 1482.5 c 128,-1,27
 601 1693 601 1693 746 1820 c 0,28,29
 908 1962 908 1962 1056 1962 c 0,30,31
 1172 1962 1172 1962 1228 1878 c 128,-1,32
 1284 1794 1284 1794 1284 1658 c 0,33,34
 1284 1568 1284 1568 1265 1482 c 128,-1,35
 1246 1396 1246 1396 1209 1317 c 128,-1,36
 1172 1238 1172 1238 1137 1179 c 128,-1,37
 1102 1120 1102 1120 1053 1050 c 0,38,39
 728 582 728 582 474 426 c 1,40,41
 473 383 473 383 470.5 285.5 c 128,-1,42
 468 188 468 188 468 130 c 0,43,44
 468 76 468 76 577 76 c 0,45,46
 617 76 617 76 668 81 c 128,-1,47
 719 86 719 86 778 93.5 c 128,-1,48
 837 101 837 101 853 103 c 2,49,-1
 1178 139 l 1,50,51
 1196 143 1196 143 1209 143 c 0,52,53
 1256 143 1256 143 1281 110.5 c 128,-1,54
 1306 78 1306 78 1306 28 c 0,55,56
 1306 -19 1306 -19 1279.5 -51 c 128,-1,57
 1253 -83 1253 -83 1210 -91 c 0,58,59
 1069 -116 1069 -116 976.5 -130.5 c 128,-1,60
 884 -145 884 -145 740.5 -157.5 c 128,-1,61
 597 -170 597 -170 457 -170 c 0,62,63
 211 -170 211 -170 211 266 c 1,64,65
 133 208 133 208 65 166 c 0,66,67
 6 129 6 129 -12 129 c 0,14,15
EndSplineSet
EndChar

StartChar: M
Encoding: 77 77 48
Width: 2201
GlyphClass: 2
Flags: MW
LayerCount: 2
Fore
SplineSet
1656 296 m 0,0,1
 1656 418 1656 418 1680 561 c 128,-1,2
 1704 704 1704 704 1732 813.5 c 128,-1,3
 1760 923 1760 923 1784 1064 c 128,-1,4
 1808 1205 1808 1205 1808 1324 c 0,5,6
 1808 1472 1808 1472 1721 1472 c 0,7,8
 1656 1472 1656 1472 1581.5 1354.5 c 128,-1,9
 1507 1237 1507 1237 1445.5 1067 c 128,-1,10
 1384 897 1384 897 1328 699 c 128,-1,11
 1272 501 1272 501 1237.5 347.5 c 128,-1,12
 1203 194 1203 194 1188 102 c 0,13,14
 1179 49 1179 49 1143.5 21.5 c 128,-1,15
 1108 -6 1108 -6 1062 -6 c 0,16,17
 1009 -6 1009 -6 963.5 29 c 128,-1,18
 918 64 918 64 918 121 c 0,19,20
 918 128 918 128 920 144 c 0,21,22
 923 163 923 163 954 331 c 128,-1,23
 985 499 985 499 1000.5 590 c 128,-1,24
 1016 681 1016 681 1039.5 827.5 c 128,-1,25
 1063 974 1063 974 1074 1077.5 c 128,-1,26
 1085 1181 1085 1181 1085 1247 c 0,27,28
 1085 1285 1085 1285 1084 1309.5 c 128,-1,29
 1083 1334 1083 1334 1078.5 1368.5 c 128,-1,30
 1074 1403 1074 1403 1066 1423.5 c 128,-1,31
 1058 1444 1058 1444 1041.5 1459 c 128,-1,32
 1025 1474 1025 1474 1002 1474 c 0,33,34
 950 1474 950 1474 881.5 1380 c 128,-1,35
 813 1286 813 1286 748.5 1143.5 c 128,-1,36
 684 1001 684 1001 623.5 838.5 c 128,-1,37
 563 676 563 676 520.5 534 c 128,-1,38
 478 392 478 392 460 304 c 0,39,40
 431 159 431 159 411 111 c 1,41,42
 367 -1 367 -1 275 -1 c 0,43,44
 217 -1 217 -1 172.5 19.5 c 128,-1,45
 128 40 128 40 128 79 c 0,46,47
 128 141 128 141 174 359.5 c 128,-1,48
 220 578 220 578 230 640 c 0,49,50
 240 701 240 701 254 807 c 128,-1,51
 268 913 268 913 285 1088 c 128,-1,52
 302 1263 302 1263 302 1368 c 0,53,54
 302 1518 302 1518 268 1518 c 0,55,56
 195 1518 195 1518 39 1138 c 1,57,58
 32 1127 32 1127 15 1127 c 0,59,60
 -25 1127 -25 1127 -76.5 1174 c 128,-1,61
 -128 1221 -128 1221 -128 1266 c 0,62,63
 -128 1288 -128 1288 -120 1308 c 0,64,65
 -51 1484 -51 1484 62 1593 c 128,-1,66
 175 1702 175 1702 299 1702 c 0,67,68
 350 1702 350 1702 388 1685 c 128,-1,69
 426 1668 426 1668 449 1639.5 c 128,-1,70
 472 1611 472 1611 486 1568 c 128,-1,71
 500 1525 500 1525 505 1480 c 128,-1,72
 510 1435 510 1435 510 1377 c 0,73,74
 510 1263 510 1263 506 1051 c 1,75,76
 528 1119 528 1119 555 1186 c 128,-1,77
 582 1253 582 1253 621 1333 c 128,-1,78
 660 1413 660 1413 707 1479.5 c 128,-1,79
 754 1546 754 1546 808.5 1603 c 128,-1,80
 863 1660 863 1660 930 1692 c 128,-1,81
 997 1724 997 1724 1067 1724 c 0,82,83
 1183 1724 1183 1724 1249 1640.5 c 128,-1,84
 1315 1557 1315 1557 1315 1439 c 0,85,86
 1315 1415 1315 1415 1299.5 1316 c 128,-1,87
 1284 1217 1284 1217 1269 1130 c 2,88,-1
 1254 1043 l 1,89,90
 1280 1144 1280 1144 1308.5 1228.5 c 128,-1,91
 1337 1313 1337 1313 1386.5 1410 c 128,-1,92
 1436 1507 1436 1507 1494 1574 c 128,-1,93
 1552 1641 1552 1641 1637 1685.5 c 128,-1,94
 1722 1730 1722 1730 1821 1730 c 0,95,96
 1898 1730 1898 1730 1956.5 1680.5 c 128,-1,97
 2015 1631 2015 1631 2044 1551 c 128,-1,98
 2073 1471 2073 1471 2073 1376 c 0,99,100
 2073 1322 2073 1322 2065 1278 c 0,101,102
 2037 1120 2037 1120 1992 848.5 c 128,-1,103
 1947 577 1947 577 1924 448 c 0,104,105
 1912 384 1912 384 1912 336 c 0,106,107
 1912 224 1912 224 1996 224 c 0,108,109
 2040 224 2040 224 2087 249 c 128,-1,110
 2134 274 2134 274 2161.5 299.5 c 128,-1,111
 2189 325 2189 325 2224 361 c 0,112,113
 2230 368 2230 368 2233 371 c 0,114,115
 2323 463 2323 463 2359 518 c 1,116,117
 2401 579 2401 579 2429 579 c 0,118,119
 2445 579 2445 579 2455.5 562.5 c 128,-1,120
 2466 546 2466 546 2466 516 c 0,121,122
 2466 427 2466 427 2406 321 c 0,123,124
 2377 269 2377 269 2346 226 c 128,-1,125
 2315 183 2315 183 2271.5 139.5 c 128,-1,126
 2228 96 2228 96 2181 66.5 c 128,-1,127
 2134 37 2134 37 2072 18.5 c 128,-1,128
 2010 0 2010 0 1941 0 c 0,129,130
 1813 0 1813 0 1734.5 82 c 128,-1,131
 1656 164 1656 164 1656 296 c 0,0,1
EndSplineSet
EndChar

StartChar: N
Encoding: 78 78 49
Width: 1693
GlyphClass: 2
Flags: MW
LayerCount: 2
Fore
SplineSet
1212 1327 m 0,0,1
 1212 1474 1212 1474 1122 1474 c 0,2,3
 1073 1474 1073 1474 1020 1425 c 128,-1,4
 967 1376 967 1376 920 1296.5 c 128,-1,5
 873 1217 873 1217 823.5 1106.5 c 128,-1,6
 774 996 774 996 733 883 c 128,-1,7
 692 770 692 770 650 644.5 c 128,-1,8
 608 519 608 519 577.5 418.5 c 128,-1,9
 547 318 547 318 517.5 223 c 128,-1,10
 488 128 488 128 473 85 c 0,11,12
 438 -14 438 -14 327 -14 c 0,13,14
 270 -14 270 -14 229.5 28.5 c 128,-1,15
 189 71 189 71 189 128 c 0,16,17
 189 141 189 141 192 154 c 0,18,19
 207 233 207 233 240 397 c 128,-1,20
 273 561 273 561 289.5 649.5 c 128,-1,21
 306 738 306 738 329 873 c 128,-1,22
 352 1008 352 1008 366.5 1133.5 c 128,-1,23
 381 1259 381 1259 390 1391 c 1,24,-1
 390 1414 l 2,25,26
 390 1471 390 1471 354 1471 c 0,27,28
 343 1471 343 1471 331 1466.5 c 128,-1,29
 319 1462 319 1462 309 1456 c 128,-1,30
 299 1450 299 1450 287.5 1439 c 128,-1,31
 276 1428 276 1428 269 1420 c 128,-1,32
 262 1412 262 1412 251.5 1397.5 c 128,-1,33
 241 1383 241 1383 236.5 1376 c 128,-1,34
 232 1369 232 1369 222.5 1355 c 128,-1,35
 213 1341 213 1341 212 1339 c 0,36,37
 206 1330 206 1330 188 1298.5 c 128,-1,38
 170 1267 170 1267 158 1248.5 c 128,-1,39
 146 1230 146 1230 124 1213 c 128,-1,40
 102 1196 102 1196 79 1196 c 0,41,42
 53 1196 53 1196 25.5 1222.5 c 128,-1,43
 -2 1249 -2 1249 -2 1275 c 0,44,45
 -2 1364 -2 1364 51 1462.5 c 128,-1,46
 104 1561 104 1561 189.5 1628.5 c 128,-1,47
 275 1696 275 1696 360 1696 c 0,48,49
 614 1696 614 1696 614 1402 c 0,50,51
 614 1302 614 1302 593 1134 c 128,-1,52
 572 966 572 966 553.5 849 c 128,-1,53
 535 732 535 732 537 731 c 1,54,55
 547 765 547 765 568 838 c 0,56,57
 592 923 592 923 606 968.5 c 128,-1,58
 620 1014 620 1014 648 1100 c 128,-1,59
 676 1186 676 1186 697 1236.5 c 128,-1,60
 718 1287 718 1287 753.5 1361.5 c 128,-1,61
 789 1436 789 1436 821 1481 c 128,-1,62
 853 1526 853 1526 899 1578.5 c 128,-1,63
 945 1631 945 1631 992 1660 c 128,-1,64
 1039 1689 1039 1689 1098.5 1708.5 c 128,-1,65
 1158 1728 1158 1728 1223 1728 c 0,66,67
 1286 1728 1286 1728 1335.5 1702.5 c 128,-1,68
 1385 1677 1385 1677 1414 1634 c 128,-1,69
 1443 1591 1443 1591 1458 1538.5 c 128,-1,70
 1473 1486 1473 1486 1473 1427 c 0,71,72
 1473 1314 1473 1314 1448 1183 c 128,-1,73
 1423 1052 1423 1052 1392.5 950.5 c 128,-1,74
 1362 849 1362 849 1337 716 c 128,-1,75
 1312 583 1312 583 1312 467 c 0,76,77
 1312 191 1312 191 1460 191 c 0,78,79
 1514 191 1514 191 1571.5 214 c 128,-1,80
 1629 237 1629 237 1670.5 265 c 128,-1,81
 1712 293 1712 293 1764 343.5 c 128,-1,82
 1816 394 1816 394 1839 420 c 128,-1,83
 1862 446 1862 446 1902 494 c 0,84,85
 1923 518 1923 518 1923 520 c 2,86,-1
 1983 303 l 1,87,88
 1935 238 1935 238 1877.5 181.5 c 128,-1,89
 1820 125 1820 125 1746 72.5 c 128,-1,90
 1672 20 1672 20 1581 -10.5 c 128,-1,91
 1490 -41 1490 -41 1395 -41 c 0,92,93
 1307 -41 1307 -41 1238 -5 c 128,-1,94
 1169 31 1169 31 1127 94.5 c 128,-1,95
 1085 158 1085 158 1063 238.5 c 128,-1,96
 1041 319 1041 319 1041 413 c 0,97,98
 1041 521 1041 521 1059.5 635.5 c 128,-1,99
 1078 750 1078 750 1101 832 c 128,-1,100
 1124 914 1124 914 1154.5 1023.5 c 128,-1,101
 1185 1133 1185 1133 1200 1208 c 0,102,103
 1212 1269 1212 1269 1212 1327 c 0,0,1
EndSplineSet
EndChar

StartChar: O
Encoding: 79 79 50
Width: 1699
GlyphClass: 2
Flags: MW
LayerCount: 2
Fore
SplineSet
1435 1036 m 0,0,1
 1435 1116 1435 1116 1422.5 1185.5 c 128,-1,2
 1410 1255 1410 1255 1382 1315 c 128,-1,3
 1354 1375 1354 1375 1312 1417.5 c 128,-1,4
 1270 1460 1270 1460 1208 1484.5 c 128,-1,5
 1146 1509 1146 1509 1068 1509 c 0,6,7
 975 1509 975 1509 891 1477.5 c 128,-1,8
 807 1446 807 1446 742 1392.5 c 128,-1,9
 677 1339 677 1339 622 1266 c 128,-1,10
 567 1193 567 1193 528.5 1110 c 128,-1,11
 490 1027 490 1027 463 936.5 c 128,-1,12
 436 846 436 846 423.5 758 c 128,-1,13
 411 670 411 670 411 587 c 0,14,15
 411 499 411 499 436.5 422.5 c 128,-1,16
 462 346 462 346 511.5 286.5 c 128,-1,17
 561 227 561 227 641.5 193 c 128,-1,18
 722 159 722 159 825 159 c 0,19,20
 931 159 931 159 1022.5 199 c 128,-1,21
 1114 239 1114 239 1179.5 308 c 128,-1,22
 1245 377 1245 377 1295 464.5 c 128,-1,23
 1345 552 1345 552 1375 651.5 c 128,-1,24
 1405 751 1405 751 1420 847.5 c 128,-1,25
 1435 944 1435 944 1435 1036 c 0,0,1
154 589 m 0,26,27
 154 735 154 735 182 876.5 c 128,-1,28
 210 1018 210 1018 262.5 1144.5 c 128,-1,29
 315 1271 315 1271 394 1378.5 c 128,-1,30
 473 1486 473 1486 571 1564 c 128,-1,31
 669 1642 669 1642 793 1686 c 128,-1,32
 917 1730 917 1730 1054 1730 c 0,33,34
 1209 1730 1209 1730 1331 1675 c 128,-1,35
 1453 1620 1453 1620 1531 1522 c 128,-1,36
 1609 1424 1609 1424 1650 1290.5 c 128,-1,37
 1691 1157 1691 1157 1691 997 c 0,38,39
 1691 844 1691 844 1655.5 693.5 c 128,-1,40
 1620 543 1620 543 1546.5 406 c 128,-1,41
 1473 269 1473 269 1369.5 164 c 128,-1,42
 1266 59 1266 59 1119 -3.5 c 128,-1,43
 972 -66 972 -66 801 -66 c 0,44,45
 677 -66 677 -66 571.5 -32.5 c 128,-1,46
 466 1 466 1 389.5 61.5 c 128,-1,47
 313 122 313 122 259.5 204 c 128,-1,48
 206 286 206 286 180 383.5 c 128,-1,49
 154 481 154 481 154 589 c 0,26,27
EndSplineSet
EndChar

StartChar: P
Encoding: 80 80 51
Width: 1551
GlyphClass: 2
Flags: MW
LayerCount: 2
Fore
SplineSet
1567 1303 m 0,0,1
 1567 1379 1567 1379 1536.5 1438.5 c 128,-1,2
 1506 1498 1506 1498 1454 1537 c 128,-1,3
 1402 1576 1402 1576 1327 1601.5 c 128,-1,4
 1252 1627 1252 1627 1168 1637.5 c 128,-1,5
 1084 1648 1084 1648 985 1648 c 0,6,7
 858 1648 858 1648 755 1595 c 128,-1,8
 652 1542 652 1542 585 1454.5 c 128,-1,9
 518 1367 518 1367 472.5 1249 c 128,-1,10
 427 1131 427 1131 407.5 1007.5 c 128,-1,11
 388 884 388 884 388 753 c 0,12,13
 388 461 388 461 395 357 c 0,14,15
 422 -21 422 -21 558 -21 c 0,16,17
 603 -21 603 -21 637 -1 c 128,-1,18
 671 19 671 19 692 58.5 c 128,-1,19
 713 98 713 98 726.5 143 c 128,-1,20
 740 188 740 188 748 253 c 128,-1,21
 756 318 756 318 760.5 373 c 128,-1,22
 765 428 765 428 770.5 502.5 c 128,-1,23
 776 577 776 577 782 627 c 2,24,-1
 795 734 l 1,25,26
 781 740 781 740 753 750.5 c 128,-1,27
 725 761 725 761 710 767 c 128,-1,28
 695 773 695 773 671 784.5 c 128,-1,29
 647 796 647 796 633 805.5 c 128,-1,30
 619 815 619 815 602.5 830 c 128,-1,31
 586 845 586 845 577 861.5 c 128,-1,32
 568 878 568 878 562 900 c 128,-1,33
 556 922 556 922 556 948 c 0,34,35
 556 970 556 970 557 982 c 128,-1,36
 558 994 558 994 561.5 1011.5 c 128,-1,37
 565 1029 565 1029 574.5 1037 c 128,-1,38
 584 1045 584 1045 599 1045 c 0,39,40
 633 1045 633 1045 697 1010 c 128,-1,41
 761 975 761 975 785 970 c 1,42,43
 785 1416 785 1416 1012 1416 c 0,44,45
 1060 1416 1060 1416 1090 1395.5 c 128,-1,46
 1120 1375 1120 1375 1120 1333 c 0,47,48
 1120 1328 1120 1328 1119.5 1324 c 128,-1,49
 1119 1320 1119 1320 1119 1317 c 2,50,-1
 1058 1060 l 1,51,-1
 1049 981 l 1,52,53
 1152 993 1152 993 1239.5 1016 c 128,-1,54
 1327 1039 1327 1039 1403.5 1076.5 c 128,-1,55
 1480 1114 1480 1114 1523.5 1172 c 128,-1,56
 1567 1230 1567 1230 1567 1303 c 0,0,1
120 727 m 0,57,58
 120 907 120 907 154.5 1074.5 c 128,-1,59
 189 1242 189 1242 261.5 1389.5 c 128,-1,60
 334 1537 334 1537 437.5 1646.5 c 128,-1,61
 541 1756 541 1756 687.5 1819.5 c 128,-1,62
 834 1883 834 1883 1008 1883 c 0,63,64
 1142 1883 1142 1883 1260.5 1861 c 128,-1,65
 1379 1839 1379 1839 1478.5 1792.5 c 128,-1,66
 1578 1746 1578 1746 1650 1680 c 128,-1,67
 1722 1614 1722 1614 1762 1521 c 128,-1,68
 1802 1428 1802 1428 1802 1316 c 0,69,70
 1802 1216 1802 1216 1759.5 1130 c 128,-1,71
 1717 1044 1717 1044 1645.5 981 c 128,-1,72
 1574 918 1574 918 1476 869 c 128,-1,73
 1378 820 1378 820 1270 790.5 c 128,-1,74
 1162 761 1162 761 1043 746 c 1,75,76
 1044 746 1044 746 1039 675 c 128,-1,77
 1034 604 1034 604 1026.5 512 c 128,-1,78
 1019 420 1019 420 1013 373 c 0,79,80
 1000 263 1000 263 978 173 c 128,-1,81
 956 83 956 83 918 1.5 c 128,-1,82
 880 -80 880 -80 829 -135 c 128,-1,83
 778 -190 778 -190 703.5 -222.5 c 128,-1,84
 629 -255 629 -255 536 -255 c 0,85,86
 464 -255 464 -255 404 -220 c 128,-1,87
 344 -185 344 -185 302 -127.5 c 128,-1,88
 260 -70 260 -70 227 11.5 c 128,-1,89
 194 93 194 93 174.5 179.5 c 128,-1,90
 155 266 155 266 142 365.5 c 128,-1,91
 129 465 129 465 124.5 551.5 c 128,-1,92
 120 638 120 638 120 727 c 0,57,58
EndSplineSet
EndChar

StartChar: Q
Encoding: 81 81 52
Width: 1612
GlyphClass: 2
Flags: MW
LayerCount: 2
Fore
SplineSet
383 577 m 0,0,1
 383 439 383 439 424.5 325 c 128,-1,2
 466 211 466 211 555 137.5 c 128,-1,3
 644 64 644 64 766 64 c 0,4,5
 855 64 855 64 933 101.5 c 128,-1,6
 1011 139 1011 139 1068.5 203 c 128,-1,7
 1126 267 1126 267 1173.5 354 c 128,-1,8
 1221 441 1221 441 1252 537.5 c 128,-1,9
 1283 634 1283 634 1304 739 c 128,-1,10
 1325 844 1325 844 1334.5 942 c 128,-1,11
 1344 1040 1344 1040 1344 1132 c 0,12,13
 1344 1238 1344 1238 1328 1327.5 c 128,-1,14
 1312 1417 1312 1417 1276 1495.5 c 128,-1,15
 1240 1574 1240 1574 1173 1619 c 128,-1,16
 1106 1664 1106 1664 1014 1664 c 0,17,18
 893 1664 893 1664 787.5 1593 c 128,-1,19
 682 1522 682 1522 609.5 1407.5 c 128,-1,20
 537 1293 537 1293 484.5 1149 c 128,-1,21
 432 1005 432 1005 407.5 858.5 c 128,-1,22
 383 712 383 712 383 577 c 0,0,1
996 1856 m 0,23,24
 1156 1856 1156 1856 1279 1795 c 128,-1,25
 1402 1734 1402 1734 1478.5 1625.5 c 128,-1,26
 1555 1517 1555 1517 1593.5 1375 c 128,-1,27
 1632 1233 1632 1233 1632 1064 c 0,28,29
 1632 892 1632 892 1602 727.5 c 128,-1,30
 1572 563 1572 563 1509 413.5 c 128,-1,31
 1446 264 1446 264 1357 147.5 c 128,-1,32
 1268 31 1268 31 1142.5 -45 c 128,-1,33
 1017 -121 1017 -121 870 -138 c 1,34,35
 891 -161 891 -161 928.5 -213.5 c 128,-1,36
 966 -266 966 -266 993.5 -300.5 c 128,-1,37
 1021 -335 1021 -335 1067.5 -364.5 c 128,-1,38
 1114 -394 1114 -394 1165 -394 c 0,39,40
 1205 -394 1205 -394 1244 -379 c 128,-1,41
 1283 -364 1283 -364 1317 -337 c 128,-1,42
 1351 -310 1351 -310 1373.5 -287 c 128,-1,43
 1396 -264 1396 -264 1423 -233 c 1,44,45
 1437 -223 1437 -223 1460 -223 c 0,46,47
 1488 -223 1488 -223 1511 -259 c 128,-1,48
 1534 -295 1534 -295 1543 -331 c 2,49,-1
 1552 -367 l 1,50,51
 1461 -495 1461 -495 1327 -574 c 128,-1,52
 1193 -653 1193 -653 1072 -653 c 0,53,54
 1024 -653 1024 -653 982.5 -640.5 c 128,-1,55
 941 -628 941 -628 911 -609.5 c 128,-1,56
 881 -591 881 -591 854 -558.5 c 128,-1,57
 827 -526 827 -526 809.5 -498.5 c 128,-1,58
 792 -471 792 -471 774 -427.5 c 128,-1,59
 756 -384 756 -384 746 -354.5 c 128,-1,60
 736 -325 736 -325 721 -280 c 0,61,62
 715 -261 715 -261 712 -252 c 2,63,-1
 680 -155 l 1,64,65
 394 -107 394 -107 245 97.5 c 128,-1,66
 96 302 96 302 96 628 c 0,67,68
 96 811 96 811 135.5 989 c 128,-1,69
 175 1167 175 1167 253 1323 c 128,-1,70
 331 1479 331 1479 437.5 1598.5 c 128,-1,71
 544 1718 544 1718 688.5 1787 c 128,-1,72
 833 1856 833 1856 996 1856 c 0,23,24
EndSplineSet
EndChar

StartChar: R
Encoding: 82 82 53
Width: 1820
GlyphClass: 2
Flags: MW
LayerCount: 2
Fore
SplineSet
809 976 m 1,0,1
 811 1022 811 1022 815.5 1059 c 128,-1,2
 820 1096 820 1096 832 1139.5 c 128,-1,3
 844 1183 844 1183 862 1212.5 c 128,-1,4
 880 1242 880 1242 912 1261.5 c 128,-1,5
 944 1281 944 1281 986 1281 c 0,6,7
 1033 1281 1033 1281 1054 1260.5 c 128,-1,8
 1075 1240 1075 1240 1075 1197 c 2,9,-1
 1075 1188 l 1,10,11
 1074 1145 1074 1145 1060.5 1060.5 c 128,-1,12
 1047 976 1047 976 1044 950 c 1,13,14
 1128 952 1128 952 1201.5 961 c 128,-1,15
 1275 970 1275 970 1347.5 991.5 c 128,-1,16
 1420 1013 1420 1013 1471 1046 c 128,-1,17
 1522 1079 1522 1079 1554 1131.5 c 128,-1,18
 1586 1184 1586 1184 1586 1252 c 0,19,20
 1586 1333 1586 1333 1533 1389.5 c 128,-1,21
 1480 1446 1480 1446 1400.5 1470 c 128,-1,22
 1321 1494 1321 1494 1224 1494 c 0,23,24
 1054 1494 1054 1494 910 1444 c 128,-1,25
 766 1394 766 1394 662 1303 c 128,-1,26
 558 1212 558 1212 485 1087 c 128,-1,27
 412 962 412 962 376 810.5 c 128,-1,28
 340 659 340 659 340 489 c 0,29,30
 340 425 340 425 347 365.5 c 128,-1,31
 354 306 354 306 371.5 246 c 128,-1,32
 389 186 389 186 416.5 141.5 c 128,-1,33
 444 97 444 97 487.5 69.5 c 128,-1,34
 531 42 531 42 587 42 c 0,35,36
 780 42 780 42 780 764 c 1,37,38
 776 766 776 766 757 774.5 c 128,-1,39
 738 783 738 783 731.5 786 c 128,-1,40
 725 789 725 789 708 798 c 128,-1,41
 691 807 691 807 684 812 c 128,-1,42
 677 817 677 817 664 826.5 c 128,-1,43
 651 836 651 836 645.5 844 c 128,-1,44
 640 852 640 852 633 862.5 c 128,-1,45
 626 873 626 873 623 884.5 c 128,-1,46
 620 896 620 896 620 909 c 0,47,48
 620 992 620 992 673 992 c 0,49,50
 696 992 696 992 743 984 c 128,-1,51
 790 976 790 976 809 976 c 1,0,1
2068 93 m 1,52,53
 2015 59 2015 59 1984.5 40 c 128,-1,54
 1954 21 1954 21 1896.5 -9 c 128,-1,55
 1839 -39 1839 -39 1792.5 -55 c 128,-1,56
 1746 -71 1746 -71 1683.5 -83.5 c 128,-1,57
 1621 -96 1621 -96 1558 -96 c 0,58,59
 1482 -96 1482 -96 1425 -62.5 c 128,-1,60
 1368 -29 1368 -29 1334.5 28 c 128,-1,61
 1301 85 1301 85 1277.5 155 c 128,-1,62
 1254 225 1254 225 1239 305 c 128,-1,63
 1224 385 1224 385 1210 457.5 c 128,-1,64
 1196 530 1196 530 1174.5 597.5 c 128,-1,65
 1153 665 1153 665 1124 705 c 0,66,67
 1099 739 1099 739 1063 739 c 2,68,-1
 1004 739 l 1,69,70
 997 660 997 660 993.5 625 c 128,-1,71
 990 590 990 590 981.5 514.5 c 128,-1,72
 973 439 973 439 966.5 400.5 c 128,-1,73
 960 362 960 362 948 295.5 c 128,-1,74
 936 229 936 229 923.5 190 c 128,-1,75
 911 151 911 151 893 97.5 c 128,-1,76
 875 44 875 44 854 8.5 c 128,-1,77
 833 -27 833 -27 806 -63.5 c 128,-1,78
 779 -100 779 -100 747 -127 c 0,79,80
 672 -192 672 -192 561 -192 c 0,81,82
 459 -192 459 -192 376 -148 c 128,-1,83
 293 -104 293 -104 237.5 -32 c 128,-1,84
 182 40 182 40 144.5 136.5 c 128,-1,85
 107 233 107 233 90.5 334 c 128,-1,86
 74 435 74 435 74 541 c 0,87,88
 74 760 74 760 139.5 952 c 128,-1,89
 205 1144 205 1144 320.5 1286.5 c 128,-1,90
 436 1429 436 1429 587.5 1530 c 128,-1,91
 739 1631 739 1631 918 1683 c 0,92,93
 1071 1728 1071 1728 1242 1728 c 0,94,95
 1363 1728 1363 1728 1471.5 1698 c 128,-1,96
 1580 1668 1580 1668 1666 1611.5 c 128,-1,97
 1752 1555 1752 1555 1803 1464.5 c 128,-1,98
 1854 1374 1854 1374 1854 1261 c 0,99,100
 1854 1184 1854 1184 1828.5 1116.5 c 128,-1,101
 1803 1049 1803 1049 1757.5 998 c 128,-1,102
 1712 947 1712 947 1652.5 907 c 128,-1,103
 1593 867 1593 867 1521.5 840 c 128,-1,104
 1450 813 1450 813 1375.5 796.5 c 128,-1,105
 1301 780 1301 780 1223 774 c 1,106,107
 1290 745 1290 745 1338.5 699.5 c 128,-1,108
 1387 654 1387 654 1419 587 c 128,-1,109
 1451 520 1451 520 1469.5 458.5 c 128,-1,110
 1488 397 1488 397 1508 303 c 0,111,112
 1516 266 1516 266 1522.5 244 c 128,-1,113
 1529 222 1529 222 1542 194 c 128,-1,114
 1555 166 1555 166 1576 152 c 128,-1,115
 1597 138 1597 138 1625 138 c 0,116,117
 1780 138 1780 138 1946 299 c 1,118,-1
 2068 93 l 1,52,53
EndSplineSet
EndChar

StartChar: S
Encoding: 83 83 54
Width: 1558
GlyphClass: 2
Flags: MW
LayerCount: 2
Fore
SplineSet
369 366 m 0,0,1
 369 305 369 305 392 256 c 128,-1,2
 415 207 415 207 454 175.5 c 128,-1,3
 493 144 493 144 547 123.5 c 128,-1,4
 601 103 601 103 659.5 94 c 128,-1,5
 718 85 718 85 784 85 c 0,6,7
 870 85 870 85 949.5 103.5 c 128,-1,8
 1029 122 1029 122 1093.5 155.5 c 128,-1,9
 1158 189 1158 189 1197 244 c 128,-1,10
 1236 299 1236 299 1236 366 c 0,11,12
 1236 416 1236 416 1220 460.5 c 128,-1,13
 1204 505 1204 505 1173 541 c 128,-1,14
 1142 577 1142 577 1108.5 606.5 c 128,-1,15
 1075 636 1075 636 1026.5 664 c 128,-1,16
 978 692 978 692 942 710.5 c 128,-1,17
 906 729 906 729 855.5 753 c 128,-1,18
 805 777 805 777 781 790 c 0,19,20
 629 874 629 874 581 906 c 0,21,22
 390 1034 390 1034 349 1198 c 0,23,24
 336 1249 336 1249 336 1304 c 0,25,26
 336 1396 336 1396 372.5 1472.5 c 128,-1,27
 409 1549 409 1549 471 1601.5 c 128,-1,28
 533 1654 533 1654 617 1690.5 c 128,-1,29
 701 1727 701 1727 794 1743.5 c 128,-1,30
 887 1760 887 1760 988 1760 c 0,31,32
 1093 1760 1093 1760 1192 1731 c 128,-1,33
 1291 1702 1291 1702 1369 1648.5 c 128,-1,34
 1447 1595 1447 1595 1494.5 1512 c 128,-1,35
 1542 1429 1542 1429 1542 1330 c 0,36,37
 1542 1266 1542 1266 1515 1198.5 c 128,-1,38
 1488 1131 1488 1131 1437.5 1082.5 c 128,-1,39
 1387 1034 1387 1034 1329 1034 c 0,40,41
 1297 1034 1297 1034 1279 1052.5 c 128,-1,42
 1261 1071 1261 1071 1261 1104 c 0,43,44
 1261 1147 1261 1147 1289 1216 c 128,-1,45
 1317 1285 1317 1285 1317 1331 c 0,46,47
 1317 1394 1317 1394 1284.5 1439 c 128,-1,48
 1252 1484 1252 1484 1196 1507.5 c 128,-1,49
 1140 1531 1140 1531 1079.5 1541 c 128,-1,50
 1019 1551 1019 1551 948 1551 c 0,51,52
 882 1551 882 1551 821 1538 c 128,-1,53
 760 1525 760 1525 708 1498.5 c 128,-1,54
 656 1472 656 1472 624.5 1427.5 c 128,-1,55
 593 1383 593 1383 593 1326 c 0,56,57
 593 1274 593 1274 617 1227 c 128,-1,58
 641 1180 641 1180 674.5 1147.5 c 128,-1,59
 708 1115 708 1115 762 1081.5 c 128,-1,60
 816 1048 816 1048 857 1029 c 128,-1,61
 898 1010 898 1010 957.5 983.5 c 128,-1,62
 1017 957 1017 957 1042 944 c 0,63,64
 1209 854 1209 854 1284 794 c 1,65,66
 1488 622 1488 622 1492 386 c 1,67,68
 1492 283 1492 283 1452.5 197 c 128,-1,69
 1413 111 1413 111 1344.5 52 c 128,-1,70
 1276 -7 1276 -7 1183.5 -48.5 c 128,-1,71
 1091 -90 1091 -90 987 -109 c 128,-1,72
 883 -128 883 -128 770 -128 c 0,73,74
 638 -128 638 -128 522.5 -98 c 128,-1,75
 407 -68 407 -68 314.5 -9.5 c 128,-1,76
 222 49 222 49 168 145.5 c 128,-1,77
 114 242 114 242 114 365 c 0,78,79
 114 469 114 469 171.5 546.5 c 128,-1,80
 229 624 229 624 319 624 c 0,81,82
 353 624 353 624 373.5 605.5 c 128,-1,83
 394 587 394 587 394 552 c 0,84,85
 394 521 394 521 381.5 462 c 128,-1,86
 369 403 369 403 369 366 c 0,0,1
EndSplineSet
EndChar

StartChar: T
Encoding: 84 84 55
Width: 1366
GlyphClass: 2
Flags: MW
LayerCount: 2
Fore
SplineSet
147 1232 m 0,0,1
 75 1232 75 1232 30.5 1265.5 c 128,-1,2
 -14 1299 -14 1299 -14 1360 c 0,3,4
 -14 1441 -14 1441 19.5 1504.5 c 128,-1,5
 53 1568 53 1568 102 1609 c 128,-1,6
 151 1650 151 1650 235 1679.5 c 128,-1,7
 319 1709 319 1709 391 1724 c 128,-1,8
 463 1739 463 1739 572.5 1747 c 128,-1,9
 682 1755 682 1755 753 1756.5 c 128,-1,10
 824 1758 824 1758 933 1758 c 0,11,12
 1431 1758 1431 1758 1835 1693 c 0,13,14
 1922 1679 1922 1679 1922 1599 c 0,15,16
 1922 1554 1922 1554 1888.5 1519 c 128,-1,17
 1855 1484 1855 1484 1812 1490 c 0,18,19
 1503 1529 1503 1529 983 1551 c 1,20,21
 813 778 813 778 653 82 c 1,22,23
 638 24 638 24 596 -25 c 128,-1,24
 554 -74 554 -74 498 -74 c 0,25,26
 438 -74 438 -74 402.5 -45.5 c 128,-1,27
 367 -17 367 -17 367 40 c 0,28,29
 367 61 367 61 373 82 c 0,30,31
 417 249 417 249 548.5 745.5 c 128,-1,32
 680 1242 680 1242 761 1551 c 1,33,34
 589 1538 589 1538 549 1531 c 0,35,36
 323 1497 323 1497 308 1378 c 0,37,38
 307 1369 307 1369 307 1360 c 0,39,40
 307 1299 307 1299 262.5 1265.5 c 128,-1,41
 218 1232 218 1232 147 1232 c 0,0,1
EndSplineSet
EndChar

StartChar: U
Encoding: 85 85 56
Width: 1592
GlyphClass: 2
Flags: MW
LayerCount: 2
Fore
SplineSet
442 578 m 0,0,1
 442 430 442 430 461 328.5 c 128,-1,2
 480 227 480 227 519 169.5 c 128,-1,3
 558 112 558 112 609 88 c 128,-1,4
 660 64 660 64 731 64 c 0,5,6
 830 64 830 64 914 125.5 c 128,-1,7
 998 187 998 187 1055.5 283 c 128,-1,8
 1113 379 1113 379 1160 518 c 128,-1,9
 1207 657 1207 657 1234.5 788 c 128,-1,10
 1262 919 1262 919 1283 1077 c 128,-1,11
 1304 1235 1304 1235 1313 1343 c 128,-1,12
 1322 1451 1322 1451 1328 1568 c 0,13,14
 1332 1650 1332 1650 1375 1689 c 128,-1,15
 1418 1728 1418 1728 1503 1728 c 0,16,17
 1565 1728 1565 1728 1590.5 1695 c 128,-1,18
 1616 1662 1616 1662 1616 1593 c 0,19,20
 1616 1080 1616 1080 1505 681.5 c 128,-1,21
 1394 283 1394 283 1160 48 c 0,22,23
 954 -160 954 -160 700 -160 c 0,24,25
 582 -160 582 -160 490.5 -120.5 c 128,-1,26
 399 -81 399 -81 340.5 -14 c 128,-1,27
 282 53 282 53 244.5 150 c 128,-1,28
 207 247 207 247 191.5 354 c 128,-1,29
 176 461 176 461 176 588 c 0,30,31
 176 989 176 989 346 1472 c 0,32,33
 356 1502 356 1502 360.5 1514 c 128,-1,34
 365 1526 365 1526 376 1550 c 128,-1,35
 387 1574 387 1574 396.5 1584.5 c 128,-1,36
 406 1595 406 1595 421 1608.5 c 128,-1,37
 436 1622 436 1622 455.5 1627 c 128,-1,38
 475 1632 475 1632 500 1632 c 0,39,40
 531 1632 531 1632 551 1630.5 c 128,-1,41
 571 1629 571 1629 593 1623.5 c 128,-1,42
 615 1618 615 1618 627.5 1608.5 c 128,-1,43
 640 1599 640 1599 648.5 1581 c 128,-1,44
 657 1563 657 1563 657 1537 c 2,45,-1
 657 1529 l 1,46,47
 640 1434 640 1434 601 1305.5 c 128,-1,48
 562 1177 562 1177 528.5 1077 c 128,-1,49
 495 977 495 977 468.5 841 c 128,-1,50
 442 705 442 705 442 578 c 0,0,1
EndSplineSet
EndChar

StartChar: V
Encoding: 86 86 57
Width: 1236
GlyphClass: 2
Flags: MW
LayerCount: 2
Fore
SplineSet
402 -33 m 0,0,1
 359 -33 359 -33 325 -21 c 128,-1,2
 291 -9 291 -9 268 10.5 c 128,-1,3
 245 30 245 30 228.5 61.5 c 128,-1,4
 212 93 212 93 203 124 c 128,-1,5
 194 155 194 155 188.5 198.5 c 128,-1,6
 183 242 183 242 181.5 278.5 c 128,-1,7
 180 315 180 315 180 363 c 0,8,9
 180 383 180 383 180.5 422 c 128,-1,10
 181 461 181 461 181 480 c 0,11,12
 181 632 181 632 151 952.5 c 128,-1,13
 121 1273 121 1273 121 1436 c 0,14,15
 121 1519 121 1519 154 1559 c 128,-1,16
 187 1599 187 1599 262 1599 c 0,17,18
 330 1599 330 1599 355 1563 c 128,-1,19
 380 1527 380 1527 383 1449 c 2,20,-1
 427 260 l 1,21,-1
 1078 1510 l 1,22,23
 1093 1562 1093 1562 1142.5 1596 c 128,-1,24
 1192 1630 1192 1630 1256 1630 c 0,25,26
 1294 1630 1294 1630 1313.5 1597 c 128,-1,27
 1333 1564 1333 1564 1333 1516 c 0,28,29
 1333 1477 1333 1477 1324.5 1435 c 128,-1,30
 1316 1393 1316 1393 1297.5 1348 c 128,-1,31
 1279 1303 1279 1303 1264.5 1272 c 128,-1,32
 1250 1241 1250 1241 1224.5 1192 c 128,-1,33
 1199 1143 1199 1143 1190 1124 c 0,34,35
 1075 888 1075 888 922 608 c 0,36,37
 898 562 898 562 898 510 c 0,38,39
 898 412 898 412 970 361.5 c 128,-1,40
 1042 311 1042 311 1155 311 c 0,41,42
 1178 311 1178 311 1204 321 c 128,-1,43
 1230 331 1230 331 1243 339.5 c 128,-1,44
 1256 348 1256 348 1285 369.5 c 128,-1,45
 1314 391 1314 391 1317 393 c 0,46,47
 1368 431 1368 431 1416 475 c 1,48,-1
 1393 268 l 1,49,50
 1311 203 1311 203 1234 163 c 128,-1,51
 1157 123 1157 123 1073 123 c 0,52,53
 942 123 942 123 865 190.5 c 128,-1,54
 788 258 788 258 788 383 c 0,55,56
 788 414 788 414 794 448 c 1,57,58
 791 442 791 442 771.5 395 c 128,-1,59
 752 348 752 348 747.5 338.5 c 128,-1,60
 743 329 743 329 724 287 c 128,-1,61
 705 245 705 245 697.5 231.5 c 128,-1,62
 690 218 690 218 671 183 c 128,-1,63
 652 148 652 148 640.5 133 c 128,-1,64
 629 118 629 118 609 91 c 128,-1,65
 589 64 589 64 572.5 49.5 c 128,-1,66
 556 35 556 35 534.5 18.5 c 128,-1,67
 513 2 513 2 491 -10 c 0,68,69
 448 -33 448 -33 402 -33 c 0,0,1
EndSplineSet
EndChar

StartChar: W
Encoding: 87 87 58
Width: 2239
GlyphClass: 2
Flags: MW
LayerCount: 2
Fore
SplineSet
2039 549 m 0,0,1
 2039 397 2039 397 2129 397 c 0,2,3
 2184 397 2184 397 2268.5 455 c 128,-1,4
 2353 513 2353 513 2413 575 c 0,5,6
 2444 606 2444 606 2461 606 c 0,7,8
 2484 606 2484 606 2484 554 c 0,9,10
 2484 526 2484 526 2478 487 c 128,-1,11
 2472 448 2472 448 2466 423 c 2,12,-1
 2460 398 l 1,13,14
 2396 322 2396 322 2279 245 c 128,-1,15
 2162 168 2162 168 2070 168 c 0,16,17
 1992 168 1992 168 1951 188 c 128,-1,18
 1910 208 1910 208 1898 268 c 1,19,20
 1866 208 1866 208 1834 160.5 c 128,-1,21
 1802 113 1802 113 1756 63 c 128,-1,22
 1710 13 1710 13 1659.5 -20.5 c 128,-1,23
 1609 -54 1609 -54 1541.5 -75 c 128,-1,24
 1474 -96 1474 -96 1398 -96 c 0,25,26
 1073 -96 1073 -96 1051 459 c 1,27,28
 1019 341 1019 341 975.5 246 c 128,-1,29
 932 151 932 151 869 70 c 128,-1,30
 806 -11 806 -11 718.5 -56 c 128,-1,31
 631 -101 631 -101 526 -101 c 0,32,33
 431 -101 431 -101 359 -72.5 c 128,-1,34
 287 -44 287 -44 241 5.5 c 128,-1,35
 195 55 195 55 166.5 128 c 128,-1,36
 138 201 138 201 126.5 281.5 c 128,-1,37
 115 362 115 362 115 462 c 0,38,39
 115 700 115 700 184 983.5 c 128,-1,40
 253 1267 253 1267 321 1432 c 0,41,42
 324 1440 324 1440 333.5 1464 c 128,-1,43
 343 1488 343 1488 347 1497 c 128,-1,44
 351 1506 351 1506 361 1526.5 c 128,-1,45
 371 1547 371 1547 377.5 1556 c 128,-1,46
 384 1565 384 1565 395.5 1580 c 128,-1,47
 407 1595 407 1595 418.5 1602 c 128,-1,48
 430 1609 430 1609 445.5 1617.5 c 128,-1,49
 461 1626 461 1626 479 1629 c 128,-1,50
 497 1632 497 1632 518 1632 c 0,51,52
 627 1632 627 1632 627 1567 c 0,53,54
 627 1556 627 1556 624 1544 c 0,55,56
 598 1440 598 1440 502 1099 c 1,57,58
 386 695 386 695 386 426 c 0,59,60
 386 294 386 294 427.5 212 c 128,-1,61
 469 130 469 130 550 130 c 0,62,63
 592 130 592 130 631.5 151 c 128,-1,64
 671 172 671 172 701.5 203.5 c 128,-1,65
 732 235 732 235 762.5 286 c 128,-1,66
 793 337 793 337 813.5 381.5 c 128,-1,67
 834 426 834 426 857 489 c 128,-1,68
 880 552 880 552 892 592 c 128,-1,69
 904 632 904 632 921.5 690.5 c 128,-1,70
 939 749 939 749 945 768 c 0,71,72
 1022 1015 1022 1015 1094 1377 c 0,73,74
 1113 1473 1113 1473 1153.5 1520.5 c 128,-1,75
 1194 1568 1194 1568 1286 1568 c 0,76,77
 1347 1568 1347 1568 1380.5 1547 c 128,-1,78
 1414 1526 1414 1526 1414 1475 c 0,79,80
 1414 1425 1414 1425 1404.5 1362.5 c 128,-1,81
 1395 1300 1395 1300 1379.5 1222.5 c 128,-1,82
 1364 1145 1364 1145 1358 1102 c 0,83,84
 1303 707 1303 707 1303 477 c 0,85,86
 1303 428 1303 428 1304 399.5 c 128,-1,87
 1305 371 1305 371 1308 324.5 c 128,-1,88
 1311 278 1311 278 1319.5 250 c 128,-1,89
 1328 222 1328 222 1342 193 c 128,-1,90
 1356 164 1356 164 1379.5 150 c 128,-1,91
 1403 136 1403 136 1434 136 c 0,92,93
 1492 136 1492 136 1546 191.5 c 128,-1,94
 1600 247 1600 247 1640.5 334 c 128,-1,95
 1681 421 1681 421 1718.5 542.5 c 128,-1,96
 1756 664 1756 664 1781.5 781.5 c 128,-1,97
 1807 899 1807 899 1830 1031.5 c 128,-1,98
 1853 1164 1853 1164 1865.5 1256 c 128,-1,99
 1878 1348 1878 1348 1889 1435.5 c 128,-1,100
 1900 1523 1900 1523 1902 1536 c 0,101,102
 1914 1616 1914 1616 1947.5 1640 c 128,-1,103
 1981 1664 1981 1664 2070 1664 c 0,104,105
 2182 1664 2182 1664 2182 1559 c 0,106,107
 2182 1422 2182 1422 2143.5 1166.5 c 128,-1,108
 2105 911 2105 911 2056 692 c 0,109,110
 2039 616 2039 616 2039 549 c 0,0,1
EndSplineSet
EndChar

StartChar: X
Encoding: 88 88 59
Width: 1536
GlyphClass: 2
Flags: MW
LayerCount: 2
Fore
SplineSet
140 -105 m 0,0,1
 78 -105 78 -105 40.5 -80 c 128,-1,2
 3 -55 3 -55 3 -5 c 0,3,4
 3 16 3 16 8.5 35.5 c 128,-1,5
 14 55 14 55 28.5 78 c 128,-1,6
 43 101 43 101 51.5 113 c 128,-1,7
 60 125 60 125 82.5 151.5 c 128,-1,8
 105 178 105 178 110 184 c 0,9,10
 218 318 218 318 423 568.5 c 128,-1,11
 628 819 628 819 696 903 c 1,12,-1
 687 934 l 1,13,14
 656 1140 656 1140 629 1229 c 0,15,16
 555 1472 555 1472 390 1472 c 0,17,18
 327 1472 327 1472 208 1244 c 0,19,20
 192 1214 192 1214 178 1214 c 0,21,22
 147 1214 147 1214 130.5 1294 c 128,-1,23
 114 1374 114 1374 114 1436 c 0,24,25
 114 1572 114 1572 182.5 1650 c 128,-1,26
 251 1728 251 1728 380 1728 c 0,27,28
 457 1728 457 1728 522.5 1710 c 128,-1,29
 588 1692 588 1692 637.5 1662 c 128,-1,30
 687 1632 687 1632 728.5 1585.5 c 128,-1,31
 770 1539 770 1539 799 1489 c 128,-1,32
 828 1439 828 1439 852.5 1374 c 128,-1,33
 877 1309 877 1309 893.5 1249 c 128,-1,34
 910 1189 910 1189 925 1116 c 1,35,36
 1139 1441 1139 1441 1360 1622 c 0,37,38
 1397 1652 1397 1652 1413.5 1664.5 c 128,-1,39
 1430 1677 1430 1677 1465.5 1693.5 c 128,-1,40
 1501 1710 1501 1710 1531 1710 c 0,41,42
 1579 1710 1579 1710 1612 1666 c 128,-1,43
 1645 1622 1645 1622 1658 1565.5 c 128,-1,44
 1671 1509 1671 1509 1671 1450 c 0,45,46
 1671 1359 1671 1359 1620.5 1308 c 128,-1,47
 1570 1257 1570 1257 1481 1257 c 0,48,49
 1461 1257 1461 1257 1461 1324 c 2,50,-1
 1461 1350 l 2,51,52
 1461 1412 1461 1412 1443 1412 c 0,53,54
 1423 1412 1423 1412 1401 1401 c 128,-1,55
 1379 1390 1379 1390 1357 1368 c 128,-1,56
 1335 1346 1335 1346 1320 1329 c 128,-1,57
 1305 1312 1305 1312 1283.5 1284.5 c 128,-1,58
 1262 1257 1262 1257 1256 1250 c 0,59,60
 1151 1124 1151 1124 1000 901 c 1,61,62
 1026 803 1026 803 1064.5 618 c 128,-1,63
 1103 433 1103 433 1124 350 c 0,64,65
 1132 316 1132 316 1140 292.5 c 128,-1,66
 1148 269 1148 269 1162 242 c 128,-1,67
 1176 215 1176 215 1192.5 198 c 128,-1,68
 1209 181 1209 181 1235.5 170 c 128,-1,69
 1262 159 1262 159 1295 159 c 0,70,71
 1334 159 1334 159 1371.5 176 c 128,-1,72
 1409 193 1409 193 1436 214.5 c 128,-1,73
 1463 236 1463 236 1496.5 277 c 128,-1,74
 1530 318 1530 318 1547 343 c 128,-1,75
 1564 368 1564 368 1595 416 c 1,76,77
 1610 431 1610 431 1629 431 c 0,78,79
 1667 431 1667 431 1695.5 392 c 128,-1,80
 1724 353 1724 353 1724 310 c 0,81,82
 1724 284 1724 284 1702 257 c 0,83,84
 1608 147 1608 147 1515.5 70.5 c 128,-1,85
 1423 -6 1423 -6 1314 -44 c 0,86,87
 1258 -64 1258 -64 1207 -64 c 0,88,89
 1134 -64 1134 -64 1076.5 -36 c 128,-1,90
 1019 -8 1019 -8 985.5 24.5 c 128,-1,91
 952 57 952 57 921 128.5 c 128,-1,92
 890 200 890 200 878 240 c 128,-1,93
 866 280 866 280 844 370 c 0,94,95
 839 391 839 391 836 401 c 0,96,97
 804 532 804 532 774 671 c 1,98,-1
 572 368 l 2,99,100
 373 70 373 70 302 -31 c 0,101,102
 279 -63 279 -63 234.5 -84 c 128,-1,103
 190 -105 190 -105 140 -105 c 0,0,1
EndSplineSet
EndChar

StartChar: Y
Encoding: 89 89 60
Width: 1461
GlyphClass: 2
Flags: MW
LayerCount: 2
Fore
SplineSet
18 1151 m 0,0,1
 15 1151 15 1151 3 1161 c 128,-1,2
 -9 1171 -9 1171 -26.5 1189.5 c 128,-1,3
 -44 1208 -44 1208 -60.5 1232 c 128,-1,4
 -77 1256 -77 1256 -89 1288.5 c 128,-1,5
 -101 1321 -101 1321 -101 1353 c 0,6,7
 -101 1424 -101 1424 -53 1491 c 128,-1,8
 -5 1558 -5 1558 72.5 1599.5 c 128,-1,9
 150 1641 150 1641 231 1641 c 0,10,11
 321 1641 321 1641 399 1624.5 c 128,-1,12
 477 1608 477 1608 536 1580.5 c 128,-1,13
 595 1553 595 1553 647 1510 c 128,-1,14
 699 1467 699 1467 735 1424.5 c 128,-1,15
 771 1382 771 1382 805 1324 c 128,-1,16
 839 1266 839 1266 861 1219 c 128,-1,17
 883 1172 883 1172 907 1110 c 2,18,-1
 1023 816 l 1,19,20
 1094 956 1094 956 1219 1224.5 c 128,-1,21
 1344 1493 1344 1493 1400 1607 c 0,22,23
 1412 1631 1412 1631 1447 1646 c 128,-1,24
 1482 1661 1482 1661 1522 1661 c 0,25,26
 1574 1661 1574 1661 1604 1631.5 c 128,-1,27
 1634 1602 1634 1602 1634 1550 c 0,28,29
 1634 1511 1634 1511 1621.5 1474 c 128,-1,30
 1609 1437 1609 1437 1580.5 1383.5 c 128,-1,31
 1552 1330 1552 1330 1543 1310 c 0,32,33
 1477 1163 1477 1163 1430 1062 c 128,-1,34
 1383 961 1383 961 1313 818 c 128,-1,35
 1243 675 1243 675 1180 565.5 c 128,-1,36
 1117 456 1117 456 1041.5 337.5 c 128,-1,37
 966 219 966 219 884 119.5 c 128,-1,38
 802 20 802 20 717 -60 c 0,39,40
 663 -111 663 -111 604.5 -137 c 128,-1,41
 546 -163 546 -163 463 -163 c 0,42,43
 403 -163 403 -163 333.5 -135 c 128,-1,44
 264 -107 264 -107 215 -60.5 c 128,-1,45
 166 -14 166 -14 166 34 c 0,46,47
 166 77 166 77 196.5 104.5 c 128,-1,48
 227 132 227 132 273 132 c 0,49,50
 296 132 296 132 318 111.5 c 128,-1,51
 340 91 340 91 355 66.5 c 128,-1,52
 370 42 370 42 392.5 21.5 c 128,-1,53
 415 1 415 1 439 1 c 0,54,55
 485 1 485 1 547 60.5 c 128,-1,56
 609 120 609 120 669 212 c 128,-1,57
 729 304 729 304 782 404.5 c 128,-1,58
 835 505 835 505 873 597 c 1,59,60
 863 618 863 618 839 667 c 0,61,62
 800 749 800 749 776.5 796.5 c 128,-1,63
 753 844 753 844 704 934.5 c 128,-1,64
 655 1025 655 1025 617 1082 c 128,-1,65
 579 1139 579 1139 522.5 1211.5 c 128,-1,66
 466 1284 466 1284 415.5 1325.5 c 128,-1,67
 365 1367 365 1367 302.5 1397 c 128,-1,68
 240 1427 240 1427 180 1427 c 0,69,70
 130 1427 130 1427 96 1383 c 128,-1,71
 62 1339 62 1339 62 1297 c 0,72,73
 62 1293 62 1293 63 1284 c 128,-1,74
 64 1275 64 1275 64 1268 c 0,75,76
 64 1227 64 1227 52 1189 c 128,-1,77
 40 1151 40 1151 18 1151 c 0,0,1
EndSplineSet
EndChar

StartChar: Z
Encoding: 90 90 61
Width: 1265
GlyphClass: 2
Flags: MW
LayerCount: 2
Fore
SplineSet
958 1312 m 1,0,1
 942 1312 942 1312 909.5 1311 c 128,-1,2
 877 1310 877 1310 860 1310 c 0,3,4
 821 1310 821 1310 781 1313 c 128,-1,5
 741 1316 741 1316 714.5 1319.5 c 128,-1,6
 688 1323 688 1323 646 1331.5 c 128,-1,7
 604 1340 604 1340 588.5 1344 c 128,-1,8
 573 1348 573 1348 526 1360 c 128,-1,9
 479 1372 479 1372 470 1374 c 1,10,11
 447 1382 447 1382 423 1382 c 0,12,13
 384 1382 384 1382 355.5 1353.5 c 128,-1,14
 327 1325 327 1325 310 1284.5 c 128,-1,15
 293 1244 293 1244 276 1204 c 128,-1,16
 259 1164 259 1164 232.5 1135.5 c 128,-1,17
 206 1107 206 1107 169 1107 c 0,18,19
 134 1107 134 1107 134 1168 c 0,20,21
 134 1234 134 1234 145.5 1299.5 c 128,-1,22
 157 1365 157 1365 181 1425.5 c 128,-1,23
 205 1486 205 1486 239.5 1532 c 128,-1,24
 274 1578 274 1578 324 1605.5 c 128,-1,25
 374 1633 374 1633 433 1633 c 0,26,27
 522 1633 522 1633 664.5 1590.5 c 128,-1,28
 807 1548 807 1548 895 1547 c 0,29,30
 920 1546 920 1546 964 1546 c 2,31,-1
 1026 1546 l 2,32,33
 1085 1546 1085 1546 1175.5 1552 c 128,-1,34
 1266 1558 1266 1558 1305 1558 c 0,35,36
 1384 1558 1384 1558 1384 1454 c 0,37,38
 1384 1406 1384 1406 1370.5 1383 c 128,-1,39
 1357 1360 1357 1360 1321 1340 c 1,40,41
 892 973 892 973 508 405 c 1,42,43
 478 355 478 355 468 342 c 1,44,-1
 463 319 l 1,45,46
 499 319 499 319 551 292.5 c 128,-1,47
 603 266 603 266 659.5 239.5 c 128,-1,48
 716 213 716 213 761 213 c 0,49,50
 818 213 818 213 873.5 219.5 c 128,-1,51
 929 226 929 226 966 232.5 c 128,-1,52
 1003 239 1003 239 1055 256 c 128,-1,53
 1107 273 1107 273 1128.5 281 c 128,-1,54
 1150 289 1150 289 1206 312.5 c 128,-1,55
 1262 336 1262 336 1277 342 c 1,56,57
 1305 358 1305 358 1321 358 c 0,58,59
 1367 358 1367 358 1401 317 c 128,-1,60
 1435 276 1435 276 1435 227 c 0,61,62
 1435 187 1435 187 1417 172 c 1,63,64
 1287 87 1287 87 1121 28.5 c 128,-1,65
 955 -30 955 -30 773 -30 c 0,66,67
 741 -30 741 -30 702.5 -20.5 c 128,-1,68
 664 -11 664 -11 639.5 -1.5 c 128,-1,69
 615 8 615 8 568.5 28.5 c 128,-1,70
 522 49 522 49 506 56 c 0,71,72
 440 83 440 83 328 135 c 1,73,74
 231 51 231 51 134 51 c 0,75,76
 81 51 81 51 47 78.5 c 128,-1,77
 13 106 13 106 13 156 c 0,78,79
 13 176 13 176 19 196.5 c 128,-1,80
 25 217 25 217 29.5 229.5 c 128,-1,81
 34 242 34 242 50.5 264.5 c 128,-1,82
 67 287 67 287 71.5 292.5 c 128,-1,83
 76 298 76 298 99.5 324 c 128,-1,84
 123 350 123 350 124 352 c 2,85,-1
 958 1312 l 1,0,1
EndSplineSet
EndChar

StartChar: bracketleft
Encoding: 91 91 62
Width: 927
GlyphClass: 2
Flags: MW
LayerCount: 2
Fore
SplineSet
353 -192 m 2,0,1
 176 -192 176 -192 176 -53 c 0,2,3
 176 -3 176 -3 184.5 47 c 128,-1,4
 193 97 193 97 207.5 159 c 128,-1,5
 222 221 222 221 228 258 c 0,6,7
 261 455 261 455 311.5 842.5 c 128,-1,8
 362 1230 362 1230 392 1415 c 0,9,10
 412 1536 412 1536 476.5 1601.5 c 128,-1,11
 541 1667 541 1667 672 1667 c 2,12,-1
 990 1667 l 2,13,14
 1033 1667 1033 1667 1060.5 1636 c 128,-1,15
 1088 1605 1088 1605 1088 1561 c 0,16,17
 1088 1515 1088 1515 1047 1479 c 128,-1,18
 1006 1443 1006 1443 958 1443 c 2,19,-1
 672 1443 l 1,20,21
 672 1343 672 1343 654 1222 c 128,-1,22
 636 1101 636 1101 606.5 952.5 c 128,-1,23
 577 804 577 804 566 730 c 0,24,25
 502 299 502 299 459 32 c 1,26,-1
 745 32 l 2,27,28
 780 32 780 32 804 8 c 128,-1,29
 828 -16 828 -16 828 -51 c 0,30,31
 828 -102 828 -102 777 -147 c 128,-1,32
 726 -192 726 -192 671 -192 c 2,33,-1
 353 -192 l 2,0,1
EndSplineSet
EndChar

StartChar: backslash
Encoding: 92 92 63
Width: 1248
GlyphClass: 2
Flags: MW
LayerCount: 2
Fore
SplineSet
155 1743 m 0,0,1
 155 1798 155 1798 185 1831 c 128,-1,2
 215 1864 215 1864 267 1864 c 0,3,4
 301 1864 301 1864 329.5 1851 c 128,-1,5
 358 1838 358 1838 376.5 1820.5 c 128,-1,6
 395 1803 395 1803 413 1771.5 c 128,-1,7
 431 1740 431 1740 441 1716.5 c 128,-1,8
 451 1693 451 1693 466 1655 c 128,-1,9
 481 1617 481 1617 489 1598 c 0,10,11
 867 758 867 758 1120 197 c 1,12,13
 1159 105 1159 105 1159 55 c 0,14,15
 1159 9 1159 9 1130 -15 c 128,-1,16
 1101 -39 1101 -39 1053 -39 c 0,17,18
 990 -39 990 -39 940 -10 c 128,-1,19
 890 19 890 19 867 64 c 0,20,21
 718 358 718 358 481 924.5 c 128,-1,22
 244 1491 244 1491 185 1622 c 0,23,24
 155 1687 155 1687 155 1743 c 0,0,1
EndSplineSet
EndChar

StartChar: bracketright
Encoding: 93 93 64
Width: 927
GlyphClass: 2
Flags: MW
LayerCount: 2
Fore
SplineSet
735 1667 m 2,0,1
 912 1667 912 1667 912 1528 c 0,2,3
 912 1478 912 1478 903.5 1428.5 c 128,-1,4
 895 1379 895 1379 880.5 1317 c 128,-1,5
 866 1255 866 1255 860 1218 c 0,6,7
 825 1017 825 1017 775 627.5 c 128,-1,8
 725 238 725 238 696 60 c 0,9,10
 676 -61 676 -61 611.5 -126.5 c 128,-1,11
 547 -192 547 -192 416 -192 c 2,12,-1
 108 -192 l 2,13,14
 63 -192 63 -192 31.5 -158.5 c 128,-1,15
 0 -125 0 -125 0 -80 c 0,16,17
 0 -37 0 -37 37.5 -2.5 c 128,-1,18
 75 32 75 32 119 32 c 2,19,-1
 416 32 l 1,20,21
 416 132 416 132 434 253 c 128,-1,22
 452 374 452 374 481.5 522.5 c 128,-1,23
 511 671 511 671 522 745 c 0,24,25
 586 1176 586 1176 629 1443 c 1,26,-1
 369 1443 l 2,27,28
 328 1443 328 1443 296 1473.5 c 128,-1,29
 264 1504 264 1504 264 1544 c 0,30,31
 264 1592 264 1592 302 1629.5 c 128,-1,32
 340 1667 340 1667 389 1667 c 2,33,-1
 735 1667 l 2,0,1
EndSplineSet
EndChar

StartChar: asciicircum
Encoding: 94 94 65
Width: 1089
GlyphClass: 2
Flags: MW
LayerCount: 2
Fore
SplineSet
194 511 m 1,0,1
 198 507 198 507 198 504 c 1,2,3
 198 504 198 504 197 504 c 0,4,5
 183 504 183 504 138 546 c 128,-1,6
 93 588 93 588 93 621 c 0,7,8
 93 657 93 657 107 692 c 128,-1,9
 121 727 121 727 149.5 772 c 128,-1,10
 178 817 178 817 186 832 c 0,11,12
 283 1018 283 1018 344 1132 c 0,13,14
 397 1233 397 1233 421 1263 c 0,15,16
 483 1344 483 1344 567 1344 c 0,17,18
 649 1344 649 1344 698 1303.5 c 128,-1,19
 747 1263 747 1263 785 1189 c 0,20,21
 924 915 924 915 1013 680 c 0,22,23
 1023 655 1023 655 1023 622 c 0,24,25
 1023 578 1023 578 997.5 543 c 128,-1,26
 972 508 972 508 933 508 c 0,27,28
 883 508 883 508 845 548.5 c 128,-1,29
 807 589 807 589 784 642 c 2,30,-1
 578 1124 l 1,31,-1
 318 603 l 1,32,33
 267 511 267 511 194 511 c 1,0,1
EndSplineSet
EndChar

StartChar: underscore
Encoding: 95 95 66
Width: 1248
GlyphClass: 2
Flags: MW
LayerCount: 2
Fore
SplineSet
128 0 m 2,0,1
 70 0 70 0 32 27.5 c 128,-1,2
 -6 55 -6 55 -6 108 c 0,3,4
 -6 147 -6 147 14.5 172 c 128,-1,5
 35 197 35 197 75 207.5 c 128,-1,6
 115 218 115 218 149 221 c 128,-1,7
 183 224 183 224 236 224 c 2,8,-1
 496 224 l 2,9,10
 552 224 552 224 673.5 224.5 c 128,-1,11
 795 225 795 225 853 225 c 2,12,-1
 1184 225 l 2,13,14
 1266 225 1266 225 1266 163 c 0,15,16
 1266 116 1266 116 1247.5 83 c 128,-1,17
 1229 50 1229 50 1193.5 32.5 c 128,-1,18
 1158 15 1158 15 1116.5 7.5 c 128,-1,19
 1075 0 1075 0 1020 0 c 2,20,-1
 128 0 l 2,0,1
EndSplineSet
EndChar

StartChar: grave
Encoding: 96 96 67
Width: 609
GlyphClass: 2
Flags: MW
LayerCount: 2
Fore
SplineSet
64 1574 m 0,0,1
 64 1632 64 1632 107 1671 c 128,-1,2
 150 1710 150 1710 209 1710 c 0,3,4
 276 1710 276 1710 304 1646 c 0,5,6
 326 1596 326 1596 364.5 1504.5 c 128,-1,7
 403 1413 403 1413 434 1341.5 c 128,-1,8
 465 1270 465 1270 496 1203 c 0,9,10
 506 1183 506 1183 506 1155 c 128,-1,11
 506 1127 506 1127 490 1107.5 c 128,-1,12
 474 1088 474 1088 448 1088 c 0,13,14
 424 1088 424 1088 400.5 1104 c 128,-1,15
 377 1120 377 1120 363 1137 c 128,-1,16
 349 1154 349 1154 329 1182.5 c 128,-1,17
 309 1211 309 1211 302 1220 c 0,18,19
 176 1374 176 1374 101 1477 c 0,20,21
 64 1529 64 1529 64 1574 c 0,0,1
EndSplineSet
EndChar

StartChar: a
Encoding: 97 97 68
Width: 928
GlyphClass: 2
Flags: MW
LayerCount: 2
Fore
SplineSet
320 324 m 0,0,1
 320 192 320 192 398 192 c 0,2,3
 513 192 513 192 570 474 c 1,4,-1
 631 768 l 1,5,6
 543 768 543 768 469 694.5 c 128,-1,7
 395 621 395 621 357.5 520 c 128,-1,8
 320 419 320 419 320 324 c 0,0,1
800 324 m 0,9,10
 800 301 800 301 801 287 c 128,-1,11
 802 273 802 273 806 256.5 c 128,-1,12
 810 240 810 240 820 232 c 128,-1,13
 830 224 830 224 845 224 c 0,14,15
 867 224 867 224 889 231 c 128,-1,16
 911 238 911 238 933.5 256.5 c 128,-1,17
 956 275 956 275 969.5 286 c 128,-1,18
 983 297 983 297 1006.5 326.5 c 128,-1,19
 1030 356 1030 356 1035 362.5 c 128,-1,20
 1040 369 1040 369 1062 399 c 1,21,22
 1084 424 1084 424 1103 424 c 0,23,24
 1131 424 1131 424 1149.5 379 c 128,-1,25
 1168 334 1168 334 1168 287 c 0,26,27
 1168 262 1168 262 1162 250 c 1,28,29
 992 0 992 0 813 0 c 0,30,31
 740 0 740 0 698.5 42 c 128,-1,32
 657 84 657 84 627 161 c 1,33,34
 570 95 570 95 489 47.5 c 128,-1,35
 408 0 408 0 315 0 c 0,36,37
 201 0 201 0 132.5 80 c 128,-1,38
 64 160 64 160 64 281 c 0,39,40
 64 391 64 391 97.5 496 c 128,-1,41
 131 601 131 601 187 683.5 c 128,-1,42
 243 766 243 766 315.5 829 c 128,-1,43
 388 892 388 892 468 928 c 0,44,45
 534 958 534 958 603 958 c 0,46,47
 627 958 627 958 644.5 946 c 128,-1,48
 662 934 662 934 671 920 c 128,-1,49
 680 906 680 906 699.5 894 c 128,-1,50
 719 882 719 882 747 882 c 0,51,52
 754 882 754 882 769 882.5 c 128,-1,53
 784 883 784 883 792 883 c 0,54,55
 833 883 833 883 848.5 860 c 128,-1,56
 864 837 864 837 864 790 c 0,57,58
 864 709 864 709 832 558 c 128,-1,59
 800 407 800 407 800 324 c 0,9,10
EndSplineSet
Substitution2: "Single Substitution lookup 3 subtable" a.fina
EndChar

StartChar: b
Encoding: 98 98 69
Width: 964
GlyphClass: 2
Flags: MW
LayerCount: 2
Fore
SplineSet
346 895 m 1,0,1
 377 954 377 954 443.5 1060.5 c 128,-1,2
 510 1167 510 1167 552.5 1240 c 128,-1,3
 595 1313 595 1313 630.5 1425 c 128,-1,4
 666 1537 666 1537 666 1648 c 0,5,6
 666 1678 666 1678 653 1703 c 128,-1,7
 640 1728 640 1728 615 1728 c 0,8,9
 583 1728 583 1728 552 1689.5 c 128,-1,10
 521 1651 521 1651 496.5 1583.5 c 128,-1,11
 472 1516 472 1516 450.5 1440 c 128,-1,12
 429 1364 429 1364 411.5 1273.5 c 128,-1,13
 394 1183 394 1183 382 1115.5 c 128,-1,14
 370 1048 370 1048 359.5 979.5 c 128,-1,15
 349 911 349 911 346 895 c 1,0,1
698 607 m 0,16,17
 698 732 698 732 568 732 c 0,18,19
 507 732 507 732 462 699 c 128,-1,20
 417 666 417 666 393 627 c 128,-1,21
 369 588 369 588 351.5 509.5 c 128,-1,22
 334 431 334 431 329 389 c 128,-1,23
 324 347 324 347 317 258 c 0,24,25
 315 236 315 236 314 225 c 1,26,27
 421 192 421 192 502 192 c 0,28,29
 555 192 555 192 595.5 233.5 c 128,-1,30
 636 275 636 275 657 341.5 c 128,-1,31
 678 408 678 408 688 475 c 128,-1,32
 698 542 698 542 698 607 c 0,16,17
858 1591 m 0,33,34
 858 1543 858 1543 850.5 1494 c 128,-1,35
 843 1445 843 1445 832.5 1403.5 c 128,-1,36
 822 1362 822 1362 801 1314 c 128,-1,37
 780 1266 780 1266 764 1232 c 128,-1,38
 748 1198 748 1198 717.5 1151 c 128,-1,39
 687 1104 687 1104 669.5 1077 c 128,-1,40
 652 1050 652 1050 615.5 1004 c 128,-1,41
 579 958 579 958 563.5 938.5 c 128,-1,42
 548 919 548 919 510 874 c 128,-1,43
 472 829 472 829 462 816 c 1,44,-1
 478 805 l 1,45,46
 481 809 481 809 499 832.5 c 128,-1,47
 517 856 517 856 524 863.5 c 128,-1,48
 531 871 531 871 548.5 891 c 128,-1,49
 566 911 566 911 577.5 919.5 c 128,-1,50
 589 928 589 928 605.5 939.5 c 128,-1,51
 622 951 622 951 639 955.5 c 128,-1,52
 656 960 656 960 673 960 c 0,53,54
 760 960 760 960 818 911 c 128,-1,55
 876 862 876 862 900 787.5 c 128,-1,56
 924 713 924 713 924 618 c 0,57,58
 924 407 924 407 826 288 c 1,59,60
 834 292 834 292 867.5 311 c 128,-1,61
 901 330 901 330 910.5 335.5 c 128,-1,62
 920 341 920 341 949 358 c 128,-1,63
 978 375 978 375 990.5 383 c 128,-1,64
 1003 391 1003 391 1027 407 c 128,-1,65
 1051 423 1051 423 1066.5 435.5 c 128,-1,66
 1082 448 1082 448 1101 464 c 128,-1,67
 1120 480 1120 480 1137 496 c 1,68,69
 1150 503 1150 503 1163 503 c 0,70,71
 1193 503 1193 503 1214 473.5 c 128,-1,72
 1235 444 1235 444 1235 406 c 0,73,74
 1235 360 1235 360 1204 331 c 1,75,76
 1094 243 1094 243 983 186 c 128,-1,77
 872 129 872 129 730 96 c 1,78,79
 631 2 631 2 482 2 c 0,80,81
 275 2 275 2 76 137 c 0,82,83
 60 148 60 148 58 152 c 1,84,85
 71 513 71 513 134.5 865 c 128,-1,86
 198 1217 198 1217 300 1512 c 0,87,88
 314 1551 314 1551 322 1573 c 128,-1,89
 330 1595 330 1595 347 1638 c 128,-1,90
 364 1681 364 1681 378.5 1707.5 c 128,-1,91
 393 1734 393 1734 413.5 1771 c 128,-1,92
 434 1808 434 1808 456 1831 c 128,-1,93
 478 1854 478 1854 504 1876.5 c 128,-1,94
 530 1899 530 1899 560.5 1909.5 c 128,-1,95
 591 1920 591 1920 624 1920 c 0,96,97
 695 1920 695 1920 742 1896.5 c 128,-1,98
 789 1873 789 1873 814 1826.5 c 128,-1,99
 839 1780 839 1780 848.5 1724.5 c 128,-1,100
 858 1669 858 1669 858 1591 c 0,33,34
EndSplineSet
Substitution2: "Single Substitution lookup 3 subtable" b.fina
EndChar

StartChar: c
Encoding: 99 99 70
Width: 756
GlyphClass: 2
Flags: MW
LayerCount: 2
Fore
SplineSet
474 960 m 0,0,1
 554 960 554 960 620.5 934 c 128,-1,2
 687 908 687 908 727.5 857 c 128,-1,3
 768 806 768 806 768 739 c 0,4,5
 768 698 768 698 741.5 673.5 c 128,-1,6
 715 649 715 649 678 649 c 0,7,8
 650 649 650 649 629.5 663 c 128,-1,9
 609 677 609 677 595 697 c 128,-1,10
 581 717 581 717 565.5 736.5 c 128,-1,11
 550 756 550 756 524.5 770 c 128,-1,12
 499 784 499 784 464 784 c 0,13,14
 439 784 439 784 415 763 c 128,-1,15
 391 742 391 742 369 700 c 128,-1,16
 347 658 347 658 333.5 584 c 128,-1,17
 320 510 320 510 320 414 c 0,18,19
 320 316 320 316 358 254 c 128,-1,20
 396 192 396 192 480 192 c 0,21,22
 529 192 529 192 576.5 208.5 c 128,-1,23
 624 225 624 225 656.5 245 c 128,-1,24
 689 265 689 265 729.5 304.5 c 128,-1,25
 770 344 770 344 788.5 365.5 c 128,-1,26
 807 387 807 387 842 431 c 0,27,28
 851 442 851 442 855 447 c 0,29,30
 880 477 880 477 901 477 c 0,31,32
 920 477 920 477 936 443.5 c 128,-1,33
 952 410 952 410 952 379 c 0,34,35
 952 336 952 336 934 310 c 0,36,37
 907 271 907 271 876.5 235 c 128,-1,38
 846 199 846 199 797 154 c 128,-1,39
 748 109 748 109 696.5 77 c 128,-1,40
 645 45 645 45 576.5 22.5 c 128,-1,41
 508 0 508 0 437 0 c 0,42,43
 263 0 263 0 163.5 115.5 c 128,-1,44
 64 231 64 231 64 413 c 0,45,46
 64 515 64 515 91.5 612 c 128,-1,47
 119 709 119 709 169 787 c 128,-1,48
 219 865 219 865 298.5 912.5 c 128,-1,49
 378 960 378 960 474 960 c 0,0,1
EndSplineSet
Substitution2: "Single Substitution lookup 3 subtable" c.fina
EndChar

StartChar: d
Encoding: 100 100 71
Width: 1147
GlyphClass: 2
Flags: MW
LayerCount: 2
Fore
SplineSet
1025 1592 m 0,0,1
 1025 1614 1025 1614 1024 1628 c 128,-1,2
 1023 1642 1023 1642 1019.5 1657.5 c 128,-1,3
 1016 1673 1016 1673 1008.5 1680.5 c 128,-1,4
 1001 1688 1001 1688 988 1688 c 0,5,6
 943 1688 943 1688 907.5 1633.5 c 128,-1,7
 872 1579 872 1579 851.5 1485 c 128,-1,8
 831 1391 831 1391 817.5 1293.5 c 128,-1,9
 804 1196 804 1196 798.5 1079.5 c 128,-1,10
 793 963 793 963 791 895.5 c 128,-1,11
 789 828 789 828 789 764 c 2,12,-1
 789 713 l 1,13,14
 831 809 831 809 855.5 868 c 128,-1,15
 880 927 880 927 917 1028.5 c 128,-1,16
 954 1130 954 1130 974 1210 c 128,-1,17
 994 1290 994 1290 1009.5 1392.5 c 128,-1,18
 1025 1495 1025 1495 1025 1592 c 0,0,1
833 391 m 0,19,20
 833 351 833 351 837.5 321 c 128,-1,21
 842 291 842 291 854 263.5 c 128,-1,22
 866 236 866 236 890 221.5 c 128,-1,23
 914 207 914 207 950 207 c 0,24,25
 963 207 963 207 978.5 210.5 c 128,-1,26
 994 214 994 214 1007 218 c 128,-1,27
 1020 222 1020 222 1036.5 231 c 128,-1,28
 1053 240 1053 240 1064.5 246.5 c 128,-1,29
 1076 253 1076 253 1093.5 266 c 128,-1,30
 1111 279 1111 279 1120 285.5 c 128,-1,31
 1129 292 1129 292 1146.5 307.5 c 128,-1,32
 1164 323 1164 323 1169.5 328 c 128,-1,33
 1175 333 1175 333 1192.5 348.5 c 128,-1,34
 1210 364 1210 364 1212 366 c 0,35,36
 1240 387 1240 387 1255 396 c 128,-1,37
 1270 405 1270 405 1283 405 c 0,38,39
 1308 405 1308 405 1321 368 c 128,-1,40
 1334 331 1334 331 1334 286 c 0,41,42
 1334 238 1334 238 1318 223 c 0,43,44
 1207 121 1207 121 1096 61 c 128,-1,45
 985 1 985 1 858 1 c 0,46,47
 780 1 780 1 723 52 c 128,-1,48
 666 103 666 103 635 178 c 1,49,50
 583 128 583 128 541.5 94.5 c 128,-1,51
 500 61 500 61 430 30.5 c 128,-1,52
 360 0 360 0 289 0 c 0,53,54
 206 0 206 0 147 47 c 128,-1,55
 88 94 88 94 61.5 167 c 128,-1,56
 35 240 35 240 35 330 c 0,57,58
 35 559 35 559 182.5 722 c 128,-1,59
 330 885 330 885 545 905 c 1,60,61
 550 1111 550 1111 588 1297 c 128,-1,62
 626 1483 626 1483 709 1643 c 128,-1,63
 792 1803 792 1803 909 1880 c 0,64,65
 971 1920 971 1920 1033 1920 c 0,66,67
 1082 1920 1082 1920 1117.5 1894.5 c 128,-1,68
 1153 1869 1153 1869 1171 1825 c 128,-1,69
 1189 1781 1189 1781 1197 1732.5 c 128,-1,70
 1205 1684 1205 1684 1205 1626 c 0,71,72
 1205 1502 1205 1502 1183.5 1383 c 128,-1,73
 1162 1264 1162 1264 1121.5 1152 c 128,-1,74
 1081 1040 1081 1040 1042.5 953.5 c 128,-1,75
 1004 867 1004 867 948.5 751 c 128,-1,76
 893 635 893 635 863 564 c 0,77,78
 833 491 833 491 833 391 c 0,19,20
275 308 m 0,79,80
 275 191 275 191 355 191 c 0,81,82
 454 191 454 191 564 329 c 1,83,-1
 549 756 l 1,84,85
 436 701 436 701 355.5 577 c 128,-1,86
 275 453 275 453 275 308 c 0,79,80
EndSplineSet
Substitution2: "Single Substitution lookup 3 subtable" d.fina
EndChar

StartChar: e
Encoding: 101 101 72
Width: 740
GlyphClass: 2
Flags: MW
LayerCount: 2
Fore
SplineSet
543 678 m 0,0,1
 543 719 543 719 524 745 c 128,-1,2
 505 771 505 771 470 771 c 0,3,4
 424 771 424 771 388.5 738.5 c 128,-1,5
 353 706 353 706 333.5 654.5 c 128,-1,6
 314 603 314 603 304 547.5 c 128,-1,7
 294 492 294 492 294 437 c 1,8,9
 331 452 331 452 368 472.5 c 128,-1,10
 405 493 405 493 447.5 524 c 128,-1,11
 490 555 490 555 516.5 595.5 c 128,-1,12
 543 636 543 636 543 678 c 0,0,1
317 290 m 1,13,14
 332 242 332 242 360.5 217 c 128,-1,15
 389 192 389 192 442 192 c 0,16,17
 509 192 509 192 574 214 c 128,-1,18
 639 236 639 236 697 276.5 c 128,-1,19
 755 317 755 317 793.5 350 c 128,-1,20
 832 383 832 383 879 430 c 0,21,22
 892 442 892 442 913 442 c 0,23,24
 946 442 946 442 975.5 409.5 c 128,-1,25
 1005 377 1005 377 1005 341 c 0,26,27
 1005 317 1005 317 981 291 c 0,28,29
 924 231 924 231 873 187 c 128,-1,30
 822 143 822 143 751.5 96.5 c 128,-1,31
 681 50 681 50 598 25 c 128,-1,32
 515 0 515 0 426 0 c 0,33,34
 248 0 248 0 149 115.5 c 128,-1,35
 50 231 50 231 50 417 c 0,36,37
 50 499 50 499 66.5 577 c 128,-1,38
 83 655 83 655 117 724.5 c 128,-1,39
 151 794 151 794 198.5 846 c 128,-1,40
 246 898 246 898 313 928.5 c 128,-1,41
 380 959 380 959 458 959 c 0,42,43
 575 959 575 959 648 891 c 128,-1,44
 721 823 721 823 721 709 c 0,45,46
 721 645 721 645 696 585 c 128,-1,47
 671 525 671 525 630.5 479.5 c 128,-1,48
 590 434 590 434 536.5 395.5 c 128,-1,49
 483 357 483 357 428 331.5 c 128,-1,50
 373 306 373 306 317 290 c 1,13,14
EndSplineSet
Substitution2: "Single Substitution lookup 3 subtable" e.fina
EndChar

StartChar: f
Encoding: 102 102 73
Width: 687
GlyphClass: 2
Flags: MW
LayerCount: 2
Fore
SplineSet
795 1529 m 0,0,1
 795 1631 795 1631 745 1631 c 0,2,3
 691 1631 691 1631 636.5 1566 c 128,-1,4
 582 1501 582 1501 541.5 1407 c 128,-1,5
 501 1313 501 1313 461.5 1191 c 128,-1,6
 422 1069 422 1069 398.5 972 c 128,-1,7
 375 875 375 875 354 786 c 128,-1,8
 333 697 333 697 330 686 c 1,9,10
 395 767 395 767 440 825 c 128,-1,11
 485 883 485 883 559 988.5 c 128,-1,12
 633 1094 633 1094 678.5 1176.5 c 128,-1,13
 724 1259 724 1259 759.5 1356.5 c 128,-1,14
 795 1454 795 1454 795 1529 c 0,0,1
302 -379 m 0,15,16
 327 -379 327 -379 346.5 -366.5 c 128,-1,17
 366 -354 366 -354 378 -336 c 128,-1,18
 390 -318 390 -318 399 -288.5 c 128,-1,19
 408 -259 408 -259 412.5 -234.5 c 128,-1,20
 417 -210 417 -210 419 -173 c 128,-1,21
 421 -136 421 -136 421.5 -115.5 c 128,-1,22
 422 -95 422 -95 422 -62 c 2,23,-1
 422 -57 l 2,24,25
 422 261 422 261 286 522 c 1,26,27
 283 457 283 457 275.5 342 c 128,-1,28
 268 227 268 227 263.5 132.5 c 128,-1,29
 259 38 259 38 259 -47 c 0,30,31
 259 -379 259 -379 302 -379 c 0,15,16
990 652 m 0,32,33
 990 611 990 611 973.5 577.5 c 128,-1,34
 957 544 957 544 931.5 521.5 c 128,-1,35
 906 499 906 499 865.5 482 c 128,-1,36
 825 465 825 465 787 455.5 c 128,-1,37
 749 446 749 446 696 440 c 128,-1,38
 643 434 643 434 605 431.5 c 128,-1,39
 567 429 567 429 514 427 c 1,40,41
 549 351 549 351 571 293 c 128,-1,42
 593 235 593 235 613 145.5 c 128,-1,43
 633 56 633 56 633 -29 c 0,44,45
 633 -103 633 -103 620.5 -180 c 128,-1,46
 608 -257 608 -257 579.5 -334 c 128,-1,47
 551 -411 551 -411 510.5 -470.5 c 128,-1,48
 470 -530 470 -530 407.5 -567 c 128,-1,49
 345 -604 345 -604 270 -604 c 0,50,51
 34 -604 34 -604 34 -38 c 0,52,53
 34 88 34 88 46 243 c 128,-1,54
 58 398 58 398 85.5 581.5 c 128,-1,55
 113 765 113 765 153 942.5 c 128,-1,56
 193 1120 193 1120 254.5 1286.5 c 128,-1,57
 316 1453 316 1453 390 1578.5 c 128,-1,58
 464 1704 464 1704 565.5 1780 c 128,-1,59
 667 1856 667 1856 782 1856 c 0,60,61
 875 1856 875 1856 928.5 1792.5 c 128,-1,62
 982 1729 982 1729 982 1624 c 0,63,64
 982 1533 982 1533 957.5 1434.5 c 128,-1,65
 933 1336 933 1336 885.5 1239 c 128,-1,66
 838 1142 838 1142 789 1059 c 128,-1,67
 740 976 740 976 670.5 883.5 c 128,-1,68
 601 791 601 791 555 734 c 128,-1,69
 509 677 509 677 445 603 c 1,70,71
 491 587 491 587 559 587 c 0,72,73
 590 587 590 587 618.5 590 c 128,-1,74
 647 593 647 593 668 595.5 c 128,-1,75
 689 598 689 598 716.5 607.5 c 128,-1,76
 744 617 744 617 757 621.5 c 128,-1,77
 770 626 770 626 801 641.5 c 128,-1,78
 832 657 832 657 841.5 662 c 128,-1,79
 851 667 851 667 888.5 688 c 128,-1,80
 926 709 926 709 936 715 c 128,-1,81
 946 721 946 721 954 721 c 0,82,83
 971 721 971 721 980.5 701.5 c 128,-1,84
 990 682 990 682 990 652 c 0,32,33
EndSplineSet
Substitution2: "Single Substitution lookup 4 subtable" f.init
Substitution2: "Single Substitution lookup 3 subtable" f.fina
EndChar

StartChar: g
Encoding: 103 103 74
Width: 869
GlyphClass: 2
Flags: MW
LayerCount: 2
Fore
SplineSet
126 -736 m 0,0,1
 182 -736 182 -736 230.5 -700.5 c 128,-1,2
 279 -665 279 -665 310 -615 c 128,-1,3
 341 -565 341 -565 368 -493.5 c 128,-1,4
 395 -422 395 -422 408.5 -369 c 128,-1,5
 422 -316 422 -316 434 -256 c 1,6,7
 330 -325 330 -325 239 -428 c 128,-1,8
 148 -531 148 -531 101 -641 c 0,9,10
 86 -676 86 -676 86 -699 c 0,11,12
 86 -736 86 -736 126 -736 c 0,0,1
274 324 m 0,13,14
 274 192 274 192 352 192 c 0,15,16
 467 192 467 192 524 474 c 1,17,-1
 585 768 l 1,18,19
 497 768 497 768 423 694.5 c 128,-1,20
 349 621 349 621 311.5 520 c 128,-1,21
 274 419 274 419 274 324 c 0,13,14
114 -928 m 0,22,23
 -110 -928 -110 -928 -110 -729 c 0,24,25
 -110 -708 -110 -708 -106.5 -686.5 c 128,-1,26
 -103 -665 -103 -665 -99 -647.5 c 128,-1,27
 -95 -630 -95 -630 -84 -607 c 128,-1,28
 -73 -584 -73 -584 -67.5 -570.5 c 128,-1,29
 -62 -557 -62 -557 -46 -533 c 128,-1,30
 -30 -509 -30 -509 -24.5 -500 c 128,-1,31
 -19 -491 -19 -491 0.5 -465.5 c 128,-1,32
 20 -440 20 -440 23.5 -435.5 c 128,-1,33
 27 -431 27 -431 49 -405 c 128,-1,34
 71 -379 71 -379 71 -378 c 0,35,36
 232 -181 232 -181 468 12 c 1,37,-1
 495 105 l 1,38,39
 375 -2 375 -2 269 -2 c 0,40,41
 156 -2 156 -2 87 79 c 128,-1,42
 18 160 18 160 18 281 c 0,43,44
 18 391 18 391 51.5 496 c 128,-1,45
 85 601 85 601 141 683.5 c 128,-1,46
 197 766 197 766 269.5 829 c 128,-1,47
 342 892 342 892 422 928 c 0,48,49
 488 958 488 958 557 958 c 0,50,51
 581 958 581 958 598.5 946 c 128,-1,52
 616 934 616 934 625 920 c 128,-1,53
 634 906 634 906 653.5 894 c 128,-1,54
 673 882 673 882 701 882 c 0,55,56
 708 882 708 882 723 882.5 c 128,-1,57
 738 883 738 883 746 883 c 0,58,59
 787 883 787 883 802.5 860 c 128,-1,60
 818 837 818 837 818 790 c 0,61,62
 818 710 818 710 807.5 618.5 c 128,-1,63
 797 527 797 527 786 466 c 128,-1,64
 775 405 775 405 753 299 c 128,-1,65
 731 193 731 193 722 144 c 1,66,67
 786 180 786 180 845.5 237 c 128,-1,68
 905 294 905 294 944.5 345 c 128,-1,69
 984 396 984 396 1040 477 c 0,70,71
 1046 485 1046 485 1054 485 c 0,72,73
 1075 485 1075 485 1097 443.5 c 128,-1,74
 1119 402 1119 402 1119 352 c 0,75,76
 1119 297 1119 297 1088 255 c 0,77,78
 958 84 958 84 690 -78 c 1,79,80
 671 -193 671 -193 650.5 -285 c 128,-1,81
 630 -377 630 -377 595 -479.5 c 128,-1,82
 560 -582 560 -582 517.5 -658 c 128,-1,83
 475 -734 475 -734 411.5 -799 c 128,-1,84
 348 -864 348 -864 271 -898 c 1,85,86
 200 -928 200 -928 114 -928 c 0,22,23
EndSplineSet
Substitution2: "Single Substitution lookup 3 subtable" g.fina
EndChar

StartChar: h
Encoding: 104 104 75
Width: 999
GlyphClass: 2
Flags: MW
LayerCount: 2
Fore
SplineSet
314 710 m 1,0,1
 338 766 338 766 389.5 874.5 c 128,-1,2
 441 983 441 983 474.5 1060.5 c 128,-1,3
 508 1138 508 1138 545.5 1241 c 128,-1,4
 583 1344 583 1344 602.5 1447.5 c 128,-1,5
 622 1551 622 1551 622 1653 c 0,6,7
 622 1729 622 1729 602 1729 c 0,8,9
 586 1729 586 1729 570 1717 c 128,-1,10
 554 1705 554 1705 540 1681.5 c 128,-1,11
 526 1658 526 1658 514.5 1633.5 c 128,-1,12
 503 1609 503 1609 490.5 1573 c 128,-1,13
 478 1537 478 1537 470 1511.5 c 128,-1,14
 462 1486 462 1486 451 1449 c 128,-1,15
 440 1412 440 1412 435 1397 c 0,16,17
 346 1116 346 1116 314 710 c 1,0,1
861 236 m 0,18,19
 898 236 898 236 934 253.5 c 128,-1,20
 970 271 970 271 999 296.5 c 128,-1,21
 1028 322 1028 322 1055.5 347 c 128,-1,22
 1083 372 1083 372 1114.5 389.5 c 128,-1,23
 1146 407 1146 407 1175 407 c 0,24,25
 1225 407 1225 407 1225 325 c 0,26,27
 1225 290 1225 290 1217 253.5 c 128,-1,28
 1209 217 1209 217 1203 212 c 0,29,30
 1200 209 1200 209 1151.5 170.5 c 128,-1,31
 1103 132 1103 132 1087 120.5 c 128,-1,32
 1071 109 1071 109 1024.5 78.5 c 128,-1,33
 978 48 978 48 948.5 36 c 128,-1,34
 919 24 919 24 875.5 12 c 128,-1,35
 832 0 832 0 791 0 c 0,36,37
 695 0 695 0 636 64.5 c 128,-1,38
 577 129 577 129 577 226 c 0,39,40
 577 402 577 402 687 648 c 0,41,42
 698 672 698 672 700 674 c 1,43,-1
 679 677 l 1,44,45
 610 632 610 632 547 550.5 c 128,-1,46
 484 469 484 469 445 392 c 128,-1,47
 406 315 406 315 353 209.5 c 128,-1,48
 300 104 300 104 262 44 c 0,49,50
 248 22 248 22 233 11 c 128,-1,51
 218 0 218 0 192 0 c 0,52,53
 169 0 169 0 152 9 c 128,-1,54
 135 18 135 18 124.5 37 c 128,-1,55
 114 56 114 56 108 74.5 c 128,-1,56
 102 93 102 93 99 123 c 128,-1,57
 96 153 96 153 95.5 172.5 c 128,-1,58
 95 192 95 192 95 223 c 0,59,60
 95 453 95 453 104.5 642 c 128,-1,61
 114 831 114 831 139 1034.5 c 128,-1,62
 164 1238 164 1238 215 1409.5 c 128,-1,63
 266 1581 266 1581 342 1706 c 1,64,65
 470 1920 470 1920 665 1920 c 0,66,67
 753 1920 753 1920 789.5 1864 c 128,-1,68
 826 1808 826 1808 826 1699 c 0,69,70
 826 1620 826 1620 814.5 1539.5 c 128,-1,71
 803 1459 803 1459 787.5 1392 c 128,-1,72
 772 1325 772 1325 742.5 1246 c 128,-1,73
 713 1167 713 1167 689.5 1113 c 128,-1,74
 666 1059 666 1059 625.5 981.5 c 128,-1,75
 585 904 585 904 561.5 862 c 128,-1,76
 538 820 538 820 493.5 743.5 c 128,-1,77
 449 667 449 667 431 636 c 1,78,-1
 451 622 l 1,79,80
 505 693 505 693 544 740.5 c 128,-1,81
 583 788 583 788 643 847 c 128,-1,82
 703 906 703 906 758 942 c 0,83,84
 812 978 812 978 861 978 c 0,85,86
 904 978 904 978 926 947.5 c 128,-1,87
 948 917 948 917 948 868 c 0,88,89
 948 803 948 803 929 725.5 c 128,-1,90
 910 648 910 648 887.5 587 c 128,-1,91
 865 526 865 526 846 447 c 128,-1,92
 827 368 827 368 827 301 c 0,93,94
 827 236 827 236 861 236 c 0,18,19
EndSplineSet
Substitution2: "Single Substitution lookup 3 subtable" h.fina
EndChar

StartChar: i
Encoding: 105 105 76
Width: 532
GlyphClass: 2
Flags: MW
LayerCount: 2
Fore
SplineSet
448 1089 m 0,0,1
 366 1089 366 1089 321 1127.5 c 128,-1,2
 276 1166 276 1166 276 1241 c 0,3,4
 276 1317 276 1317 331.5 1362.5 c 128,-1,5
 387 1408 387 1408 472 1408 c 0,6,7
 545 1408 545 1408 588.5 1373 c 128,-1,8
 632 1338 632 1338 632 1268 c 0,9,10
 632 1184 632 1184 582 1136.5 c 128,-1,11
 532 1089 532 1089 448 1089 c 0,0,1
327 290 m 0,12,13
 327 244 327 244 337 218 c 128,-1,14
 347 192 347 192 378 192 c 0,15,16
 424 192 424 192 476.5 219.5 c 128,-1,17
 529 247 529 247 564.5 278 c 128,-1,18
 600 309 600 309 648 355.5 c 128,-1,19
 696 402 696 402 713 416 c 0,20,21
 732 432 732 432 742 432 c 0,22,23
 763 432 763 432 763 382 c 0,24,25
 763 339 763 339 746.5 284 c 128,-1,26
 730 229 730 229 713 213 c 0,27,28
 481 0 481 0 274 0 c 0,29,30
 88 0 88 0 88 201 c 0,31,32
 88 308 88 308 110.5 413.5 c 128,-1,33
 133 519 133 519 183.5 674 c 128,-1,34
 234 829 234 829 244 863 c 1,35,36
 253 909 253 909 296 934.5 c 128,-1,37
 339 960 339 960 391 960 c 0,38,39
 428 960 428 960 445.5 947 c 128,-1,40
 463 934 463 934 463 903 c 0,41,42
 463 834 463 834 441.5 751 c 128,-1,43
 420 668 420 668 395 602.5 c 128,-1,44
 370 537 370 537 348.5 451 c 128,-1,45
 327 365 327 365 327 290 c 0,12,13
EndSplineSet
EndChar

StartChar: j
Encoding: 106 106 77
Width: 572
GlyphClass: 2
Flags: MW
LayerCount: 2
Fore
SplineSet
413 1089 m 0,0,1
 331 1089 331 1089 286 1127.5 c 128,-1,2
 241 1166 241 1166 241 1241 c 0,3,4
 241 1317 241 1317 296.5 1362.5 c 128,-1,5
 352 1408 352 1408 437 1408 c 0,6,7
 515 1408 515 1408 561 1373 c 128,-1,8
 607 1338 607 1338 607 1268 c 0,9,10
 607 1184 607 1184 554 1136.5 c 128,-1,11
 501 1089 501 1089 413 1089 c 0,0,1
307 -384 m 0,12,13
 329 -384 329 -384 346 -369.5 c 128,-1,14
 363 -355 363 -355 373 -327.5 c 128,-1,15
 383 -300 383 -300 389.5 -271.5 c 128,-1,16
 396 -243 396 -243 398.5 -202 c 128,-1,17
 401 -161 401 -161 402 -133.5 c 128,-1,18
 403 -106 403 -106 403 -68 c 2,19,-1
 403 -32 l 2,20,21
 403 19 403 19 398 68 c 128,-1,22
 393 117 393 117 379.5 175.5 c 128,-1,23
 366 234 366 234 359 261.5 c 128,-1,24
 352 289 352 289 330.5 362 c 128,-1,25
 309 435 309 435 305 447 c 1,26,27
 243 80 243 80 243 -192 c 0,28,29
 243 -261 243 -261 257.5 -322.5 c 128,-1,30
 272 -384 272 -384 307 -384 c 0,12,13
507 384 m 1,31,32
 595 155 595 155 595 -32 c 0,33,34
 595 -112 595 -112 586 -188 c 128,-1,35
 577 -264 577 -264 554 -342 c 128,-1,36
 531 -420 531 -420 496 -477.5 c 128,-1,37
 461 -535 461 -535 404 -571.5 c 128,-1,38
 347 -608 347 -608 275 -608 c 0,39,40
 225 -608 225 -608 184.5 -587 c 128,-1,41
 144 -566 144 -566 117.5 -533.5 c 128,-1,42
 91 -501 91 -501 72 -449 c 128,-1,43
 53 -397 53 -397 43 -348.5 c 128,-1,44
 33 -300 33 -300 27.5 -232.5 c 128,-1,45
 22 -165 22 -165 20.5 -116 c 128,-1,46
 19 -67 19 -67 19 0 c 0,47,48
 19 194 19 194 62 411 c 128,-1,49
 105 628 105 628 170 820 c 0,50,51
 188 875 188 875 208.5 903 c 128,-1,52
 229 931 229 931 267.5 945.5 c 128,-1,53
 306 960 306 960 372 960 c 0,54,55
 402 960 402 960 420 941.5 c 128,-1,56
 438 923 438 923 438 895 c 0,57,58
 438 840 438 840 391 704 c 2,59,-1
 335 544 l 1,60,61
 366 549 366 549 437 560 c 128,-1,62
 508 571 508 571 537 575.5 c 128,-1,63
 566 580 566 580 622 591 c 128,-1,64
 678 602 678 602 712.5 612 c 128,-1,65
 747 622 747 622 793.5 637.5 c 128,-1,66
 840 653 840 653 883 672 c 0,67,68
 895 677 895 677 905 677 c 0,69,70
 941 677 941 677 941 618 c 0,71,72
 941 572 941 572 921.5 534.5 c 128,-1,73
 902 497 902 497 867.5 472.5 c 128,-1,74
 833 448 833 448 791.5 430.5 c 128,-1,75
 750 413 750 413 698.5 403.5 c 128,-1,76
 647 394 647 394 601.5 389.5 c 128,-1,77
 556 385 556 385 507 384 c 1,31,32
EndSplineSet
EndChar

StartChar: k
Encoding: 107 107 78
Width: 997
GlyphClass: 2
Flags: MW
LayerCount: 2
Fore
SplineSet
631 1650 m 0,0,1
 631 1685 631 1685 593 1685 c 0,2,3
 545 1685 545 1685 496.5 1593 c 128,-1,4
 448 1501 448 1501 412.5 1367.5 c 128,-1,5
 377 1234 377 1234 352 1105.5 c 128,-1,6
 327 977 327 977 318 885 c 1,7,8
 370 1026 370 1026 461 1205 c 128,-1,9
 552 1384 552 1384 602 1523 c 0,10,11
 631 1604 631 1604 631 1650 c 0,0,1
189 -11 m 0,12,13
 157 -11 157 -11 135 12 c 128,-1,14
 113 35 113 35 102.5 73.5 c 128,-1,15
 92 112 92 112 87.5 150 c 128,-1,16
 83 188 83 188 83 230 c 0,17,18
 83 1240 83 1240 356 1698 c 0,19,20
 480 1907 480 1907 660 1907 c 0,21,22
 754 1907 754 1907 793 1849.5 c 128,-1,23
 832 1792 832 1792 832 1685 c 0,24,25
 832 1581 832 1581 807.5 1485 c 128,-1,26
 783 1389 783 1389 739 1305.5 c 128,-1,27
 695 1222 695 1222 651 1154.5 c 128,-1,28
 607 1087 607 1087 549.5 1003.5 c 128,-1,29
 492 920 492 920 459 862 c 1,30,-1
 326 672 l 1,31,-1
 294 399 l 1,32,33
 336 482 336 482 370.5 544.5 c 128,-1,34
 405 607 405 607 459.5 686.5 c 128,-1,35
 514 766 514 766 565 817.5 c 128,-1,36
 616 869 616 869 683 905 c 128,-1,37
 750 941 750 941 818 941 c 0,38,39
 918 941 918 941 985.5 881.5 c 128,-1,40
 1053 822 1053 822 1053 726 c 0,41,42
 1053 486 1053 486 764 320 c 0,43,44
 733 302 733 302 716 278 c 128,-1,45
 699 254 699 254 699 232 c 0,46,47
 699 211 699 211 714.5 197.5 c 128,-1,48
 730 184 730 184 760 184 c 0,49,50
 807 184 807 184 857 201.5 c 128,-1,51
 907 219 907 219 957.5 253.5 c 128,-1,52
 1008 288 1008 288 1039.5 312.5 c 128,-1,53
 1071 337 1071 337 1117 379 c 128,-1,54
 1163 421 1163 421 1169 426 c 1,55,56
 1173 431 1173 431 1179 431 c 0,57,58
 1190 431 1190 431 1202.5 381 c 128,-1,59
 1215 331 1215 331 1215 286 c 0,60,61
 1215 247 1215 247 1199 231 c 0,62,63
 1140 176 1140 176 1106.5 147.5 c 128,-1,64
 1073 119 1073 119 1010.5 78 c 128,-1,65
 948 37 948 37 879.5 18 c 128,-1,66
 811 -1 811 -1 732 -1 c 0,67,68
 636 -1 636 -1 559 54.5 c 128,-1,69
 482 110 482 110 482 195 c 0,70,71
 482 248 482 248 500.5 292.5 c 128,-1,72
 519 337 519 337 554.5 373 c 128,-1,73
 590 409 590 409 623 435 c 128,-1,74
 656 461 656 461 704.5 494 c 128,-1,75
 753 527 753 527 778 548 c 0,76,77
 831 591 831 591 831 641 c 0,78,79
 831 670 831 670 811.5 688.5 c 128,-1,80
 792 707 792 707 760 707 c 0,81,82
 659 707 659 707 530 486 c 0,83,84
 513 457 513 457 476.5 385.5 c 128,-1,85
 440 314 440 314 407 252.5 c 128,-1,86
 374 191 374 191 335 127.5 c 128,-1,87
 296 64 296 64 258 26.5 c 128,-1,88
 220 -11 220 -11 189 -11 c 0,12,13
EndSplineSet
EndChar

StartChar: l
Encoding: 108 108 79
Width: 589
GlyphClass: 2
Flags: MW
LayerCount: 2
Fore
SplineSet
661 1593 m 0,0,1
 661 1641 661 1641 630 1641 c 0,2,3
 566 1641 566 1641 511.5 1569.5 c 128,-1,4
 457 1498 457 1498 423 1392 c 128,-1,5
 389 1286 389 1286 364.5 1158.5 c 128,-1,6
 340 1031 340 1031 330 924 c 128,-1,7
 320 817 320 817 320 740 c 1,8,9
 551 1148 551 1148 636 1460 c 0,10,11
 661 1552 661 1552 661 1593 c 0,0,1
815 299 m 1,12,13
 787 218 787 218 706 148.5 c 128,-1,14
 625 79 625 79 523.5 39.5 c 128,-1,15
 422 0 422 0 329 0 c 0,16,17
 262 0 262 0 209.5 52 c 128,-1,18
 157 104 157 104 128.5 186 c 128,-1,19
 100 268 100 268 86 353 c 128,-1,20
 72 438 72 438 72 519 c 0,21,22
 72 887 72 887 158 1218 c 128,-1,23
 244 1549 244 1549 402 1748 c 1,24,25
 537 1920 537 1920 705 1920 c 0,26,27
 849 1920 849 1920 849 1694 c 0,28,29
 849 1579 849 1579 828.5 1465.5 c 128,-1,30
 808 1352 808 1352 767 1248 c 128,-1,31
 726 1144 726 1144 682.5 1056 c 128,-1,32
 639 968 639 968 574.5 872.5 c 128,-1,33
 510 777 510 777 463 713.5 c 128,-1,34
 416 650 416 650 348 565 c 0,35,36
 330 542 330 542 330 461 c 0,37,38
 330 428 330 428 332 399 c 128,-1,39
 334 370 334 370 340.5 334.5 c 128,-1,40
 347 299 347 299 358.5 273.5 c 128,-1,41
 370 248 370 248 391 231 c 128,-1,42
 412 214 412 214 440 214 c 0,43,44
 473 214 473 214 512.5 232 c 128,-1,45
 552 250 552 250 593 284.5 c 128,-1,46
 634 319 634 319 661 344.5 c 128,-1,47
 688 370 688 370 724 407 c 1,48,49
 750 424 750 424 774 424 c 0,50,51
 792 424 792 424 804.5 393 c 128,-1,52
 817 362 817 362 817 324 c 0,53,54
 817 311 817 311 815 299 c 1,12,13
EndSplineSet
Substitution2: "Single Substitution lookup 3 subtable" l.fina
EndChar

StartChar: m
Encoding: 109 109 80
Width: 1312
GlyphClass: 2
Flags: MW
LayerCount: 2
Fore
SplineSet
821 872 m 0,0,1
 821 818 821 818 766 522 c 1,2,-1
 785 501 l 1,3,4
 908 789 908 789 1046 934 c 0,5,6
 1071 960 1071 960 1112 960 c 0,7,8
 1157 960 1157 960 1187 936.5 c 128,-1,9
 1217 913 1217 913 1217 872 c 0,10,11
 1217 832 1217 832 1194 604 c 128,-1,12
 1171 376 1171 376 1171 317 c 0,13,14
 1171 296 1171 296 1171.5 283.5 c 128,-1,15
 1172 271 1172 271 1175 251.5 c 128,-1,16
 1178 232 1178 232 1183 221.5 c 128,-1,17
 1188 211 1188 211 1198.5 202.5 c 128,-1,18
 1209 194 1209 194 1225 194 c 0,19,20
 1264 194 1264 194 1320 241 c 128,-1,21
 1376 288 1376 288 1428 348 c 0,22,23
 1464 390 1464 390 1483 390 c 0,24,25
 1515 390 1515 390 1515 278 c 0,26,27
 1515 267 1515 267 1515 255 c 128,-1,28
 1515 243 1515 243 1514.5 232.5 c 128,-1,29
 1514 222 1514 222 1514 219 c 1,30,31
 1502 208 1502 208 1471.5 179.5 c 128,-1,32
 1441 151 1441 151 1425 137.5 c 128,-1,33
 1409 124 1409 124 1379 100 c 128,-1,34
 1349 76 1349 76 1325.5 63.5 c 128,-1,35
 1302 51 1302 51 1270.5 37 c 128,-1,36
 1239 23 1239 23 1205.5 17 c 128,-1,37
 1172 11 1172 11 1135 11 c 0,38,39
 1091 11 1091 11 1059.5 23 c 128,-1,40
 1028 35 1028 35 1009.5 54.5 c 128,-1,41
 991 74 991 74 980.5 105.5 c 128,-1,42
 970 137 970 137 966.5 168.5 c 128,-1,43
 963 200 963 200 963 243 c 0,44,45
 963 484 963 484 1023 690 c 1,46,47
 865 395 865 395 765 79 c 0,48,49
 753 43 753 43 725.5 27.5 c 128,-1,50
 698 12 698 12 650 12 c 0,51,52
 622 12 622 12 603 27.5 c 128,-1,53
 584 43 584 43 575 70.5 c 128,-1,54
 566 98 566 98 562.5 127 c 128,-1,55
 559 156 559 156 559 193 c 0,56,57
 559 252 559 252 567 320.5 c 128,-1,58
 575 389 575 389 583.5 434 c 128,-1,59
 592 479 592 479 609.5 560.5 c 128,-1,60
 627 642 627 642 634 677 c 1,61,62
 545 543 545 543 477.5 404 c 128,-1,63
 410 265 410 265 335 79 c 0,64,65
 321 44 321 44 297.5 28 c 128,-1,66
 274 12 274 12 235 12 c 0,67,68
 186 12 186 12 158 41.5 c 128,-1,69
 130 71 130 71 122 112 c 128,-1,70
 114 153 114 153 114 215 c 0,71,72
 114 379 114 379 142.5 549.5 c 128,-1,73
 171 720 171 720 218 866 c 0,74,75
 232 908 232 908 264.5 936 c 128,-1,76
 297 964 297 964 340 964 c 0,77,78
 379 964 379 964 404.5 939 c 128,-1,79
 430 914 430 914 430 874 c 0,80,81
 430 862 430 862 429 856 c 0,82,83
 416 796 416 796 387.5 679.5 c 128,-1,84
 359 563 359 563 350 522 c 1,85,-1
 370 501 l 1,86,87
 512 816 512 816 654 934 c 0,88,89
 685 960 685 960 726 960 c 128,-1,90
 767 960 767 960 794 936 c 128,-1,91
 821 912 821 912 821 872 c 0,0,1
EndSplineSet
Substitution2: "Single Substitution lookup 3 subtable" m.fina
EndChar

StartChar: n
Encoding: 110 110 81
Width: 947
GlyphClass: 2
Flags: MW
LayerCount: 2
Fore
SplineSet
802 -12 m 0,0,1
 693 -12 693 -12 642.5 62 c 128,-1,2
 592 136 592 136 592 264 c 128,-1,3
 592 392 592 392 622 591 c 1,4,-1
 606 591 l 1,5,-1
 344 71 l 2,6,7
 326 35 326 35 303 17.5 c 128,-1,8
 280 0 280 0 241 0 c 128,-1,9
 202 0 202 0 175.5 16.5 c 128,-1,10
 149 33 149 33 136.5 64.5 c 128,-1,11
 124 96 124 96 119 129.5 c 128,-1,12
 114 163 114 163 114 209 c 0,13,14
 114 499 114 499 198 852 c 0,15,16
 209 900 209 900 241.5 930 c 128,-1,17
 274 960 274 960 326 960 c 0,18,19
 422 960 422 960 422 839 c 0,20,21
 422 794 422 794 415 739.5 c 128,-1,22
 408 685 408 685 396 621 c 128,-1,23
 384 557 384 557 382 544 c 1,24,-1
 402 544 l 1,25,26
 410 560 410 560 475.5 683 c 128,-1,27
 541 806 541 806 576 866 c 0,28,29
 605 914 605 914 642.5 937 c 128,-1,30
 680 960 680 960 740 960 c 0,31,32
 795 960 795 960 822 915 c 128,-1,33
 849 870 849 870 849 802 c 0,34,35
 849 702 849 702 821 524.5 c 128,-1,36
 793 347 793 347 793 300 c 0,37,38
 793 187 793 187 846 187 c 0,39,40
 862 187 862 187 879.5 195 c 128,-1,41
 897 203 897 203 911.5 212.5 c 128,-1,42
 926 222 926 222 944.5 239.5 c 128,-1,43
 963 257 963 257 973 268 c 128,-1,44
 983 279 983 279 999.5 297 c 128,-1,45
 1016 315 1016 315 1019 319 c 0,46,47
 1044 345 1044 345 1066 345 c 0,48,49
 1092 345 1092 345 1107 313.5 c 128,-1,50
 1122 282 1122 282 1124 250 c 2,51,-1
 1127 218 l 1,52,53
 1068 115 1068 115 982 51.5 c 128,-1,54
 896 -12 896 -12 802 -12 c 0,0,1
EndSplineSet
Substitution2: "Single Substitution lookup 3 subtable" n.fina
EndChar

StartChar: o
Encoding: 111 111 82
Width: 833
GlyphClass: 2
Flags: MW
LayerCount: 2
Fore
SplineSet
261 446 m 0,0,1
 261 375 261 375 276.5 320.5 c 128,-1,2
 292 266 292 266 332.5 229 c 128,-1,3
 373 192 373 192 436 192 c 0,4,5
 487 192 487 192 529 237 c 128,-1,6
 571 282 571 282 591 343 c 128,-1,7
 611 404 611 404 611 461 c 1,8,9
 573 482 573 482 555.5 493.5 c 128,-1,10
 538 505 538 505 507.5 529 c 128,-1,11
 477 553 477 553 463 581 c 128,-1,12
 449 609 449 609 449 641 c 0,13,14
 449 690 449 690 500 746 c 0,15,16
 509 756 509 756 509 762 c 128,-1,17
 509 768 509 768 494 768 c 0,18,19
 428 768 428 768 372.5 716.5 c 128,-1,20
 317 665 317 665 289 592 c 128,-1,21
 261 519 261 519 261 446 c 0,0,1
501 965 m 0,22,23
 629 965 629 965 712.5 869 c 128,-1,24
 796 773 796 773 796 618 c 0,25,26
 796 602 796 602 841 602 c 0,27,28
 881 602 881 602 918 623 c 128,-1,29
 955 644 955 644 978.5 669 c 128,-1,30
 1002 694 1002 694 1032 715 c 128,-1,31
 1062 736 1062 736 1089 736 c 2,32,-1
 1095 736 l 2,33,34
 1114 736 1114 736 1125 735 c 128,-1,35
 1136 734 1136 734 1149.5 730.5 c 128,-1,36
 1163 727 1163 727 1169.5 718 c 128,-1,37
 1176 709 1176 709 1176 694 c 0,38,39
 1176 674 1176 674 1169 659 c 0,40,41
 1149 617 1149 617 1114.5 575 c 128,-1,42
 1080 533 1080 533 1032.5 494 c 128,-1,43
 985 455 985 455 920.5 431 c 128,-1,44
 856 407 856 407 788 407 c 1,45,46
 788 357 788 357 774 303.5 c 128,-1,47
 760 250 760 250 728.5 195.5 c 128,-1,48
 697 141 697 141 652.5 97.5 c 128,-1,49
 608 54 608 54 541.5 27 c 128,-1,50
 475 0 475 0 397 0 c 0,51,52
 313 0 313 0 248.5 35.5 c 128,-1,53
 184 71 184 71 145 132.5 c 128,-1,54
 106 194 106 194 86.5 271 c 128,-1,55
 67 348 67 348 67 437 c 0,56,57
 67 539 67 539 98 634.5 c 128,-1,58
 129 730 129 730 184 803.5 c 128,-1,59
 239 877 239 877 322 921 c 128,-1,60
 405 965 405 965 501 965 c 0,22,23
EndSplineSet
Substitution2: "Single Substitution lookup 3 subtable" o.fina
EndChar

StartChar: p
Encoding: 112 112 83
Width: 898
GlyphClass: 2
Flags: MW
LayerCount: 2
Fore
SplineSet
475 242 m 1,0,1
 490 206 490 206 518 194 c 128,-1,2
 546 182 546 182 594 182 c 0,3,4
 654 182 654 182 710.5 203 c 128,-1,5
 767 224 767 224 807.5 253 c 128,-1,6
 848 282 848 282 890 326.5 c 128,-1,7
 932 371 932 371 955 403 c 128,-1,8
 978 435 978 435 1006 477 c 0,9,10
 1016 493 1016 493 1030 493 c 0,11,12
 1057 493 1057 493 1085.5 442 c 128,-1,13
 1114 391 1114 391 1114 349 c 0,14,15
 1114 323 1114 323 1093 289 c 0,16,17
 1052 220 1052 220 1004.5 171.5 c 128,-1,18
 957 123 957 123 911.5 95 c 128,-1,19
 866 67 866 67 808.5 51.5 c 128,-1,20
 751 36 751 36 701.5 31.5 c 128,-1,21
 652 27 652 27 584 27 c 0,22,23
 498 27 498 27 416.5 57.5 c 128,-1,24
 335 88 335 88 284 153 c 1,25,26
 282 142 282 142 238 -98 c 128,-1,27
 194 -338 194 -338 177 -398 c 1,28,29
 170 -433 170 -433 116.5 -466.5 c 128,-1,30
 63 -500 63 -500 18 -500 c 0,31,32
 -39 -500 -39 -500 -39 -437 c 0,33,34
 -39 -435 -39 -435 -38.5 -431 c 128,-1,35
 -38 -427 -38 -427 -38 -425 c 0,36,37
 -21 -265 -21 -265 34 -3.5 c 128,-1,38
 89 258 89 258 90 264 c 0,39,40
 96 334 96 334 106.5 398.5 c 128,-1,41
 117 463 117 463 137 534.5 c 128,-1,42
 157 606 157 606 184 665.5 c 128,-1,43
 211 725 211 725 251.5 781 c 128,-1,44
 292 837 292 837 341.5 875.5 c 128,-1,45
 391 914 391 914 459.5 937 c 128,-1,46
 528 960 528 960 608 960 c 0,47,48
 754 960 754 960 828.5 891 c 128,-1,49
 903 822 903 822 903 693 c 0,50,51
 903 534 903 534 788 420.5 c 128,-1,52
 673 307 673 307 475 242 c 1,0,1
308 329 m 1,53,54
 380 352 380 352 446.5 384 c 128,-1,55
 513 416 513 416 574 459 c 128,-1,56
 635 502 635 502 671.5 559 c 128,-1,57
 708 616 708 616 708 677 c 0,58,59
 708 720 708 720 677 747 c 128,-1,60
 646 774 646 774 584 774 c 0,61,62
 538 774 538 774 499 757 c 128,-1,63
 460 740 460 740 433.5 714.5 c 128,-1,64
 407 689 407 689 386 649 c 128,-1,65
 365 609 365 609 352.5 572.5 c 128,-1,66
 340 536 340 536 330 487 c 128,-1,67
 320 438 320 438 316 405 c 128,-1,68
 312 372 312 372 308 329 c 1,53,54
EndSplineSet
Substitution2: "Single Substitution lookup 4 subtable" p.init
Substitution2: "Single Substitution lookup 3 subtable" p.fina
EndChar

StartChar: q
Encoding: 113 113 84
Width: 815
GlyphClass: 2
Flags: MW
LayerCount: 2
Fore
SplineSet
463 -544 m 0,0,1
 601 -544 601 -544 601 -256 c 0,2,3
 601 -89 601 -89 569 33 c 1,4,5
 560 6 560 6 552 -20 c 2,6,-1
 524 -111 l 2,7,8
 516 -136 516 -136 494.5 -198.5 c 128,-1,9
 473 -261 473 -261 461 -300.5 c 128,-1,10
 449 -340 449 -340 437.5 -396.5 c 128,-1,11
 426 -453 426 -453 426 -498 c 0,12,13
 426 -518 426 -518 436 -531 c 128,-1,14
 446 -544 446 -544 463 -544 c 0,0,1
505 768 m 0,15,16
 408 768 408 768 344.5 691.5 c 128,-1,17
 281 615 281 615 281 512 c 0,18,19
 281 416 281 416 320.5 355 c 128,-1,20
 360 294 360 294 441 288 c 1,21,22
 467 352 467 352 487.5 423.5 c 128,-1,23
 508 495 508 495 531.5 590.5 c 128,-1,24
 555 686 555 686 569 736 c 1,25,26
 537 768 537 768 505 768 c 0,15,16
674 256 m 0,27,28
 674 192 674 192 729 192 c 0,29,30
 775 192 775 192 828.5 217 c 128,-1,31
 882 242 882 242 918 270.5 c 128,-1,32
 954 299 954 299 1004 341 c 128,-1,33
 1054 383 1054 383 1071 396 c 0,34,35
 1108 424 1108 424 1135 424 c 0,36,37
 1159 424 1159 424 1159 392 c 0,38,39
 1159 353 1159 353 1127.5 279.5 c 128,-1,40
 1096 206 1096 206 1081 192 c 0,41,42
 922 34 922 34 726 6 c 1,43,44
 761 -190 761 -190 761 -320 c 0,45,46
 761 -508 761 -508 683 -622 c 128,-1,47
 605 -736 605 -736 441 -736 c 0,48,49
 355 -736 355 -736 302 -671 c 128,-1,50
 249 -606 249 -606 249 -512 c 0,51,52
 249 -403 249 -403 273.5 -293 c 128,-1,53
 298 -183 298 -183 347 -35 c 128,-1,54
 396 113 396 113 409 160 c 1,55,56
 379 156 379 156 363 156 c 0,57,58
 225 156 225 156 141 259.5 c 128,-1,59
 57 363 57 363 57 512 c 0,60,61
 57 699 57 699 188 829.5 c 128,-1,62
 319 960 319 960 505 960 c 0,63,64
 638 960 638 960 714.5 892 c 128,-1,65
 791 824 791 824 791 698 c 0,66,67
 791 633 791 633 773 562.5 c 128,-1,68
 755 492 755 492 723 404 c 128,-1,69
 691 316 691 316 680 279 c 0,70,71
 674 258 674 258 674 256 c 0,27,28
EndSplineSet
EndChar

StartChar: r
Encoding: 114 114 85
Width: 804
GlyphClass: 2
Flags: MW
LayerCount: 2
Fore
SplineSet
235 0 m 0,0,1
 196 0 196 0 169.5 16.5 c 128,-1,2
 143 33 143 33 130.5 64.5 c 128,-1,3
 118 96 118 96 113 129.5 c 128,-1,4
 108 163 108 163 108 209 c 0,5,6
 108 388 108 388 139 571 c 128,-1,7
 170 754 170 754 223 892 c 0,8,9
 238 931 238 931 257 945.5 c 128,-1,10
 276 960 276 960 322 960 c 0,11,12
 372 960 372 960 383 943 c 128,-1,13
 394 926 394 926 394 869 c 2,14,-1
 394 780 l 2,15,16
 394 744 394 744 396 676 c 1,17,-1
 407 676 l 1,18,19
 412 686 412 686 427.5 718 c 128,-1,20
 443 750 443 750 451 766 c 128,-1,21
 459 782 459 782 476 812 c 128,-1,22
 493 842 493 842 506 858.5 c 128,-1,23
 519 875 519 875 540 897.5 c 128,-1,24
 561 920 561 920 581 931.5 c 128,-1,25
 601 943 601 943 627.5 951.5 c 128,-1,26
 654 960 654 960 682 960 c 0,27,28
 725 960 725 960 752.5 934 c 128,-1,29
 780 908 780 908 780 866 c 0,30,31
 780 846 780 846 764.5 750.5 c 128,-1,32
 749 655 749 655 749 604 c 0,33,34
 749 495 749 495 835 495 c 0,35,36
 876 495 876 495 926.5 523 c 128,-1,37
 977 551 977 551 1017 586 c 1,38,39
 1034 599 1034 599 1055 599 c 0,40,41
 1085 599 1085 599 1085 534 c 0,42,43
 1085 508 1085 508 1075.5 474 c 128,-1,44
 1066 440 1066 440 1057 420 c 2,45,-1
 1048 399 l 1,46,47
 1045 397 1045 397 1020 379 c 128,-1,48
 995 361 995 361 987 356 c 128,-1,49
 979 351 979 351 956 336.5 c 128,-1,50
 933 322 933 322 919 316.5 c 128,-1,51
 905 311 905 311 883 302.5 c 128,-1,52
 861 294 861 294 840.5 291 c 128,-1,53
 820 288 820 288 798 288 c 0,54,55
 741 288 741 288 698 308.5 c 128,-1,56
 655 329 655 329 629.5 358.5 c 128,-1,57
 604 388 604 388 585.5 438 c 128,-1,58
 567 488 567 488 559 530 c 128,-1,59
 551 572 551 572 543 634 c 1,60,-1
 527 634 l 1,61,-1
 348 135 l 2,62,63
 346 131 346 131 340 113 c 128,-1,64
 334 95 334 95 331.5 89 c 128,-1,65
 329 83 329 83 322.5 67.5 c 128,-1,66
 316 52 316 52 311 45.5 c 128,-1,67
 306 39 306 39 297.5 28 c 128,-1,68
 289 17 289 17 280.5 12.5 c 128,-1,69
 272 8 272 8 260 4 c 128,-1,70
 248 0 248 0 235 0 c 0,0,1
EndSplineSet
EndChar

StartChar: s
Encoding: 115 115 86
Width: 763
GlyphClass: 2
Flags: MW
LayerCount: 2
Fore
SplineSet
241 247 m 1,0,1
 258 247 258 247 276.5 232 c 128,-1,2
 295 217 295 217 309.5 199 c 128,-1,3
 324 181 324 181 346 166 c 128,-1,4
 368 151 368 151 391 151 c 0,5,6
 458 151 458 151 458 293 c 0,7,8
 458 389 458 389 404 513 c 1,9,-1
 241 247 l 1,0,1
415 -19 m 0,10,11
 167 -19 167 -19 134 180 c 1,12,13
 113 175 113 175 80 175 c 0,14,15
 0 175 0 175 0 236 c 0,16,17
 0 248 0 248 3.5 260.5 c 128,-1,18
 7 273 7 273 15.5 287.5 c 128,-1,19
 24 302 24 302 29.5 310.5 c 128,-1,20
 35 319 35 319 47 335 c 128,-1,21
 59 351 59 351 61 354 c 0,22,23
 199 548 199 548 385 864 c 1,24,25
 440 960 440 960 536 960 c 0,26,27
 663 960 663 960 663 892 c 0,28,29
 663 879 663 879 659 865 c 128,-1,30
 655 851 655 851 647 833.5 c 128,-1,31
 639 816 639 816 633 804.5 c 128,-1,32
 627 793 627 793 615.5 773.5 c 128,-1,33
 604 754 604 754 600 747 c 2,34,-1
 559 673 l 1,35,36
 564 662 564 662 590 616 c 128,-1,37
 616 570 616 570 632 537 c 128,-1,38
 648 504 648 504 663 452.5 c 128,-1,39
 678 401 678 401 678 357 c 0,40,41
 678 280 678 280 635 216 c 1,42,43
 712 250 712 250 783.5 293.5 c 128,-1,44
 855 337 855 337 894.5 366.5 c 128,-1,45
 934 396 934 396 999 448 c 1,46,47
 1012 457 1012 457 1023 457 c 0,48,49
 1042 457 1042 457 1052 431 c 128,-1,50
 1062 405 1062 405 1062 366 c 0,51,52
 1062 324 1062 324 1055 302 c 128,-1,53
 1048 280 1048 280 1031 264 c 0,54,55
 898 143 898 143 729.5 62 c 128,-1,56
 561 -19 561 -19 415 -19 c 0,10,11
EndSplineSet
Substitution2: "Single Substitution lookup 4 subtable" s.init
Substitution2: "Single Substitution lookup 3 subtable" s.fina
Substitution2: "Single Substitution lookup 2 subtable" s.fin2
EndChar

StartChar: t
Encoding: 116 116 87
Width: 727
GlyphClass: 2
Flags: MW
LayerCount: 2
Fore
SplineSet
469 1080 m 1,0,1
 477 1094 477 1094 510.5 1146 c 128,-1,2
 544 1198 544 1198 561.5 1229.5 c 128,-1,3
 579 1261 579 1261 603 1310 c 128,-1,4
 627 1359 627 1359 638.5 1403.5 c 128,-1,5
 650 1448 650 1448 650 1490 c 0,6,7
 650 1568 650 1568 597 1568 c 0,8,9
 575 1568 575 1568 554 1547 c 128,-1,10
 533 1526 533 1526 516 1488 c 128,-1,11
 499 1450 499 1450 484.5 1407.5 c 128,-1,12
 470 1365 470 1365 457.5 1312.5 c 128,-1,13
 445 1260 445 1260 436.5 1220.5 c 128,-1,14
 428 1181 428 1181 419.5 1137 c 128,-1,15
 411 1093 411 1093 408 1080 c 1,16,-1
 469 1080 l 1,0,1
135 486 m 0,17,18
 135 592 135 592 149.5 710.5 c 128,-1,19
 164 829 164 829 189 922 c 1,20,21
 95 922 95 922 38 950.5 c 128,-1,22
 -19 979 -19 979 -19 1019 c 0,23,24
 -19 1056 -19 1056 13 1068 c 128,-1,25
 45 1080 45 1080 108 1080 c 2,26,-1
 217 1080 l 1,27,28
 310 1552 310 1552 491 1732 c 0,29,30
 552 1792 552 1792 619 1792 c 0,31,32
 682 1792 682 1792 727 1746.5 c 128,-1,33
 772 1701 772 1701 791 1636.5 c 128,-1,34
 810 1572 810 1572 810 1499 c 0,35,36
 810 1471 810 1471 807 1444.5 c 128,-1,37
 804 1418 804 1418 795.5 1389.5 c 128,-1,38
 787 1361 787 1361 781.5 1341 c 128,-1,39
 776 1321 776 1321 760 1290 c 128,-1,40
 744 1259 744 1259 738.5 1246 c 128,-1,41
 733 1233 733 1233 711.5 1199.5 c 128,-1,42
 690 1166 690 1166 686 1159.5 c 128,-1,43
 682 1153 682 1153 658 1117 c 128,-1,44
 634 1081 634 1081 633 1080 c 1,45,46
 638 1080 638 1080 644.5 1080 c 128,-1,47
 651 1080 651 1080 661 1080 c 128,-1,48
 671 1080 671 1080 678 1080 c 2,49,-1
 826 1080 l 2,50,51
 905 1080 905 1080 937.5 1066 c 128,-1,52
 970 1052 970 1052 970 1001 c 0,53,54
 970 970 970 970 951.5 946 c 128,-1,55
 933 922 933 922 906 922 c 2,56,-1
 522 922 l 1,57,58
 519 916 519 916 512 905 c 0,59,60
 475 845 475 845 459 817.5 c 128,-1,61
 443 790 443 790 422.5 747 c 128,-1,62
 402 704 402 704 394.5 671 c 128,-1,63
 387 638 387 638 381.5 592 c 128,-1,64
 376 546 376 546 376 487 c 0,65,66
 376 409 376 409 391 352 c 128,-1,67
 406 295 406 295 432.5 264 c 128,-1,68
 459 233 459 233 490 218.5 c 128,-1,69
 521 204 521 204 557 204 c 0,70,71
 592 204 592 204 628.5 217 c 128,-1,72
 665 230 665 230 693 247 c 128,-1,73
 721 264 721 264 755 293.5 c 128,-1,74
 789 323 789 323 808.5 343 c 128,-1,75
 828 363 828 363 858.5 396 c 128,-1,76
 889 429 889 429 900 440 c 1,77,78
 912 454 912 454 930 454 c 0,79,80
 957 454 957 454 980 429.5 c 128,-1,81
 1003 405 1003 405 1003 369 c 128,-1,82
 1003 333 1003 333 980 301 c 0,83,84
 933 234 933 234 887 182 c 128,-1,85
 841 130 841 130 785.5 85 c 128,-1,86
 730 40 730 40 667 15.5 c 128,-1,87
 604 -9 604 -9 538 -9 c 0,88,89
 457 -9 457 -9 389.5 18 c 128,-1,90
 322 45 322 45 275.5 91.5 c 128,-1,91
 229 138 229 138 196.5 201 c 128,-1,92
 164 264 164 264 149.5 336 c 128,-1,93
 135 408 135 408 135 486 c 0,17,18
EndSplineSet
Substitution2: "Single Substitution lookup 4 subtable" t.init
Substitution2: "Single Substitution lookup 3 subtable" t.fina
EndChar

StartChar: u
Encoding: 117 117 88
Width: 927
GlyphClass: 2
Flags: MW
LayerCount: 2
Fore
SplineSet
872 895 m 0,0,1
 872 823 872 823 825.5 574.5 c 128,-1,2
 779 326 779 326 779 278 c 0,3,4
 779 177 779 177 824 177 c 0,5,6
 846 177 846 177 880 203.5 c 128,-1,7
 914 230 914 230 939.5 258.5 c 128,-1,8
 965 287 965 287 996 324.5 c 128,-1,9
 1027 362 1027 362 1030 365 c 0,10,11
 1062 401 1062 401 1096 401 c 0,12,13
 1133 401 1133 401 1157.5 362.5 c 128,-1,14
 1182 324 1182 324 1182 264 c 1,15,16
 1133 163 1133 163 1018 81.5 c 128,-1,17
 903 0 903 0 788 0 c 0,18,19
 755 0 755 0 721.5 12 c 128,-1,20
 688 24 688 24 656.5 47 c 128,-1,21
 625 70 625 70 603.5 112 c 128,-1,22
 582 154 582 154 579 208 c 1,23,24
 575 200 575 200 568 185.5 c 128,-1,25
 561 171 561 171 535 135.5 c 128,-1,26
 509 100 509 100 479.5 72.5 c 128,-1,27
 450 45 450 45 400.5 22.5 c 128,-1,28
 351 0 351 0 298 0 c 0,29,30
 179 0 179 0 128 83.5 c 128,-1,31
 77 167 77 167 77 320 c 0,32,33
 77 397 77 397 91 497 c 128,-1,34
 105 597 105 597 132.5 705 c 128,-1,35
 160 813 160 813 212.5 886 c 128,-1,36
 265 959 265 959 332 959 c 0,37,38
 367 959 367 959 394.5 938.5 c 128,-1,39
 422 918 422 918 422 872 c 0,40,41
 422 860 422 860 421 857 c 0,42,43
 314 556 314 556 314 328 c 0,44,45
 314 286 314 286 333 255.5 c 128,-1,46
 352 225 352 225 392 225 c 0,47,48
 451 225 451 225 489.5 276 c 128,-1,49
 528 327 528 327 541 394 c 2,50,-1
 640 902 l 2,51,52
 646 928 646 928 683 943.5 c 128,-1,53
 720 959 720 959 761 959 c 0,54,55
 806 959 806 959 839 943 c 128,-1,56
 872 927 872 927 872 895 c 0,0,1
EndSplineSet
EndChar

StartChar: v
Encoding: 118 118 89
Width: 907
GlyphClass: 2
Flags: MW
LayerCount: 2
Fore
SplineSet
846 211 m 0,0,1
 759 211 759 211 698.5 241 c 128,-1,2
 638 271 638 271 601 342 c 1,3,4
 556 248 556 248 495.5 162 c 128,-1,5
 435 76 435 76 370 22 c 0,6,7
 331 -11 331 -11 295 -11 c 0,8,9
 237 -11 237 -11 197.5 32 c 128,-1,10
 158 75 158 75 139.5 153.5 c 128,-1,11
 121 232 121 232 114 311.5 c 128,-1,12
 107 391 107 391 107 495 c 0,13,14
 107 553 107 553 109.5 649 c 128,-1,15
 112 745 112 745 112 778 c 0,16,17
 112 858 112 858 146 910 c 128,-1,18
 180 962 180 962 247 962 c 0,19,20
 303 962 303 962 338.5 927 c 128,-1,21
 374 892 374 892 374 837 c 2,22,-1
 374 826 l 1,23,-1
 335 261 l 1,24,-1
 349 262 l 1,25,-1
 612 889 l 1,26,27
 619 921 619 921 652.5 940.5 c 128,-1,28
 686 960 686 960 728 960 c 0,29,30
 776 960 776 960 818 941.5 c 128,-1,31
 860 923 860 923 860 893 c 0,32,33
 860 884 860 884 856 876 c 0,34,35
 855 874 855 874 831 819.5 c 128,-1,36
 807 765 807 765 800 745 c 128,-1,37
 793 725 793 725 777 679 c 128,-1,38
 761 633 761 633 755 597.5 c 128,-1,39
 749 562 749 562 749 528 c 0,40,41
 749 365 749 365 883 365 c 0,42,43
 975 365 975 365 1094 442 c 0,44,45
 1106 450 1106 450 1121 450 c 0,46,47
 1140 450 1140 450 1151 431.5 c 128,-1,48
 1162 413 1162 413 1162 387 c 0,49,50
 1162 326 1162 326 1115 297 c 0,51,52
 1062 265 1062 265 984.5 238 c 128,-1,53
 907 211 907 211 846 211 c 0,0,1
EndSplineSet
EndChar

StartChar: w
Encoding: 119 119 90
Width: 1249
GlyphClass: 2
Flags: MW
LayerCount: 2
Fore
SplineSet
66 316 m 0,0,1
 66 326 66 326 66 348 c 128,-1,2
 66 370 66 370 66 383 c 0,3,4
 66 434 66 434 66.5 473 c 128,-1,5
 67 512 67 512 69 568 c 128,-1,6
 71 624 71 624 75.5 666 c 128,-1,7
 80 708 80 708 87 756 c 128,-1,8
 94 804 94 804 105.5 838.5 c 128,-1,9
 117 873 117 873 131.5 902 c 128,-1,10
 146 931 146 931 167.5 946 c 128,-1,11
 189 961 189 961 215 961 c 1,12,-1
 239 959 l 1,13,14
 277 959 277 959 302 945 c 128,-1,15
 327 931 327 931 327 905 c 2,16,-1
 327 898 l 1,17,-1
 257 314 l 1,18,-1
 275 355 l 2,19,20
 295 402 295 402 359 565.5 c 128,-1,21
 423 729 423 729 465 812 c 0,22,23
 482 846 482 846 498.5 869.5 c 128,-1,24
 515 893 515 893 539.5 915 c 128,-1,25
 564 937 564 937 597 948 c 128,-1,26
 630 959 630 959 673 959 c 0,27,28
 710 959 710 959 735.5 945.5 c 128,-1,29
 761 932 761 932 761 906 c 0,30,31
 761 902 761 902 760 898 c 2,32,-1
 688 354 l 1,33,-1
 682 296 l 1,34,-1
 936 891 l 2,35,36
 949 921 949 921 990 940.5 c 128,-1,37
 1031 960 1031 960 1079 960 c 0,38,39
 1111 960 1111 960 1138.5 939 c 128,-1,40
 1166 918 1166 918 1166 884 c 0,41,42
 1166 876 1166 876 1162 868 c 1,43,44
 1155 845 1155 845 1133 777.5 c 128,-1,45
 1111 710 1111 710 1101 673.5 c 128,-1,46
 1091 637 1091 637 1080.5 572 c 128,-1,47
 1070 507 1070 507 1070 444 c 0,48,49
 1070 324 1070 324 1171 324 c 0,50,51
 1195 324 1195 324 1226 336 c 128,-1,52
 1257 348 1257 348 1293.5 371 c 128,-1,53
 1330 394 1330 394 1352.5 409.5 c 128,-1,54
 1375 425 1375 425 1410 451 c 0,55,56
 1417 457 1417 457 1421 460 c 0,57,58
 1448 480 1448 480 1470 480 c 0,59,60
 1485 480 1485 480 1498.5 459.5 c 128,-1,61
 1512 439 1512 439 1512 413 c 0,62,63
 1512 395 1512 395 1505 379 c 1,64,65
 1478 349 1478 349 1463 332 c 128,-1,66
 1448 315 1448 315 1420 286.5 c 128,-1,67
 1392 258 1392 258 1371 241.5 c 128,-1,68
 1350 225 1350 225 1319.5 204 c 128,-1,69
 1289 183 1289 183 1262 172 c 128,-1,70
 1235 161 1235 161 1200.5 153 c 128,-1,71
 1166 145 1166 145 1131 145 c 0,72,73
 1032 145 1032 145 976.5 222.5 c 128,-1,74
 921 300 921 300 919 437 c 1,75,76
 917 432 917 432 912 418 c 0,77,78
 898 382 898 382 889.5 360.5 c 128,-1,79
 881 339 881 339 864.5 296.5 c 128,-1,80
 848 254 848 254 835 226 c 128,-1,81
 822 198 822 198 803.5 160 c 128,-1,82
 785 122 785 122 769 97.5 c 128,-1,83
 753 73 753 73 735 49.5 c 128,-1,84
 717 26 717 26 699 14.5 c 128,-1,85
 681 3 681 3 665 3 c 0,86,87
 642 3 642 3 623.5 14 c 128,-1,88
 605 25 605 25 593 42 c 128,-1,89
 581 59 581 59 572.5 87.5 c 128,-1,90
 564 116 564 116 559.5 142 c 128,-1,91
 555 168 555 168 552.5 208 c 128,-1,92
 550 248 550 248 549.5 276.5 c 128,-1,93
 549 305 549 305 549 348 c 0,94,95
 549 374 549 374 549 410 c 128,-1,96
 549 446 549 446 549 478.5 c 128,-1,97
 549 511 549 511 549 539.5 c 128,-1,98
 549 568 549 568 548.5 585.5 c 128,-1,99
 548 603 548 603 548 603 c 1,100,-1
 516 499 l 1,101,102
 427 162 427 162 272 38 c 0,103,104
 228 3 228 3 200 3 c 0,105,106
 160 3 160 3 132.5 26.5 c 128,-1,107
 105 50 105 50 91 95.5 c 128,-1,108
 77 141 77 141 71.5 193 c 128,-1,109
 66 245 66 245 66 316 c 0,0,1
EndSplineSet
Substitution2: "Single Substitution lookup 3 subtable" w.fina
EndChar

StartChar: x
Encoding: 120 120 91
Width: 1025
GlyphClass: 2
Flags: MW
LayerCount: 2
Fore
SplineSet
498 235 m 1,0,1
 486 221 486 221 458 184.5 c 128,-1,2
 430 148 430 148 406.5 121 c 128,-1,3
 383 94 383 94 352.5 63.5 c 128,-1,4
 322 33 322 33 289 16.5 c 128,-1,5
 256 0 256 0 224 0 c 0,6,7
 171 0 171 0 131.5 22 c 128,-1,8
 92 44 92 44 69.5 84 c 128,-1,9
 47 124 47 124 35.5 170 c 128,-1,10
 24 216 24 216 22 272 c 1,11,-1
 166 358 l 1,12,13
 191 242 191 242 234 242 c 0,14,15
 255 242 255 242 281.5 266 c 128,-1,16
 308 290 308 290 326 316 c 128,-1,17
 344 342 344 342 369.5 382 c 128,-1,18
 395 422 395 422 401 430 c 1,19,20
 339 573 339 573 281 771 c 0,21,22
 279 779 279 779 279 781 c 0,23,24
 279 823 279 823 332.5 859.5 c 128,-1,25
 386 896 386 896 436 896 c 0,26,27
 465 896 465 896 490 866 c 128,-1,28
 515 836 515 836 528 803 c 128,-1,29
 541 770 541 770 558.5 719 c 128,-1,30
 576 668 576 668 582 653 c 1,31,32
 699 776 699 776 832 864 c 0,33,34
 879 895 879 895 919 895 c 0,35,36
 964 895 964 895 988.5 862 c 128,-1,37
 1013 829 1013 829 1013 780 c 0,38,39
 1013 705 1013 705 960 672 c 0,40,41
 821 584 821 584 680 436 c 1,42,43
 683 431 683 431 697 401 c 128,-1,44
 711 371 711 371 720 354 c 128,-1,45
 729 337 729 337 746 308.5 c 128,-1,46
 763 280 763 280 777 264 c 128,-1,47
 791 248 791 248 809.5 235.5 c 128,-1,48
 828 223 828 223 845 223 c 0,49,50
 983 223 983 223 1164 424 c 0,51,52
 1199 463 1199 463 1222 463 c 0,53,54
 1254 463 1254 463 1254 390 c 0,55,56
 1254 345 1254 345 1242 296.5 c 128,-1,57
 1230 248 1230 248 1216 234 c 0,58,59
 973 0 973 0 736 0 c 0,60,61
 700 0 700 0 665.5 21 c 128,-1,62
 631 42 631 42 598.5 83.5 c 128,-1,63
 566 125 566 125 546.5 155 c 128,-1,64
 527 185 527 185 498 235 c 1,0,1
EndSplineSet
EndChar

StartChar: y
Encoding: 121 121 92
Width: 928
GlyphClass: 2
Flags: MW
LayerCount: 2
Fore
SplineSet
172 -736 m 0,0,1
 228 -736 228 -736 276.5 -700.5 c 128,-1,2
 325 -665 325 -665 356 -615 c 128,-1,3
 387 -565 387 -565 414 -493.5 c 128,-1,4
 441 -422 441 -422 454.5 -369 c 128,-1,5
 468 -316 468 -316 480 -256 c 1,6,7
 376 -325 376 -325 285 -428 c 128,-1,8
 194 -531 194 -531 147 -641 c 0,9,10
 132 -676 132 -676 132 -699 c 0,11,12
 132 -736 132 -736 172 -736 c 0,0,1
320 324 m 0,13,14
 320 192 320 192 398 192 c 0,15,16
 414 192 414 192 428.5 197 c 128,-1,17
 443 202 443 202 455.5 213 c 128,-1,18
 468 224 468 224 478.5 234.5 c 128,-1,19
 489 245 489 245 499 265 c 128,-1,20
 509 285 509 285 516 297.5 c 128,-1,21
 523 310 523 310 531 335 c 128,-1,22
 539 360 539 360 543 371.5 c 128,-1,23
 547 383 547 383 554 409.5 c 128,-1,24
 561 436 561 436 562.5 442.5 c 128,-1,25
 564 449 564 449 570 474 c 2,26,-1
 640 768 l 2,27,28
 654 828 654 828 706 868.5 c 128,-1,29
 758 909 758 909 826 909 c 0,30,31
 858 909 858 909 878.5 895 c 128,-1,32
 899 881 899 881 899 853 c 0,33,34
 899 774 899 774 861 607 c 128,-1,35
 823 440 823 440 819 412 c 0,36,37
 813 373 813 373 795 275 c 128,-1,38
 777 177 777 177 768 114 c 1,39,40
 989 298 989 298 1106 407 c 0,41,42
 1113 413 1113 413 1130 413 c 0,43,44
 1165 413 1165 413 1194.5 372.5 c 128,-1,45
 1224 332 1224 332 1224 284 c 0,46,47
 1224 256 1224 256 1207.5 234 c 128,-1,48
 1191 212 1191 212 1154 185 c 0,49,50
 1078 128 1078 128 915.5 16 c 128,-1,51
 753 -96 753 -96 736 -108 c 1,52,53
 720 -198 720 -198 705.5 -265.5 c 128,-1,54
 691 -333 691 -333 665.5 -423.5 c 128,-1,55
 640 -514 640 -514 611 -580 c 128,-1,56
 582 -646 582 -646 537.5 -715 c 128,-1,57
 493 -784 493 -784 441 -828 c 128,-1,58
 389 -872 389 -872 316.5 -900 c 128,-1,59
 244 -928 244 -928 160 -928 c 0,60,61
 -64 -928 -64 -928 -64 -729 c 0,62,63
 -64 -708 -64 -708 -60.5 -686.5 c 128,-1,64
 -57 -665 -57 -665 -53 -647.5 c 128,-1,65
 -49 -630 -49 -630 -38 -607 c 128,-1,66
 -27 -584 -27 -584 -21.5 -570.5 c 128,-1,67
 -16 -557 -16 -557 0 -533 c 128,-1,68
 16 -509 16 -509 21.5 -500 c 128,-1,69
 27 -491 27 -491 46.5 -465.5 c 128,-1,70
 66 -440 66 -440 69.5 -435.5 c 128,-1,71
 73 -431 73 -431 95 -405 c 128,-1,72
 117 -379 117 -379 117 -378 c 0,73,74
 150 -338 150 -338 186 -300 c 128,-1,75
 222 -262 222 -262 268.5 -221 c 128,-1,76
 315 -180 315 -180 343 -156.5 c 128,-1,77
 371 -133 371 -133 432.5 -84 c 128,-1,78
 494 -35 494 -35 514 -18 c 1,79,-1
 541 105 l 1,80,81
 421 -2 421 -2 315 -2 c 0,82,83
 202 -2 202 -2 133 79 c 128,-1,84
 64 160 64 160 64 281 c 0,85,86
 64 444 64 444 96.5 574.5 c 128,-1,87
 129 705 129 705 192 832 c 0,88,89
 212 871 212 871 253 897.5 c 128,-1,90
 294 924 294 924 342 924 c 0,91,92
 379 924 379 924 403 905.5 c 128,-1,93
 427 887 427 887 427 852 c 0,94,95
 427 826 427 826 419.5 800.5 c 128,-1,96
 412 775 412 775 399 744 c 128,-1,97
 386 713 386 713 380 692 c 0,98,99
 320 476 320 476 320 324 c 0,13,14
EndSplineSet
Substitution2: "Single Substitution lookup 3 subtable" y.fina
EndChar

StartChar: z
Encoding: 122 122 93
Width: 743
GlyphClass: 2
Flags: MW
LayerCount: 2
Fore
SplineSet
166 -2 m 0,0,1
 110 -2 110 -2 79.5 33.5 c 128,-1,2
 49 69 49 69 49 127 c 0,3,4
 49 156 49 156 65.5 177 c 128,-1,5
 82 198 82 198 107.5 217.5 c 128,-1,6
 133 237 133 237 143 251 c 2,7,-1
 484 729 l 1,8,9
 422 742 422 742 369 742 c 0,10,11
 324 742 324 742 257.5 723.5 c 128,-1,12
 191 705 191 705 154 705 c 0,13,14
 125 705 125 705 125 758 c 0,15,16
 125 808 125 808 131 845.5 c 128,-1,17
 137 883 137 883 151.5 916 c 128,-1,18
 166 949 166 949 194.5 966.5 c 128,-1,19
 223 984 223 984 265 984 c 0,20,21
 327 984 327 984 427.5 948 c 128,-1,22
 528 912 528 912 591 912 c 0,23,24
 619 912 619 912 671 918 c 128,-1,25
 723 924 723 924 747 924 c 0,26,27
 792 924 792 924 810.5 901.5 c 128,-1,28
 829 879 829 879 829 831 c 0,29,30
 829 781 829 781 811 761.5 c 128,-1,31
 793 742 793 742 743 729 c 1,32,33
 699 654 699 654 636.5 575.5 c 128,-1,34
 574 497 574 497 483 395 c 128,-1,35
 392 293 392 293 360 255 c 1,36,-1
 355 235 l 1,37,38
 386 235 386 235 465 212.5 c 128,-1,39
 544 190 544 190 586 190 c 0,40,41
 631 190 631 190 675.5 203.5 c 128,-1,42
 720 217 720 217 743.5 229.5 c 128,-1,43
 767 242 767 242 811.5 271 c 128,-1,44
 856 300 856 300 870 308 c 0,45,46
 906 329 906 329 945 329 c 0,47,48
 972 329 972 329 989.5 309 c 128,-1,49
 1007 289 1007 289 1007 261 c 0,50,51
 1007 203 1007 203 954.5 151.5 c 128,-1,52
 902 100 902 100 825.5 67.5 c 128,-1,53
 749 35 749 35 668 16.5 c 128,-1,54
 587 -2 587 -2 524 -2 c 0,55,56
 483 -2 483 -2 432 11.5 c 128,-1,57
 381 25 381 25 354 35.5 c 128,-1,58
 327 46 327 46 272 70 c 1,59,60
 267 66 267 66 250 49.5 c 128,-1,61
 233 33 233 33 223 24 c 128,-1,62
 213 15 213 15 196.5 6.5 c 128,-1,63
 180 -2 180 -2 166 -2 c 0,0,1
EndSplineSet
EndChar

StartChar: braceleft
Encoding: 123 123 94
Width: 1153
GlyphClass: 2
Flags: MW
LayerCount: 2
Fore
SplineSet
487 1384 m 1,0,1
 500 1468 500 1468 529 1543 c 128,-1,2
 558 1618 558 1618 604.5 1683 c 128,-1,3
 651 1748 651 1748 721 1786 c 128,-1,4
 791 1824 791 1824 877 1824 c 0,5,6
 1150 1824 1150 1824 1278 1728 c 1,7,8
 1305 1706 1305 1706 1305 1669 c 0,9,10
 1305 1617 1305 1617 1269 1576.5 c 128,-1,11
 1233 1536 1233 1536 1183 1536 c 0,12,13
 1136 1536 1136 1536 1043.5 1552 c 128,-1,14
 951 1568 951 1568 900 1568 c 0,15,16
 843 1568 843 1568 803.5 1521.5 c 128,-1,17
 764 1475 764 1475 744 1399 c 128,-1,18
 724 1323 724 1323 711.5 1245.5 c 128,-1,19
 699 1168 699 1168 686.5 1086.5 c 128,-1,20
 674 1005 674 1005 660 968 c 0,21,22
 604 823 604 823 488 781 c 1,23,24
 627 746 627 746 627 534 c 0,25,26
 627 455 627 455 603.5 307 c 128,-1,27
 580 159 580 159 580 86 c 0,28,29
 580 17 580 17 600 -19.5 c 128,-1,30
 620 -56 620 -56 675 -56 c 0,31,32
 727 -56 727 -56 802.5 -19 c 128,-1,33
 878 18 878 18 926 18 c 0,34,35
 970 18 970 18 994.5 -11 c 128,-1,36
 1019 -40 1019 -40 1019 -87 c 0,37,38
 1019 -146 1019 -146 972.5 -192 c 128,-1,39
 926 -238 926 -238 854 -263 c 128,-1,40
 782 -288 782 -288 709 -300 c 128,-1,41
 636 -312 636 -312 570 -312 c 0,42,43
 441 -312 441 -312 376.5 -218 c 128,-1,44
 312 -124 312 -124 312 23 c 0,45,46
 312 97 312 97 338.5 233 c 128,-1,47
 365 369 365 369 365 439 c 0,48,49
 365 527 365 527 326.5 579.5 c 128,-1,50
 288 632 288 632 209 632 c 0,51,52
 170 632 170 632 151 661 c 128,-1,53
 132 690 132 690 132 735 c 0,54,55
 132 803 132 803 165.5 861 c 128,-1,56
 199 919 199 919 254 920 c 0,57,58
 379 923 379 923 433 988.5 c 128,-1,59
 487 1054 487 1054 487 1176 c 2,60,-1
 487 1384 l 1,0,1
EndSplineSet
EndChar

StartChar: bar
Encoding: 124 124 95
Width: 1248
GlyphClass: 2
Flags: MW
LayerCount: 2
Fore
SplineSet
584 -43 m 1,0,1
 578 -43 578 -43 551 -14.5 c 128,-1,2
 524 14 524 14 498 57 c 128,-1,3
 472 100 472 100 472 129 c 0,4,5
 472 238 472 238 489.5 362 c 128,-1,6
 507 486 507 486 539 646 c 128,-1,7
 571 806 571 806 582 877 c 0,8,9
 612 1064 612 1064 715 1696 c 0,10,11
 726 1766 726 1766 773 1811 c 128,-1,12
 820 1856 820 1856 892 1856 c 0,13,14
 935 1856 935 1856 961 1820.5 c 128,-1,15
 987 1785 987 1785 987 1739 c 0,16,17
 987 1641 987 1641 971.5 1532 c 128,-1,18
 956 1423 956 1423 929 1286.5 c 128,-1,19
 902 1150 902 1150 891 1080 c 0,20,21
 860 879 860 879 750 128 c 0,22,23
 741 62 741 62 693.5 15 c 128,-1,24
 646 -32 646 -32 579 -32 c 1,25,26
 584 -39 584 -39 584 -43 c 1,0,1
584 -43 m 0,27,-1
EndSplineSet
EndChar

StartChar: braceright
Encoding: 125 125 96
Width: 1248
GlyphClass: 2
Flags: MW
LayerCount: 2
Fore
SplineSet
1016 1415 m 0,0,1
 1016 1332 1016 1332 985.5 1179.5 c 128,-1,2
 955 1027 955 1027 955 943 c 0,3,4
 955 866 955 866 995 834 c 128,-1,5
 1035 802 1035 802 1118 800 c 0,6,7
 1156 799 1156 799 1174.5 767 c 128,-1,8
 1193 735 1193 735 1193 688 c 0,9,10
 1193 620 1193 620 1161.5 566 c 128,-1,11
 1130 512 1130 512 1073 512 c 0,12,13
 993 512 993 512 943 466 c 128,-1,14
 893 420 893 420 880 346 c 0,15,16
 840 109 840 109 818 28 c 0,17,18
 760 -183 760 -183 639 -274 c 0,19,20
 614 -293 614 -293 586 -308 c 0,21,22
 520 -342 520 -342 450 -342 c 0,23,24
 397 -342 397 -342 334 -331.5 c 128,-1,25
 271 -321 271 -321 209 -300.5 c 128,-1,26
 147 -280 147 -280 105.5 -243.5 c 128,-1,27
 64 -207 64 -207 64 -163 c 0,28,29
 64 -103 64 -103 102 -58 c 128,-1,30
 140 -13 140 -13 195 -12 c 1,31,32
 211 -25 211 -25 291 -55.5 c 128,-1,33
 371 -86 371 -86 427 -86 c 128,-1,34
 483 -86 483 -86 522 -40 c 128,-1,35
 561 6 561 6 581.5 80 c 128,-1,36
 602 154 602 154 615 230 c 128,-1,37
 628 306 628 306 641.5 385.5 c 128,-1,38
 655 465 655 465 670 501 c 0,39,40
 726 636 726 636 840 661 c 1,41,42
 702 712 702 712 702 916 c 0,43,44
 702 992 702 992 725 1135.5 c 128,-1,45
 748 1279 748 1279 748 1350 c 0,46,47
 748 1419 748 1419 728 1453.5 c 128,-1,48
 708 1488 708 1488 652 1488 c 0,49,50
 600 1488 600 1488 503.5 1472 c 128,-1,51
 407 1456 407 1456 359 1456 c 0,52,53
 320 1456 320 1456 297 1483 c 128,-1,54
 274 1510 274 1510 274 1552 c 0,55,56
 274 1610 274 1610 323.5 1651 c 128,-1,57
 373 1692 373 1692 454.5 1710.5 c 128,-1,58
 536 1729 536 1729 608.5 1736.5 c 128,-1,59
 681 1744 681 1744 757 1744 c 0,60,61
 886 1744 886 1744 951 1652.5 c 128,-1,62
 1016 1561 1016 1561 1016 1415 c 0,0,1
195 -12 m 1,63,64
 194 -11 194 -11 195 -11 c 0,65,66
 197 -12 197 -12 198 -12 c 2,67,-1
 195 -12 l 1,63,64
EndSplineSet
EndChar

StartChar: asciitilde
Encoding: 126 126 97
Width: 864
GlyphClass: 2
Flags: MW
LayerCount: 2
Fore
SplineSet
229 1378 m 0,0,1
 193 1378 193 1378 169.5 1397.5 c 128,-1,2
 146 1417 146 1417 146 1451 c 0,3,4
 146 1539 146 1539 225.5 1626 c 128,-1,5
 305 1713 305 1713 392 1713 c 0,6,7
 430 1713 430 1713 464.5 1696.5 c 128,-1,8
 499 1680 499 1680 516.5 1664 c 128,-1,9
 534 1648 534 1648 565.5 1613.5 c 128,-1,10
 597 1579 597 1579 608 1568 c 2,11,-1
 710 1467 l 1,12,13
 723 1482 723 1482 744.5 1514.5 c 128,-1,14
 766 1547 766 1547 782 1569.5 c 128,-1,15
 798 1592 798 1592 827.5 1611 c 128,-1,16
 857 1630 857 1630 891 1630 c 0,17,18
 927 1630 927 1630 950.5 1610.5 c 128,-1,19
 974 1591 974 1591 974 1557 c 0,20,21
 974 1469 974 1469 894.5 1382 c 128,-1,22
 815 1295 815 1295 728 1295 c 0,23,24
 690 1295 690 1295 655.5 1311.5 c 128,-1,25
 621 1328 621 1328 603.5 1344 c 128,-1,26
 586 1360 586 1360 554.5 1394.5 c 128,-1,27
 523 1429 523 1429 512 1440 c 2,28,-1
 410 1541 l 1,29,30
 400 1529 400 1529 377 1494 c 128,-1,31
 354 1459 354 1459 338 1437.5 c 128,-1,32
 322 1416 322 1416 292 1397 c 128,-1,33
 262 1378 262 1378 229 1378 c 0,0,1
EndSplineSet
EndChar

StartChar: exclamdown
Encoding: 161 161 98
Width: 1184
GlyphClass: 2
Flags: MW
LayerCount: 2
Fore
SplineSet
658 1663 m 0,0,1
 658 1748 658 1748 706 1802 c 128,-1,2
 754 1856 754 1856 839 1856 c 0,3,4
 919 1856 919 1856 961 1814 c 128,-1,5
 1003 1772 1003 1772 1003 1692 c 0,6,7
 1003 1604 1003 1604 955 1552.5 c 128,-1,8
 907 1501 907 1501 820 1501 c 0,9,10
 742 1501 742 1501 700 1543 c 128,-1,11
 658 1585 658 1585 658 1663 c 0,0,1
789 1392 m 0,12,13
 835 1392 835 1392 835 1357 c 0,14,15
 835 1356 835 1356 833 1342 c 0,16,17
 818 1188 818 1188 782 1017 c 128,-1,18
 746 846 746 846 712.5 728.5 c 128,-1,19
 679 611 679 611 623 427.5 c 128,-1,20
 567 244 567 244 541 150 c 0,21,22
 498 -2 498 -2 321 -2 c 1,23,24
 326 -9 326 -9 326 -10 c 0,25,26
 326 -12 326 -12 325 -12 c 0,27,28
 313 -12 313 -12 279.5 25 c 128,-1,29
 246 62 246 62 246 93 c 0,30,31
 246 113 246 113 247 132.5 c 128,-1,32
 248 152 248 152 251.5 173.5 c 128,-1,33
 255 195 255 195 257.5 210.5 c 128,-1,34
 260 226 260 226 266 248.5 c 128,-1,35
 272 271 272 271 275 283 c 128,-1,36
 278 295 278 295 286.5 320 c 128,-1,37
 295 345 295 345 297.5 353.5 c 128,-1,38
 300 362 300 362 310 390 c 128,-1,39
 320 418 320 418 322 424 c 0,40,41
 371 567 371 567 431.5 713 c 128,-1,42
 492 859 492 859 578 1052 c 128,-1,43
 664 1245 664 1245 705 1342 c 1,44,45
 709 1365 709 1365 734 1378.5 c 128,-1,46
 759 1392 759 1392 789 1392 c 0,12,13
EndSplineSet
EndChar

StartChar: cent
Encoding: 162 162 99
Width: 896
GlyphClass: 2
Flags: MW
LayerCount: 2
Fore
SplineSet
491 750 m 1,0,1
 407 716 407 716 363.5 626 c 128,-1,2
 320 536 320 536 320 414 c 0,3,4
 320 327 320 327 350 267.5 c 128,-1,5
 380 208 380 208 444 195 c 1,6,7
 472 540 472 540 491 750 c 1,0,1
429 0 m 1,8,9
 258 2 258 2 161 117.5 c 128,-1,10
 64 233 64 233 64 413 c 0,11,12
 64 626 64 626 191 780.5 c 128,-1,13
 318 935 318 935 509 956 c 1,14,-1
 515 1023 l 1,15,16
 517 1068 517 1068 540.5 1101.5 c 128,-1,17
 564 1135 564 1135 604 1135 c 0,18,19
 623 1135 623 1135 634 1109 c 128,-1,20
 645 1083 645 1083 645 1057 c 0,21,22
 645 1015 645 1015 638 954 c 1,23,24
 704 944 704 944 758 918.5 c 128,-1,25
 812 893 812 893 849 843.5 c 128,-1,26
 886 794 886 794 886 729 c 0,27,28
 886 657 886 657 857 600.5 c 128,-1,29
 828 544 828 544 772 544 c 0,30,31
 737 544 737 544 719.5 564.5 c 128,-1,32
 702 585 702 585 697.5 615 c 128,-1,33
 693 645 693 645 689.5 676.5 c 128,-1,34
 686 708 686 708 670.5 733 c 128,-1,35
 655 758 655 758 624 765 c 1,36,37
 620 711 620 711 613 592.5 c 128,-1,38
 606 474 606 474 600 381 c 128,-1,39
 594 288 594 288 586 202 c 1,40,41
 672 227 672 227 785 307 c 0,42,43
 794 314 794 314 809 314 c 0,44,45
 840 314 840 314 862 283.5 c 128,-1,46
 884 253 884 253 884 218 c 0,47,48
 884 186 884 186 854 161 c 0,49,50
 705 37 705 37 568 5 c 1,51,-1
 552 -130 l 1,52,53
 545 -163 545 -163 532 -181 c 128,-1,54
 519 -199 519 -199 490 -199 c 0,55,56
 486 -199 486 -199 479 -198.5 c 128,-1,57
 472 -198 472 -198 469 -198 c 0,58,59
 445 -198 445 -198 434 -163 c 128,-1,60
 423 -128 423 -128 423 -89 c 0,61,62
 423 -70 423 -70 425.5 -43 c 128,-1,63
 428 -16 428 -16 429 0 c 1,8,9
EndSplineSet
EndChar

StartChar: sterling
Encoding: 163 163 100
Width: 1505
GlyphClass: 2
Flags: MW
LayerCount: 2
Fore
SplineSet
1264 992 m 2,0,1
 1335 992 1335 992 1378.5 962 c 128,-1,2
 1422 932 1422 932 1422 868 c 0,3,4
 1422 768 1422 768 1263 768 c 2,5,-1
 1012 768 l 1,6,7
 999 644 999 644 939 244 c 0,8,9
 934 217 934 217 936 215 c 1,10,11
 1036 215 1036 215 1190.5 243.5 c 128,-1,12
 1345 272 1345 272 1433 272 c 0,13,14
 1493 272 1493 272 1541 245.5 c 128,-1,15
 1589 219 1589 219 1589 170 c 0,16,17
 1589 135 1589 135 1576 109 c 128,-1,18
 1563 83 1563 83 1536.5 66 c 128,-1,19
 1510 49 1510 49 1481.5 38 c 128,-1,20
 1453 27 1453 27 1411.5 21 c 128,-1,21
 1370 15 1370 15 1338 11.5 c 128,-1,22
 1306 8 1306 8 1261 4.5 c 128,-1,23
 1216 1 1216 1 1191 -2 c 0,24,25
 973 -29 973 -29 842 -29 c 0,26,27
 634 -29 634 -29 634 135 c 0,28,29
 634 194 634 194 666 292 c 1,30,31
 674 366 674 366 707 526.5 c 128,-1,32
 740 687 740 687 748 768 c 1,33,-1
 632 768 l 2,34,35
 583 768 583 768 554 799.5 c 128,-1,36
 525 831 525 831 525 879 c 0,37,38
 525 992 525 992 656 992 c 2,39,-1
 768 992 l 1,40,41
 768 1148 768 1148 802.5 1277.5 c 128,-1,42
 837 1407 837 1407 905.5 1505.5 c 128,-1,43
 974 1604 974 1604 1085.5 1659 c 128,-1,44
 1197 1714 1197 1714 1343 1714 c 0,45,46
 1516 1714 1516 1714 1614 1636.5 c 128,-1,47
 1712 1559 1712 1559 1712 1398 c 0,48,49
 1712 1339 1712 1339 1685 1302.5 c 128,-1,50
 1658 1266 1658 1266 1606 1266 c 0,51,52
 1563 1266 1563 1266 1532.5 1291 c 128,-1,53
 1502 1316 1502 1316 1502 1356 c 0,54,55
 1502 1425 1502 1425 1464 1447.5 c 128,-1,56
 1426 1470 1426 1470 1344 1470 c 0,57,58
 1270 1470 1270 1470 1213.5 1444.5 c 128,-1,59
 1157 1419 1157 1419 1121.5 1376.5 c 128,-1,60
 1086 1334 1086 1334 1063.5 1271.5 c 128,-1,61
 1041 1209 1041 1209 1032.5 1141.5 c 128,-1,62
 1024 1074 1024 1074 1024 992 c 1,63,-1
 1264 992 l 2,0,1
EndSplineSet
EndChar

StartChar: currency
Encoding: 164 164 101
Width: 1472
GlyphClass: 2
Flags: MW
LayerCount: 2
Fore
SplineSet
472 901 m 0,0,1
 472 784 472 784 529.5 714.5 c 128,-1,2
 587 645 587 645 696 645 c 0,3,4
 776 645 776 645 839.5 688 c 128,-1,5
 903 731 903 731 940.5 801.5 c 128,-1,6
 978 872 978 872 997 954.5 c 128,-1,7
 1016 1037 1016 1037 1016 1125 c 0,8,9
 1016 1222 1016 1222 965.5 1285 c 128,-1,10
 915 1348 915 1348 824 1348 c 0,11,12
 708 1348 708 1348 626.5 1286 c 128,-1,13
 545 1224 545 1224 508.5 1125.5 c 128,-1,14
 472 1027 472 1027 472 901 c 0,0,1
898 505 m 1,15,16
 792 452 792 452 666 452 c 0,17,18
 516 452 516 452 410 535 c 1,19,20
 401 529 401 529 377 511 c 128,-1,21
 353 493 353 493 341 484.5 c 128,-1,22
 329 476 329 476 307 460.5 c 128,-1,23
 285 445 285 445 269.5 435.5 c 128,-1,24
 254 426 254 426 234 414.5 c 128,-1,25
 214 403 214 403 196 395 c 0,26,27
 165 381 165 381 146 381 c 0,28,29
 113 381 113 381 88.5 410 c 128,-1,30
 64 439 64 439 64 474 c 0,31,32
 64 496 64 496 77.5 516.5 c 128,-1,33
 91 537 91 537 103 547 c 128,-1,34
 115 557 115 557 142 576 c 2,35,-1
 294 681 l 1,36,37
 248 777 248 777 248 901 c 0,38,39
 247 1160 247 1160 397 1343 c 1,40,-1
 302 1429 l 2,41,42
 300 1431 300 1431 293.5 1437 c 128,-1,43
 287 1443 287 1443 285 1445 c 128,-1,44
 283 1447 283 1447 277 1452.5 c 128,-1,45
 271 1458 271 1458 269 1461 c 128,-1,46
 267 1464 267 1464 262 1469.5 c 128,-1,47
 257 1475 257 1475 255.5 1478.5 c 128,-1,48
 254 1482 254 1482 251 1488 c 128,-1,49
 248 1494 248 1494 246.5 1498.5 c 128,-1,50
 245 1503 245 1503 244 1509 c 128,-1,51
 243 1515 243 1515 243 1521 c 0,52,53
 243 1557 243 1557 275.5 1590 c 128,-1,54
 308 1623 308 1623 344 1623 c 0,55,56
 383 1623 383 1623 433 1579 c 2,57,-1
 553 1473 l 1,58,59
 674 1540 674 1540 830 1540 c 0,60,61
 985 1540 985 1540 1089 1462 c 1,62,63
 1093 1465 1093 1465 1147.5 1507.5 c 128,-1,64
 1202 1550 1202 1550 1239.5 1569 c 128,-1,65
 1277 1588 1277 1588 1314 1588 c 0,66,67
 1348 1588 1348 1588 1372.5 1559 c 128,-1,68
 1397 1530 1397 1530 1397 1495 c 0,69,70
 1397 1473 1397 1473 1383.5 1452.5 c 128,-1,71
 1370 1432 1370 1432 1357.5 1422 c 128,-1,72
 1345 1412 1345 1412 1319 1394 c 2,73,-1
 1204 1315 l 1,74,75
 1241 1231 1241 1231 1241 1124 c 0,76,77
 1241 832 1241 832 1060 630 c 1,78,-1
 1159 541 l 1,79,80
 1215 489 1215 489 1217 451 c 1,81,82
 1217 414 1217 414 1185 380.5 c 128,-1,83
 1153 347 1153 347 1117 347 c 0,84,85
 1078 347 1078 347 1040 372 c 128,-1,86
 1002 397 1002 397 951 450 c 128,-1,87
 900 503 900 503 898 505 c 1,15,16
EndSplineSet
EndChar

StartChar: yen
Encoding: 165 165 102
Width: 1793
GlyphClass: 2
Flags: MW
LayerCount: 2
Fore
SplineSet
1239 545 m 2,0,1
 1376 545 1376 545 1376 481 c 0,2,3
 1376 451 1376 451 1361 431 c 128,-1,4
 1346 411 1346 411 1317.5 401.5 c 128,-1,5
 1289 392 1289 392 1259.5 388.5 c 128,-1,6
 1230 385 1230 385 1191 385 c 2,7,-1
 945 385 l 1,8,9
 929 334 929 334 917 300.5 c 128,-1,10
 905 267 905 267 885.5 222.5 c 128,-1,11
 866 178 866 178 846.5 149.5 c 128,-1,12
 827 121 827 121 797.5 90 c 128,-1,13
 768 59 768 59 734.5 41.5 c 128,-1,14
 701 24 701 24 656 12.5 c 128,-1,15
 611 1 611 1 557 1 c 0,16,17
 498 1 498 1 456 29 c 128,-1,18
 414 57 414 57 414 108 c 0,19,20
 414 146 414 146 433.5 179.5 c 128,-1,21
 453 213 453 213 484 213 c 0,22,23
 509 213 509 213 544.5 200 c 128,-1,24
 580 187 580 187 600 187 c 0,25,26
 609 187 609 187 619 200.5 c 128,-1,27
 629 214 629 214 639.5 243.5 c 128,-1,28
 650 273 650 273 656 291 c 128,-1,29
 662 309 662 309 672.5 346.5 c 128,-1,30
 683 384 683 384 683 385 c 1,31,-1
 589 385 l 2,32,33
 448 385 448 385 448 475 c 0,34,35
 448 545 448 545 589 545 c 2,36,-1
 725 545 l 1,37,-1
 749 641 l 1,38,-1
 594 641 l 2,39,40
 448 641 448 641 448 731 c 0,41,42
 448 753 448 753 460.5 768 c 128,-1,43
 473 783 473 783 496 789.5 c 128,-1,44
 519 796 519 796 541.5 798.5 c 128,-1,45
 564 801 564 801 594 801 c 2,46,-1
 743 801 l 1,47,48
 738 830 738 830 723 913 c 128,-1,49
 708 996 708 996 700 1038.5 c 128,-1,50
 692 1081 692 1081 674 1154 c 128,-1,51
 656 1227 656 1227 639 1272 c 128,-1,52
 622 1317 622 1317 595 1366 c 128,-1,53
 568 1415 568 1415 536 1446 c 0,54,55
 508 1472 508 1472 480 1472 c 128,-1,56
 452 1472 452 1472 419 1457.5 c 128,-1,57
 386 1443 386 1443 363 1428 c 128,-1,58
 340 1413 340 1413 303 1378.5 c 128,-1,59
 266 1344 266 1344 252.5 1330.5 c 128,-1,60
 239 1317 239 1317 203 1279 c 1,61,62
 182 1292 182 1292 164 1308.5 c 128,-1,63
 146 1325 146 1325 117 1357 c 128,-1,64
 88 1389 88 1389 78 1400 c 1,65,66
 255 1608 255 1608 435 1672 c 0,67,68
 488 1691 488 1691 533 1691 c 128,-1,69
 578 1691 578 1691 618.5 1672 c 128,-1,70
 659 1653 659 1653 688 1626 c 128,-1,71
 717 1599 717 1599 744.5 1551.5 c 128,-1,72
 772 1504 772 1504 789 1466.5 c 128,-1,73
 806 1429 806 1429 824.5 1369 c 128,-1,74
 843 1309 843 1309 851.5 1275.5 c 128,-1,75
 860 1242 860 1242 874 1186 c 0,76,77
 910 1039 910 1039 940 869 c 1,78,79
 1035 1007 1035 1007 1202.5 1265 c 128,-1,80
 1370 1523 1370 1523 1423 1603 c 1,81,82
 1460 1657 1460 1657 1555 1657 c 0,83,84
 1603 1657 1603 1657 1631.5 1635.5 c 128,-1,85
 1660 1614 1660 1614 1660 1570 c 0,86,87
 1660 1542 1660 1542 1653.5 1515.5 c 128,-1,88
 1647 1489 1647 1489 1632 1462.5 c 128,-1,89
 1617 1436 1617 1436 1605.5 1419.5 c 128,-1,90
 1594 1403 1594 1403 1571.5 1373.5 c 128,-1,91
 1549 1344 1549 1344 1540 1332 c 0,92,93
 1482 1252 1482 1252 1348.5 1073.5 c 128,-1,94
 1215 895 1215 895 1148 801 c 1,95,-1
 1266 801 l 2,96,97
 1408 801 1408 801 1408 737 c 0,98,99
 1408 707 1408 707 1392 686.5 c 128,-1,100
 1376 666 1376 666 1346 657 c 128,-1,101
 1316 648 1316 648 1286 644.5 c 128,-1,102
 1256 641 1256 641 1216 641 c 2,103,-1
 1042 641 l 1,104,-1
 1007 545 l 1,105,-1
 1239 545 l 2,0,1
EndSplineSet
EndChar

StartChar: brokenbar
Encoding: 166 166 103
Width: 1025
GlyphClass: 2
Flags: MW
LayerCount: 2
Fore
SplineSet
415 -160 m 0,0,1
 363 -160 363 -160 335.5 -112 c 128,-1,2
 308 -64 308 -64 308 1 c 0,3,4
 308 97 308 97 323.5 197 c 128,-1,5
 339 297 339 297 364 416 c 128,-1,6
 389 535 389 535 400 608 c 1,7,8
 408 668 408 668 442 708.5 c 128,-1,9
 476 749 476 749 533 749 c 0,10,11
 592 749 592 749 623 702 c 128,-1,12
 654 655 654 655 654 585 c 0,13,14
 654 547 654 547 648.5 501.5 c 128,-1,15
 643 456 643 456 634 405.5 c 128,-1,16
 625 355 625 355 623 338 c 2,17,-1
 605 194 l 2,18,19
 592 88 592 88 566 -64 c 0,20,21
 558 -113 558 -113 533.5 -137.5 c 128,-1,22
 509 -162 509 -162 459 -162 c 0,23,24
 451 -162 451 -162 436.5 -161 c 128,-1,25
 422 -160 422 -160 415 -160 c 0,0,1
615 943 m 0,26,27
 556 943 556 943 518.5 988.5 c 128,-1,28
 481 1034 481 1034 481 1097 c 2,29,-1
 481 1110 l 2,30,31
 481 1115 481 1115 483 1125 c 0,32,33
 533 1545 533 1545 575 1728 c 0,34,35
 587 1781 587 1781 616.5 1817.5 c 128,-1,36
 646 1854 646 1854 691 1854 c 0,37,38
 750 1854 750 1854 779 1799 c 128,-1,39
 808 1744 808 1744 808 1668 c 2,40,-1
 808 1646 l 2,41,42
 808 1542 808 1542 772.5 1325 c 128,-1,43
 737 1108 737 1108 735 1088 c 0,44,45
 717 943 717 943 615 943 c 0,26,27
EndSplineSet
EndChar

